<svg width="32" height="32" viewBox="0 0 32 32" fill="none" xmlns="http://www.w3.org/2000/svg">
<path d="M24.5273 19.7285C25.0535 19.5615 25.6159 19.8528 25.7832 20.3789C25.9032 20.7564 26.0657 21.2161 26.2529 21.7432C26.2839 21.8302 26.3155 21.9191 26.3477 22.0098C26.571 22.6398 26.8169 23.3413 27.0361 24.0469C27.2547 24.7503 27.4531 25.4774 27.5791 26.1611C27.7026 26.8311 27.7702 27.5301 27.6787 28.1504C27.5981 28.6967 27.0902 29.0747 26.5439 28.9941C25.9976 28.9135 25.6196 28.4048 25.7002 27.8584C25.7445 27.5582 25.7206 27.1112 25.6123 26.5234C25.6001 26.4571 25.5843 26.3904 25.5703 26.3223C19.2058 28.1347 12.8313 28.1359 6.4668 26.3252C6.45306 26.3922 6.43879 26.4581 6.42676 26.5234C6.31844 27.1112 6.29462 27.5582 6.33887 27.8584C6.41948 28.4047 6.04241 28.9135 5.49609 28.9941C4.94972 29.0748 4.44097 28.6968 4.36035 28.1504C4.26886 27.5301 4.33649 26.8311 4.45996 26.1611C4.58599 25.4774 4.78533 24.7504 5.00391 24.0469C5.22312 23.3413 5.46803 22.6398 5.69141 22.0098C5.72356 21.9191 5.75521 21.8302 5.78613 21.7432C5.97338 21.2161 6.13686 20.7564 6.25684 20.3789C6.42419 19.8528 6.98647 19.5614 7.5127 19.7285C8.03904 19.8958 8.33036 20.459 8.16309 20.9854C8.032 21.3978 7.8548 21.894 7.66895 22.417C7.63833 22.5032 7.60812 22.5904 7.57715 22.6777C7.38184 23.2285 7.17877 23.812 6.99219 24.3955C13.0135 26.1127 19.0235 26.1116 25.0449 24.3926C24.8586 23.8102 24.6578 23.2275 24.4629 22.6777C24.4319 22.5904 24.4007 22.5032 24.3701 22.417C24.1843 21.8941 24.008 21.3977 23.877 20.9854C23.7097 20.459 24.001 19.8958 24.5273 19.7285ZM24.6836 3.5957C24.906 3.09021 25.4964 2.8606 26.002 3.08301C26.5074 3.30546 26.737 3.89589 26.5146 4.40137C26.1623 5.20219 25.8096 6.32643 25.5449 7.43164C25.4042 8.01944 25.2947 8.57431 25.2227 9.05078C25.3425 9.01338 25.4632 8.97734 25.583 8.93848C25.7262 8.8917 25.8648 8.8398 26.0254 8.78027C26.1193 8.74546 26.2213 8.70821 26.3359 8.66699C26.619 8.56521 26.9516 8.45252 27.2949 8.38086C27.9631 8.24142 28.9355 8.2059 29.6748 8.99707C29.8659 9.20163 29.9567 9.4437 30 9.57324C30.0529 9.7314 30.0915 9.90406 30.1221 10.0703C30.1836 10.4048 30.2271 10.809 30.2588 11.2285C30.3226 12.0735 30.3447 13.0753 30.3447 13.9102V13.9482C30.3448 14.3276 30.3452 14.6761 30.3184 14.9707C30.2889 15.294 30.2225 15.627 30.0469 15.957C29.7852 16.4484 29.3904 16.746 29.041 16.9375C28.7711 17.0854 28.4664 17.1997 28.252 17.2803C28.2097 17.2962 28.171 17.311 28.1367 17.3242C26.3924 17.9979 24.6441 18.5278 22.8926 18.9111C20.6017 19.4125 18.3073 19.6631 16.0117 19.6631C13.7167 19.6631 11.4237 19.4121 9.13379 18.9111C7.38185 18.5278 5.63277 17.9982 3.8877 17.3242C3.83858 17.3053 3.78974 17.2868 3.74219 17.2686C3.10938 17.0262 2.61303 16.8355 2.20508 16.3096L2.20605 16.3105C1.83852 15.838 1.71835 15.3335 1.68164 14.9082C1.65897 14.6453 1.66856 14.3176 1.6748 14.0957C1.67697 14.0189 1.67871 13.9546 1.67871 13.9102V13.8926C1.67871 13.0822 1.67836 12.1061 1.73047 11.2764C1.75662 10.86 1.79763 10.4491 1.86621 10.0986C1.90051 9.92335 1.94608 9.74073 2.00977 9.56934C2.06886 9.41034 2.16907 9.18926 2.34863 8.99707C3.1034 8.18925 4.13074 8.26093 4.78223 8.39941C5.13088 8.47356 5.46559 8.58526 5.74414 8.68555C5.86611 8.72946 5.96998 8.76826 6.0625 8.80273C6.20549 8.85601 6.32211 8.89942 6.43945 8.9375C6.56156 8.97711 6.68455 9.01464 6.80664 9.05273C6.73457 8.57588 6.62627 8.02015 6.48535 7.43164C6.22074 6.32656 5.86889 5.20216 5.5166 4.40137C5.29419 3.89585 5.52378 3.30542 6.0293 3.08301C6.53467 2.86095 7.12428 3.09043 7.34668 3.5957C7.76359 4.5433 8.14956 5.79184 8.43066 6.96582C8.65643 7.90869 8.82761 8.86892 8.88477 9.62891C13.6403 10.7784 18.389 10.7774 23.1445 9.62695C23.2018 8.86726 23.374 7.90793 23.5996 6.96582C23.8807 5.79182 24.2667 4.54331 24.6836 3.5957ZM28.1318 10.3145C28.0636 10.2958 27.9378 10.2899 27.7031 10.3389C27.5006 10.3812 27.2743 10.4547 27.0127 10.5488C26.9391 10.5753 26.857 10.6051 26.7715 10.6367C26.5854 10.7055 26.3815 10.7816 26.2031 10.8398H26.2012C19.4137 13.0416 12.6107 13.0415 5.82324 10.8398C5.66936 10.7899 5.47973 10.7193 5.30469 10.6543C5.22032 10.623 5.13855 10.5934 5.06641 10.5674C4.8127 10.476 4.57983 10.4009 4.36621 10.3555C4.07178 10.2929 3.93021 10.3087 3.86426 10.3311C3.8539 10.3686 3.84159 10.4186 3.8291 10.4824C3.78491 10.7083 3.75054 11.0205 3.72656 11.4023C3.67879 12.1633 3.67871 13.0801 3.67871 13.9102C3.67871 14.0235 3.67504 14.1522 3.67188 14.2607C3.67053 14.3068 3.66877 14.3495 3.66797 14.3857C3.66483 14.5275 3.66638 14.6386 3.6748 14.7363C3.69063 14.9194 3.7284 15.0112 3.78418 15.083L3.78516 15.084C3.8041 15.1084 3.81464 15.1176 3.81641 15.1191C3.81879 15.1211 3.83419 15.1335 3.88086 15.1582C4.00169 15.222 4.18911 15.2965 4.60742 15.458C5.85537 15.94 7.10171 16.3426 8.3457 16.666L8.34473 15.7461C8.34423 15.1938 8.79244 14.7456 9.34473 14.7451C9.8968 14.7449 10.3442 15.192 10.3447 15.7441L10.3467 17.1182C11.9031 17.4173 13.4579 17.5937 15.0117 17.6465V16.4746C15.0118 15.9224 15.4595 15.4747 16.0117 15.4746C16.564 15.4746 17.0117 15.9224 17.0117 16.4746V17.6465C18.566 17.5938 20.1218 17.4174 21.6787 17.1182V15.7451C21.6787 15.1928 22.1264 14.7451 22.6787 14.7451C23.2309 14.7452 23.6787 15.1929 23.6787 15.7451V16.666C24.9224 16.3426 26.1683 15.9399 27.416 15.458C27.4826 15.4323 27.5437 15.4099 27.5996 15.3887C27.8051 15.3107 27.9459 15.2571 28.0801 15.1836C28.2245 15.1044 28.2642 15.0495 28.2812 15.0176C28.2871 15.0066 28.3105 14.9611 28.3262 14.7891C28.3437 14.5962 28.3447 14.3401 28.3447 13.9102C28.3447 13.101 28.3232 12.1542 28.2646 11.3789C28.2352 10.9887 28.1982 10.6646 28.1553 10.4316C28.1468 10.3859 28.1392 10.3468 28.1318 10.3145Z" fill="#A77B27"/>
</svg>
