<svg width="22" height="22" viewBox="0 0 22 22" fill="none" xmlns="http://www.w3.org/2000/svg">
<path d="M10.75 0C16.6871 0 21.5 4.81294 21.5 10.75C21.5 16.6871 16.6871 21.5 10.75 21.5C4.81294 21.5 0 16.6871 0 10.75C0 4.81294 4.81294 0 10.75 0ZM10.75 1.5C5.64137 1.5 1.5 5.64137 1.5 10.75C1.5 15.8586 5.64137 20 10.75 20C15.8586 20 20 15.8586 20 10.75C20 5.64137 15.8586 1.5 10.75 1.5ZM10.25 5C10.6642 5 11 5.33579 11 5.75V6.37891H15.75C16.1641 6.37891 16.4998 6.71488 16.5 7.12891C16.5 7.54312 16.1642 7.87891 15.75 7.87891H13.8037C13.2645 9.47966 12.3625 10.9786 11.3486 12.3145L12.8262 13.8506C13.1133 14.1491 13.1041 14.624 12.8057 14.9111C12.5071 15.1983 12.0323 15.1891 11.7451 14.8906L10.3975 13.4893C9.47762 14.5579 8.51355 15.508 7.65039 16.3018C7.34552 16.5821 6.8712 16.5626 6.59082 16.2578C6.31057 15.953 6.33024 15.4787 6.63477 15.1982C7.51141 14.3921 8.47982 13.4332 9.38574 12.3643C9.15725 12.0773 8.92072 11.7662 8.7041 11.4658C8.36732 10.9988 8.03875 10.5053 7.87695 10.1582C7.70198 9.78279 7.86484 9.33614 8.24023 9.16113C8.61567 8.98615 9.06232 9.14898 9.2373 9.52441C9.3328 9.7291 9.58307 10.1204 9.9209 10.5889C10.0564 10.7768 10.1994 10.9693 10.3428 11.1553C11.105 10.118 11.7608 9.01506 12.207 7.87891H5.75C5.33579 7.87891 5 7.54312 5 7.12891C5.00022 6.71488 5.33592 6.37891 5.75 6.37891H9.5V5.75C9.5 5.33579 9.83579 5 10.25 5Z" fill="#1C1C1C"/>
</svg>
