<svg width="18" height="18" viewBox="0 0 18 18" fill="none" xmlns="http://www.w3.org/2000/svg">
<path fill-rule="evenodd" clip-rule="evenodd" d="M0 8.95833C0 4.01078 4.01078 0 8.95833 0C13.9059 0 17.9167 4.01078 17.9167 8.95833C17.9167 13.9059 13.9059 17.9167 8.95833 17.9167C4.01078 17.9167 0 13.9059 0 8.95833ZM8.125 12.2917C8.125 11.8314 8.49643 11.4583 8.95461 11.4583H8.96206C9.42024 11.4583 9.79167 11.8314 9.79167 12.2917C9.79167 12.7519 9.42024 13.125 8.96206 13.125H8.95461C8.49643 13.125 8.125 12.7519 8.125 12.2917ZM8.125 8.95833C8.125 9.41857 8.4981 9.79167 8.95833 9.79167C9.41857 9.79167 9.79167 9.41857 9.79167 8.95833V5.625C9.79167 5.16476 9.41857 4.79167 8.95833 4.79167C8.4981 4.79167 8.125 5.16476 8.125 5.625V8.95833Z" fill="url(#paint0_linear_2287_2108)"/>
<defs>
<linearGradient id="paint0_linear_2287_2108" x1="17.9167" y1="8.36969" x2="-0.00123784" y2="8.38884" gradientUnits="userSpaceOnUse">
<stop stop-color="#15C472"/>
<stop offset="1" stop-color="#0A717E"/>
</linearGradient>
</defs>
</svg>
