<svg width="16" height="18" viewBox="0 0 16 18" fill="none" xmlns="http://www.w3.org/2000/svg">
<path fill-rule="evenodd" clip-rule="evenodd" d="M7.70834 17.9166C7.45915 17.9166 7.24598 17.8471 7.05175 17.7569C6.4093 17.4371 5.61605 16.9803 5.02561 16.6299C4.60305 16.3791 4.39177 16.2537 4.16695 16.2517C3.94212 16.2498 3.73279 16.3692 3.31411 16.6081L2.47662 17.0858C2.05728 17.2923 1.34875 17.5556 0.710033 17.1685C0.265514 16.899 0.11842 16.4458 0.0578488 16.036C-7.64678e-05 15.6441 -3.99074e-05 15.1332 2.26284e-06 14.5444L4.05098e-06 5.57927C-1.3135e-05 4.43962 -2.69959e-05 3.52102 0.0971069 2.79854C0.197954 2.04845 0.413699 1.41689 0.915296 0.915293C1.41689 0.413696 2.04846 0.197952 2.79855 0.0971046C3.52101 -2.82625e-05 4.43962 -1.54687e-05 5.57926 4.04295e-07H5.57928H9.83739H9.8374C10.977 -1.54687e-05 11.8957 -2.82625e-05 12.6181 0.0971046C13.3682 0.197952 13.9998 0.413696 14.5014 0.915293C15.003 1.41689 15.2187 2.04845 15.3196 2.79854C15.4167 3.52102 15.4167 4.43962 15.4167 5.57927L15.4167 14.5444C15.4167 15.1332 15.4167 15.6441 15.3588 16.036C15.2982 16.4458 15.1512 16.899 14.7066 17.1685C14.0679 17.5556 13.3594 17.2923 12.94 17.0858L12.1026 16.6081C11.6839 16.3692 11.4745 16.2498 11.2497 16.2517C11.0249 16.2537 10.8136 16.3791 10.3911 16.6299C9.80062 16.9803 9.00737 17.4371 8.36491 17.7569C8.17068 17.8471 7.95752 17.9166 7.70834 17.9166ZM4.61908 11.2143C4.29364 10.8888 4.29364 10.3612 4.61908 10.0357L9.61908 5.03575C9.94451 4.71031 10.4722 4.71031 10.7976 5.03575C11.123 5.36118 11.123 5.88882 10.7976 6.21426L5.79759 11.2143C5.47215 11.5397 4.94451 11.5397 4.61908 11.2143ZM5.21581 4.79167H5.20833C4.7481 4.79167 4.375 5.16476 4.375 5.625C4.375 6.08524 4.7481 6.45833 5.20833 6.45833H5.21581C5.67604 6.45833 6.04914 6.08524 6.04914 5.625C6.04914 5.16476 5.67604 4.79167 5.21581 4.79167ZM10.2009 9.79167C9.74062 9.79167 9.36753 10.1648 9.36753 10.625C9.36753 11.0852 9.74062 11.4583 10.2009 11.4583H10.2083C10.6686 11.4583 11.0417 11.0852 11.0417 10.625C11.0417 10.1648 10.6686 9.79167 10.2083 9.79167H10.2009Z" fill="url(#paint0_linear_2287_2029)"/>
<defs>
<linearGradient id="paint0_linear_2287_2029" x1="15.4167" y1="8.36967" x2="-0.00106969" y2="8.38385" gradientUnits="userSpaceOnUse">
<stop stop-color="#15C472"/>
<stop offset="1" stop-color="#0A717E"/>
</linearGradient>
</defs>
</svg>
