<svg width="24" height="24" viewBox="0 0 24 24" fill="none" xmlns="http://www.w3.org/2000/svg">
<path d="M14.3281 7.44678C15.3909 6.99015 16.3487 7.73581 18.0879 9.08643L19.0508 9.83838C20.1089 10.6551 20.7478 11.1503 20.748 11.9966C20.748 12.8431 20.1094 13.3385 19.0498 14.1567L18.0889 14.9058C16.3499 16.2577 15.3907 17.0039 14.334 16.5503C13.2519 16.0759 13.252 14.8925 13.252 12.7476V12.7427H4C3.58594 12.7427 3.25025 12.4067 3.25 11.9927C3.25 11.5785 3.58579 11.2427 4 11.2427H13.252C13.252 9.10003 13.2526 7.91794 14.3281 7.44678ZM14.9326 8.80029C14.7522 8.98561 14.752 10.187 14.752 11.2485V12.7485C14.752 13.8086 14.7525 15.0114 14.9404 15.1997C15.1698 15.2949 16.2292 14.4726 17.1621 13.7466L18.1221 12.9976C18.1221 12.9976 18.1236 12.9978 18.125 12.9966C18.6059 12.6246 19.2056 12.1603 19.251 11.9956V11.9937C19.205 11.8347 18.6056 11.3723 18.125 11.0005L17.1602 10.2495C16.2268 9.52318 15.1688 8.6998 14.9326 8.80029Z" fill="white"/>
</svg>
