<svg width="20" height="22" viewBox="0 0 20 22" fill="none" xmlns="http://www.w3.org/2000/svg">
<path fill-rule="evenodd" clip-rule="evenodd" d="M8.33333 0C4.62015 0 1.60657 2.99293 1.60655 6.68914C1.60647 7.54888 1.54865 8.19777 1.15226 8.78099C1.09714 8.8609 1.02402 8.961 0.944116 9.07036C0.805323 9.26033 0.646064 9.47832 0.525279 9.66709C0.312101 10.0002 0.103829 10.402 0.0322299 10.8702C-0.201365 12.3975 0.875464 13.3864 1.94788 13.8295C2.64498 14.1175 3.39108 14.3524 4.16812 14.5341C4.16299 14.6206 4.17137 14.7093 4.19483 14.7976C4.67573 16.6071 6.35903 17.9169 8.33354 17.9169C10.308 17.9169 11.9913 16.6071 12.4722 14.7976C12.4957 14.7093 12.5041 14.6205 12.499 14.534C13.2758 14.3523 14.0218 14.1175 14.7188 13.8295C15.7912 13.3864 16.868 12.3975 16.6344 10.8702C16.5628 10.402 16.3546 10.0002 16.1414 9.66709C16.0206 9.47834 15.8614 9.2604 15.7226 9.07044C15.6427 8.96109 15.5696 8.86097 15.5145 8.78106C15.118 8.19781 15.0602 7.54899 15.0601 6.68919C15.0601 2.99296 12.0465 0 8.33333 0ZM10.6728 14.8574C9.13371 15.0475 7.53341 15.0476 5.99432 14.8574C6.41674 15.6742 7.29697 16.2502 8.33354 16.2502C9.37013 16.2502 10.2504 15.6742 10.6728 14.8574Z" fill="url(#paint0_linear_1905_4003)"/>
<defs>
<linearGradient id="paint0_linear_1905_4003" x1="20" y1="10.0437" x2="-0.00138486" y2="10.0636" gradientUnits="userSpaceOnUse">
<stop stop-color="#15C472"/>
<stop offset="1" stop-color="#0A717E"/>
</linearGradient>
</defs>
</svg>
