<svg width="22" height="20" viewBox="0 0 22 20" fill="none" xmlns="http://www.w3.org/2000/svg">
<path fill-rule="evenodd" clip-rule="evenodd" d="M4 4.75C4 2.12665 6.12665 0 8.75 0C11.3734 0 13.5 2.12665 13.5 4.75C13.5 7.37335 11.3734 9.5 8.75 9.5C6.12665 9.5 4 7.37335 4 4.75ZM8.75 1.5C6.95507 1.5 5.5 2.95507 5.5 4.75C5.5 6.54493 6.95507 8 8.75 8C10.5449 8 12 6.54493 12 4.75C12 2.95507 10.5449 1.5 8.75 1.5Z" fill="#EC2D30"/>
<path fill-rule="evenodd" clip-rule="evenodd" d="M3.551 12.3993C6.73419 10.5336 10.7662 10.5336 13.9494 12.3993C14.0502 12.4584 14.1757 12.5281 14.3186 12.6074C14.9512 12.9586 15.9231 13.4981 16.5885 14.1392C17.004 14.5396 17.4135 15.0803 17.4883 15.7537C17.5684 16.4752 17.2461 17.1411 16.6298 17.7191C15.5797 18.7039 14.3118 19.5 12.6694 19.5H4.83096C3.18862 19.5 1.9207 18.7039 0.870619 17.7191C0.254298 17.1411 -0.06805 16.4752 0.012072 15.7537C0.0868444 15.0803 0.496401 14.5396 0.911885 14.1392C1.57728 13.4981 2.54919 12.9586 3.18183 12.6074C3.3245 12.5282 3.45028 12.4584 3.551 12.3993ZM13.1909 13.6934C10.4761 12.1022 7.0243 12.1022 4.30951 13.6934C4.15705 13.7828 3.99118 13.8755 3.81829 13.972C3.18584 14.3253 2.45944 14.7311 1.95266 15.2194C1.63766 15.5229 1.52085 15.7577 1.50291 15.9192C1.49032 16.0326 1.50891 16.2612 1.89672 16.6249C2.80867 17.4802 3.72597 18 4.83096 18H12.6694C13.7744 18 14.6917 17.4802 15.6037 16.6249C15.9915 16.2612 16.0101 16.0326 15.9975 15.9192C15.9795 15.7577 15.8627 15.5229 15.5477 15.2194C15.0409 14.7311 14.3147 14.3254 13.6822 13.9721C13.5093 13.8755 13.3434 13.7828 13.1909 13.6934Z" fill="#EC2D30"/>
<path d="M16.2803 1.71967C15.9874 1.42678 15.5126 1.42678 15.2197 1.71967C14.9268 2.01256 14.9268 2.48744 15.2197 2.78033L17.1893 4.75L15.2197 6.71967C14.9268 7.01256 14.9268 7.48744 15.2197 7.78033C15.5126 8.07322 15.9874 8.07322 16.2803 7.78033L18.25 5.81066L20.2197 7.78033C20.5126 8.07322 20.9874 8.07322 21.2803 7.78033C21.5732 7.48744 21.5732 7.01256 21.2803 6.71967L19.3107 4.75L21.2803 2.78033C21.5732 2.48744 21.5732 2.01256 21.2803 1.71967C20.9874 1.42678 20.5126 1.42678 20.2197 1.71967L18.25 3.68934L16.2803 1.71967Z" fill="#EC2D30"/>
</svg>
