<svg width="22" height="22" viewBox="0 0 22 22" fill="none" xmlns="http://www.w3.org/2000/svg">
<path fill-rule="evenodd" clip-rule="evenodd" d="M17.25 0C14.9028 0 13 1.90279 13 4.25C13 6.59721 14.9028 8.5 17.25 8.5C19.5972 8.5 21.5 6.59721 21.5 4.25C21.5 1.90279 19.5972 0 17.25 0ZM14.5 4.25C14.5 2.73122 15.7312 1.5 17.25 1.5C18.7688 1.5 20 2.73122 20 4.25C20 5.76878 18.7688 7 17.25 7C15.7312 7 14.5 5.76878 14.5 4.25Z" fill="url(#paint0_linear_1866_16370)"/>
<path d="M11.2161 2.5329C10.0313 2.47932 9.81065 2.49087 8.62914 2.56941C4.82977 2.82196 1.7891 5.89416 1.53868 9.76908C1.48711 10.5671 1.48711 11.3945 1.53868 12.1925C1.62658 13.5527 2.23344 14.8546 3.00215 16.0089C3.01364 16.0261 3.0244 16.0438 3.03442 16.062C3.70276 17.272 3.2127 18.6519 2.71352 19.5978C2.63175 19.7528 2.56456 19.8802 2.50892 19.9913C2.5844 19.9939 2.66937 19.996 2.76768 19.9984C3.83642 20.0244 4.514 19.7289 5.05355 19.331L5.07118 19.318C5.24484 19.1899 5.40222 19.0739 5.53243 18.9896C5.64552 18.9164 5.85242 18.7873 6.1039 18.7564C6.36726 18.724 6.6227 18.8135 6.7502 18.8584C6.91324 18.9157 7.12036 19.001 7.35973 19.0996L7.37962 19.1078C7.75903 19.264 8.21321 19.3645 8.62914 19.3922C10.0202 19.4846 11.4769 19.4848 12.8709 19.3922C16.6702 19.1396 19.7109 16.0674 19.9613 12.1925C20.0129 11.3945 20.0129 10.5671 19.9613 9.76908C19.9346 9.35573 20.248 8.99898 20.6614 8.97227C21.0747 8.94556 21.4315 9.25899 21.4582 9.67234C21.5139 10.5348 21.5139 11.4268 21.4582 12.2892C21.1603 16.899 17.537 20.5853 12.9704 20.8889C11.5101 20.9859 9.98692 20.9857 8.52965 20.8889C7.96472 20.8513 7.34978 20.7177 6.80839 20.4948C6.5703 20.3967 6.40868 20.3303 6.29041 20.287C6.20909 20.3429 6.10108 20.4223 5.9438 20.5382C5.15136 21.1226 4.15092 21.5325 2.73117 21.4979L2.68544 21.4968C2.41155 21.4903 2.11961 21.4833 1.88152 21.4373C1.59475 21.3818 1.23996 21.2431 1.01791 20.8645C0.776229 20.4525 0.873128 20.0358 0.966883 19.7734C1.05536 19.5257 1.20874 19.2352 1.36542 18.9385L1.3869 18.8978C1.85323 18.0141 1.98314 17.2919 1.73381 16.8104C0.901479 15.554 0.152725 14.0056 0.0418013 12.2892C-0.0139338 11.4268 -0.0139338 10.5348 0.0418013 9.67234C0.339716 5.06256 3.963 1.37627 8.52965 1.07271C9.75304 0.991388 10.0311 0.977774 11.2839 1.03443C11.6977 1.05314 12.0179 1.40375 11.9992 1.81754C11.9805 2.23134 11.6299 2.55161 11.2161 2.5329Z" fill="url(#paint1_linear_1866_16370)"/>
<path d="M6.5 13.75C6.5 14.1642 6.83579 14.5 7.25 14.5H14.25C14.6642 14.5 15 14.1642 15 13.75C15 13.3358 14.6642 13 14.25 13H7.25C6.83579 13 6.5 13.3358 6.5 13.75Z" fill="url(#paint2_linear_1866_16370)"/>
<path d="M6.5 8.75C6.5 9.16421 6.83579 9.5 7.25 9.5H10.75C11.1642 9.5 11.5 9.16421 11.5 8.75C11.5 8.33579 11.1642 8 10.75 8H7.25C6.83579 8 6.5 8.33579 6.5 8.75Z" fill="url(#paint3_linear_1866_16370)"/>
<defs>
<linearGradient id="paint0_linear_1866_16370" x1="21.5" y1="10.0436" x2="-0.00148541" y2="10.0666" gradientUnits="userSpaceOnUse">
<stop stop-color="#15C472"/>
<stop offset="1" stop-color="#0A717E"/>
</linearGradient>
<linearGradient id="paint1_linear_1866_16370" x1="21.5" y1="10.0436" x2="-0.00148541" y2="10.0666" gradientUnits="userSpaceOnUse">
<stop stop-color="#15C472"/>
<stop offset="1" stop-color="#0A717E"/>
</linearGradient>
<linearGradient id="paint2_linear_1866_16370" x1="21.5" y1="10.0436" x2="-0.00148541" y2="10.0666" gradientUnits="userSpaceOnUse">
<stop stop-color="#15C472"/>
<stop offset="1" stop-color="#0A717E"/>
</linearGradient>
<linearGradient id="paint3_linear_1866_16370" x1="21.5" y1="10.0436" x2="-0.00148541" y2="10.0666" gradientUnits="userSpaceOnUse">
<stop stop-color="#15C472"/>
<stop offset="1" stop-color="#0A717E"/>
</linearGradient>
</defs>
</svg>
