<svg width="18" height="18" viewBox="0 0 18 18" fill="none" xmlns="http://www.w3.org/2000/svg">
<path d="M1.62897 8.88022C1.62897 4.86752 4.91051 1.61459 8.9585 1.61459C13.0065 1.61459 16.288 4.86752 16.288 8.88022L16.288 9.19014C16.2184 9.10505 16.1518 9.0241 16.0909 8.95007C15.9781 8.82088 15.822 8.6634 15.613 8.54605C15.3221 8.38279 14.9868 8.31208 14.6557 8.33886C14.3576 8.36297 13.9486 8.54965 13.6462 8.68805C13.3494 8.82065 12.7898 9.07069 12.5766 9.70159C12.4991 9.93104 12.4997 10.1764 12.5003 10.4046V14.1787C12.4997 14.407 12.4991 14.6523 12.5766 14.8817C12.7898 15.5126 13.3494 15.7627 13.6462 15.8953C13.9486 16.0337 14.3576 16.2204 14.6557 16.2445C14.9868 16.2712 15.3221 16.2005 15.613 16.0373C15.8771 15.889 16.0754 15.647 16.2763 15.402C16.4529 15.1973 16.96 14.6027 17.1253 14.3864C17.3984 14.0291 17.672 13.6009 17.8079 13.1034C17.8915 12.7973 17.9271 12.4829 17.9146 12.1697C17.9161 12.1498 17.9169 12.1296 17.9169 12.1094L17.9168 8.88022C17.9168 3.97581 13.906 0 8.9585 0C4.01096 0 0.000190735 3.97581 0.000190735 8.88022V12.1094C0.000190735 12.1297 0.000945242 12.1498 0.00242795 12.1697C-0.0100433 12.4829 0.0255296 12.7973 0.109147 13.1034C0.245059 13.6009 0.518667 14.0291 0.791712 14.3864C0.95701 14.6027 1.46416 15.1973 1.64073 15.402C1.8416 15.647 2.03993 15.889 2.30409 16.0373C2.59496 16.2005 2.93021 16.2712 3.26135 16.2445C3.55944 16.2204 3.96842 16.0337 4.27084 15.8953C4.56764 15.7627 5.12726 15.5126 5.34041 14.8817C5.41793 14.6523 5.41733 14.407 5.41676 14.1787V10.4046C5.41733 10.1764 5.41793 9.93104 5.34041 9.70159C5.12726 9.07069 4.56763 8.82065 4.27084 8.68805C3.96842 8.54965 3.55944 8.36297 3.26135 8.33886C2.93021 8.31208 2.59496 8.38279 2.30409 8.54605C2.09501 8.6634 1.93894 8.82088 1.82616 8.95007C1.76519 9.02412 1.69866 9.10509 1.62897 9.19019V8.88022Z" fill="url(#paint0_linear_2287_2097)"/>
<path d="M6.27574 15.6711C6.59545 15.3401 7.123 15.3308 7.45407 15.6506C8.28174 16.4498 9.63531 16.4498 10.463 15.6506C10.794 15.3308 11.3216 15.3401 11.6413 15.6711C11.961 16.0022 11.9518 16.5297 11.6207 16.8495C10.1472 18.2724 7.76983 18.2724 6.29631 16.8495C5.96524 16.5297 5.95603 16.0022 6.27574 15.6711Z" fill="url(#paint1_linear_2287_2097)"/>
<defs>
<linearGradient id="paint0_linear_2287_2097" x1="17.917" y1="8.36969" x2="-0.00123787" y2="8.38884" gradientUnits="userSpaceOnUse">
<stop stop-color="#15C472"/>
<stop offset="1" stop-color="#0A717E"/>
</linearGradient>
<linearGradient id="paint1_linear_2287_2097" x1="17.917" y1="8.36969" x2="-0.00123787" y2="8.38884" gradientUnits="userSpaceOnUse">
<stop stop-color="#15C472"/>
<stop offset="1" stop-color="#0A717E"/>
</linearGradient>
</defs>
</svg>
