<svg width="18" height="18" viewBox="0 0 18 18" fill="none" xmlns="http://www.w3.org/2000/svg">
<path d="M8.54167 1.62699C6.69712 1.62699 5.39555 1.62872 4.41011 1.7612C3.44807 1.89055 2.91003 2.13094 2.52048 2.52049C2.13094 2.91003 1.89054 3.44807 1.7612 4.41011C1.62871 5.39555 1.62698 6.69712 1.62698 8.54167C1.62698 10.3862 1.62871 11.6878 1.7612 12.6732C1.89054 13.6353 2.13094 14.1733 2.52048 14.5629C2.91003 14.9524 3.44807 15.1928 4.41011 15.3221C5.39555 15.4546 6.69712 15.4563 8.54167 15.4563C10.3862 15.4563 11.6878 15.4546 12.6732 15.3221C13.6353 15.1928 14.1733 14.9524 14.5628 14.5629C14.9524 14.1733 15.1928 13.6353 15.3221 12.6732C15.4546 11.6878 15.4563 10.3862 15.4563 8.54167V7.32204C15.4563 6.87276 15.8206 6.50794 16.2698 6.50794C16.7191 6.50794 17.0833 6.87215 17.0833 7.32143V8.60221C17.0834 10.3724 17.0834 11.7836 16.9346 12.89C16.781 14.0325 16.4555 14.9711 15.7133 15.7133C14.9711 16.4555 14.0325 16.781 12.89 16.9346C11.7836 17.0834 10.3724 17.0834 8.60221 17.0833H8.48112C6.71097 17.0834 5.29978 17.0834 4.19332 16.9346C3.05087 16.781 2.11225 16.4555 1.37003 15.7133C0.62781 14.9711 0.302324 14.0325 0.148726 12.89C-3.33041e-05 11.7836 -1.83464e-05 10.3724 4.20111e-07 8.60225V8.4811C-1.83464e-05 6.71097 -3.33041e-05 5.29978 0.148726 4.19332C0.302324 3.05087 0.62781 2.11226 1.37003 1.37003C2.11225 0.627813 3.05087 0.302327 4.19332 0.148729C5.29978 -3.09323e-05 6.71096 -1.56131e-05 8.4811 3.53965e-06L9.76142 0C10.2107 -2.71529e-06 10.5754 0.364208 10.5754 0.813487C10.5754 1.26277 10.2112 1.62698 9.7619 1.62698L8.54167 1.62699Z" fill="url(#paint0_linear_2287_2062)"/>
<path d="M15.6701 0.242473C15.9934 -0.0808243 16.5176 -0.0808243 16.8409 0.242473C17.1642 0.56577 17.1642 1.08994 16.8409 1.41324L15.3405 2.91359L15.4354 3.00842C15.6054 3.17836 15.7854 3.35818 15.9103 3.51712C16.0014 3.63301 16.3355 4.06051 16.1547 4.59266C15.9738 5.12524 15.4542 5.241 15.3136 5.27197C15.12 5.31461 14.8709 5.33782 14.6351 5.35978L14.5946 5.36355C14.2234 5.39826 13.7919 5.42892 13.4072 5.41176C13.215 5.40319 13.0044 5.38168 12.8036 5.33037C12.6175 5.2828 12.3449 5.1864 12.121 4.96244C11.897 4.73847 11.8006 4.46585 11.753 4.27976C11.7017 4.07902 11.6802 3.86837 11.6716 3.67623C11.6545 3.29145 11.6851 2.86 11.7198 2.48873L11.7236 2.44826C11.7456 2.21251 11.7688 1.96334 11.8114 1.76974C11.8424 1.62913 11.9582 1.10954 12.4907 0.928617C13.0229 0.747837 13.4504 1.08195 13.5663 1.17305C13.7252 1.298 13.905 1.47791 14.0749 1.64796L14.1698 1.74283L15.6701 0.242473Z" fill="url(#paint1_linear_2287_2062)"/>
<path d="M9.375 4.79167C9.375 4.33143 9.0019 3.95833 8.54167 3.95833C8.08143 3.95833 7.70833 4.33143 7.70833 4.79167V5.0266C6.79323 5.31841 6.04167 6.08099 6.04167 7.13542C6.04167 8.49938 7.29926 9.375 8.54167 9.375C9.14021 9.375 9.375 9.75858 9.375 9.94792C9.375 10.1373 9.14021 10.5208 8.54167 10.5208C8.09473 10.5208 7.81677 10.2816 7.73846 10.0947C7.56063 9.67019 7.07236 9.47022 6.64786 9.64805C6.22336 9.82587 6.02339 10.3141 6.20122 10.7386C6.47262 11.3865 7.03969 11.8491 7.70833 12.0598V12.2917C7.70833 12.7519 8.08143 13.125 8.54167 13.125C9.0019 13.125 9.375 12.7519 9.375 12.2917V12.0567C10.2901 11.7649 11.0417 11.0023 11.0417 9.94792C11.0417 8.58395 9.78408 7.70833 8.54167 7.70833C7.94313 7.70833 7.70833 7.32475 7.70833 7.13542C7.70833 6.94608 7.94313 6.5625 8.54167 6.5625C8.98861 6.5625 9.26657 6.8017 9.34488 6.98864C9.5227 7.41314 10.011 7.61311 10.4355 7.43529C10.86 7.25746 11.0599 6.76919 10.8821 6.34469C10.6107 5.69681 10.0436 5.23427 9.375 5.02356V4.79167Z" fill="url(#paint2_linear_2287_2062)"/>
<defs>
<linearGradient id="paint0_linear_2287_2062" x1="17.0833" y1="7.98041" x2="-0.00118027" y2="7.99867" gradientUnits="userSpaceOnUse">
<stop stop-color="#15C472"/>
<stop offset="1" stop-color="#0A717E"/>
</linearGradient>
<linearGradient id="paint1_linear_2287_2062" x1="17.0833" y1="7.98041" x2="-0.00118027" y2="7.99867" gradientUnits="userSpaceOnUse">
<stop stop-color="#15C472"/>
<stop offset="1" stop-color="#0A717E"/>
</linearGradient>
<linearGradient id="paint2_linear_2287_2062" x1="17.0833" y1="7.98041" x2="-0.00118027" y2="7.99867" gradientUnits="userSpaceOnUse">
<stop stop-color="#15C472"/>
<stop offset="1" stop-color="#0A717E"/>
</linearGradient>
</defs>
</svg>
