<svg width="20" height="22" viewBox="0 0 20 22" fill="none" xmlns="http://www.w3.org/2000/svg">
<path fill-rule="evenodd" clip-rule="evenodd" d="M12.8996 0.595912C12.4435 0.255757 11.9124 0.0833095 11.3473 0.0327679C11.0006 0.00175849 10.5848 0.0013019 10.1233 0.000795169C10.0826 0.000750415 10.0415 0.000705271 10 0.000638653C9.9584 0.0005718 9.91679 0.000461828 9.87516 0.000351821C9.4799 -0.000692664 9.08347 -0.00174025 8.68992 0.0340876C8.11215 0.0866864 7.57032 0.266256 7.10861 0.620456C6.76721 0.882367 6.53387 1.20207 6.33676 1.54754C6.15403 1.86782 5.97212 2.26696 5.76556 2.72016L5.41008 3.5L1 3.5007C0.447715 3.5007 0 3.94842 0 4.5007C0 5.05299 0.447715 5.5007 1 5.5007H1.86958L2.40122 14.3953C2.47623 15.6503 2.53574 16.6462 2.65957 17.4417C2.78656 18.2575 2.99073 18.9369 3.40028 19.5313C3.77494 20.0751 4.25763 20.5341 4.8176 20.879C5.42972 21.2561 6.1135 21.421 6.92739 21.4999L13.0531 21.5C13.8661 21.4213 14.5491 21.2567 15.1608 20.8803C15.7204 20.536 16.2029 20.0778 16.5777 19.5349C16.9874 18.9415 17.1922 18.2631 17.3202 17.4484C17.4449 16.6541 17.5058 15.6596 17.5825 14.4064L18.1275 5.5007H19C19.5523 5.5007 20 5.05299 20 4.5007C20 3.94842 19.5523 3.5007 19 3.5007L14.6819 3.5L14.2555 2.6204C14.0437 2.1833 13.8569 1.79798 13.6714 1.48893C13.4712 1.15542 13.2369 0.847476 12.8996 0.595912ZM12.4593 3.5C12.2329 3.03301 12.0879 2.73696 11.9566 2.5182C11.7643 2.19787 11.5339 2.05745 11.1691 2.02482C10.9098 2.00163 10.5719 2.0007 10.0345 2.0007C9.48371 2.0007 9.13697 2.00166 8.87124 2.02585C8.49714 2.05991 8.26389 2.20568 8.07391 2.53866C7.94948 2.75676 7.81401 3.04867 7.60808 3.5H12.4593ZM7 10.3164C6.58579 10.3164 6.25 10.6522 6.25 11.0664C6.25 11.4806 6.58579 11.8164 7 11.8164H13C13.4142 11.8164 13.75 11.4806 13.75 11.0664C13.75 10.6522 13.4142 10.3164 13 10.3164H7ZM7.75 14.9844C7.75 14.5702 8.08579 14.2344 8.5 14.2344H11.5C11.9142 14.2344 12.25 14.5702 12.25 14.9844C12.25 15.3986 11.9142 15.7344 11.5 15.7344H8.5C8.08579 15.7344 7.75 15.3986 7.75 14.9844Z" fill="#A6282A"/>
</svg>
