<svg width="75" height="81" viewBox="0 0 75 81" fill="none" xmlns="http://www.w3.org/2000/svg">
<path fill-rule="evenodd" clip-rule="evenodd" d="M42.5523 0.12288C44.6714 0.312411 46.6631 0.959088 48.3734 2.23467C49.6382 3.17804 50.5171 4.33284 51.2678 5.58347C51.9634 6.74242 52.6638 8.18736 53.4583 9.82652L55.0572 13.125H64.5982C64.9079 13.125 65.1921 13.125 65.4533 13.1276H71.25C73.3211 13.1276 75 14.8066 75 16.8776C75 18.9487 73.3211 20.6276 71.25 20.6276H68.1437L66.9198 40.4316C66.8654 41.3118 66.8382 41.752 66.677 42.0842C66.5157 42.4163 66.0564 42.8272 65.1377 43.649C65.0129 43.7606 64.8904 43.8762 64.7702 43.9957L60.904 47.8408C59.6472 49.0907 59.0188 49.7156 58.238 49.7156C57.4571 49.7156 56.8288 49.0907 55.572 47.8408L51.7075 43.9974C48.0263 40.3363 42.0581 40.3365 38.3772 43.9978C34.6962 47.6591 34.6964 53.595 38.3776 57.2561L42.2409 61.0983C43.4978 62.3483 44.1263 62.9733 44.1263 63.75C44.1263 64.5267 43.4978 65.1517 42.2409 66.4017L38.3776 70.2439C36.1365 72.4728 35.2597 75.5449 35.7473 78.4335C35.9343 79.5413 36.0278 80.0952 35.8008 80.361C35.5737 80.6268 35.0817 80.6249 34.0975 80.621C30.88 80.6083 28.1877 80.5558 25.9169 80.3379C22.8482 80.0434 20.2701 79.4277 17.9622 78.0196C15.8509 76.7315 14.031 75.0176 12.6184 72.9872C11.0742 70.7677 10.3044 68.2306 9.82562 65.1844C9.35874 62.2139 9.13434 58.4952 8.85155 53.809L6.84899 20.6276H3.75C1.67893 20.6276 0 18.9487 0 16.8776C0 14.8066 1.67893 13.1276 3.75 13.1276H9.54518C9.80616 13.125 10.0902 13.125 10.3997 13.125H20.2878L21.6208 10.2006C22.3954 8.50108 23.0776 7.00433 23.7629 5.80328C24.502 4.50776 25.3771 3.30887 26.6573 2.32671C28.3887 0.998459 30.4205 0.325074 32.5872 0.127828C34.063 -0.00652593 35.5496 -0.00259749 37.0318 0.00131933L37.5 0.00239495L37.9624 0.00298188C39.6929 0.00488212 41.2522 0.00659435 42.5523 0.12288ZM46.7225 13.125H28.5303C29.3025 11.4325 29.8105 10.3378 30.2772 9.51998C30.9896 8.27131 31.8643 7.72465 33.2672 7.59694C34.2636 7.50622 35.5639 7.50264 37.6295 7.50264C39.6448 7.50264 40.9119 7.5061 41.8842 7.59306C43.2523 7.71542 44.1162 8.24202 44.8372 9.44325C45.3296 10.2636 45.8734 11.3738 46.7225 13.125Z" fill="#A6282A"/>
<path d="M73.9017 47.9734C75.3662 49.438 75.3661 51.8123 73.9016 53.2767L63.4276 63.75L73.9016 74.2233C75.3661 75.6877 75.3662 78.062 73.9017 79.5266C72.4373 80.9911 70.063 80.9911 68.5984 79.5267L58.1241 69.0531L47.6516 79.525C46.187 80.9894 43.8127 80.9893 42.3483 79.5248C40.8838 78.0603 40.8839 75.686 42.3484 74.2215L52.8207 63.75L42.3484 53.2785C40.8839 51.814 40.8838 49.4397 42.3483 47.9752C43.8127 46.5107 46.187 46.5106 47.6516 47.975L58.1241 58.4469L68.5984 47.9733C70.063 46.5088 72.4373 46.5089 73.9017 47.9734Z" fill="#A6282A"/>
</svg>
