<svg width="120" height="120" viewBox="0 0 120 120" fill="none" xmlns="http://www.w3.org/2000/svg">
<path d="M59.4593 0C65.3918 0 70.875 0.000102537 75.8333 0.105103V37.9167H43.75V0.0991211C48.4553 0 53.6736 0 59.4513 0H59.4593Z" fill="#A6282A"/>
<path d="M119.286 37.9172C119.134 34.5572 118.895 31.5122 118.527 28.8055C117.448 20.773 115.191 14.403 110.186 9.39799C105.181 4.39299 98.8109 2.1356 90.7784 1.05644C88.8767 0.799771 86.8117 0.607259 84.5833 0.461426V37.9172H119.286Z" fill="#A6282A"/>
<path d="M0 59.4593C0 54.8451 4.5575e-05 50.5925 0.0467122 46.6667H119.525C119.583 50.8317 119.583 55.3349 119.583 60.1241C119.583 72.9049 119.583 82.9442 118.527 90.7784C117.448 98.8109 115.191 105.181 110.186 110.186C105.181 115.191 98.9683 117.396 91.0758 118.487C92.8258 113.388 91.6651 107.508 87.5934 103.437L80.4066 96.25L87.5934 89.0634C93.2868 83.3701 93.2868 74.1357 87.5934 68.4366C81.8943 62.7432 72.6657 62.7432 66.9666 68.4366L59.78 75.6291L52.5934 68.4366C46.8943 62.7432 37.6657 62.7432 31.9666 68.4366C26.2732 74.1357 26.2732 83.3701 31.9666 89.0634L39.1534 96.25L31.9666 103.437C27.9007 107.508 26.7342 113.383 28.4842 118.487C20.6034 117.39 14.3383 115.127 9.39742 110.186C4.39242 105.181 2.13503 98.8109 1.05587 90.7784C3.42478e-05 82.9442 0 72.2401 0 59.4593Z" fill="#A6282A"/>
<path d="M38.1576 74.6259C40.4326 72.345 44.1307 72.345 46.4057 74.6259L59.7816 88.0015L73.1576 74.6259C75.4326 72.345 79.1307 72.345 81.4057 74.6259C83.6865 76.9009 83.6865 80.599 81.4057 82.874L68.03 96.2499L81.4057 109.626C83.6865 111.901 83.6865 115.599 81.4057 117.874C79.1307 120.155 75.4326 120.155 73.1576 117.874L59.7816 104.498L46.4057 117.874C44.1307 120.155 40.4326 120.155 38.1576 117.874C35.8767 115.599 35.8767 111.901 38.1576 109.626L51.5332 96.2499L38.1576 82.874C35.8767 80.599 35.8767 76.9009 38.1576 74.6259Z" fill="#A6282A"/>
<path d="M34.9991 0.448608V37.9161H0.284831C0.442331 34.5911 0.68168 31.5635 1.05501 28.8044C2.13418 20.7719 4.39157 14.4019 9.39657 9.39685C14.4016 4.39185 20.7716 2.13446 28.8041 1.0553C30.7349 0.792798 32.7941 0.600275 34.9991 0.448608Z" fill="#A6282A"/>
</svg>
