<svg width="22" height="22" viewBox="0 0 22 22" fill="none" xmlns="http://www.w3.org/2000/svg">
<path d="M18.918 0.213144C18.2596 -0.0710479 17.5132 -0.0710479 16.8549 0.213144C16.5903 0.327368 16.3679 0.492276 16.1528 0.680874C15.9467 0.861603 15.7117 1.09656 15.4325 1.37577L10.2935 6.51478C9.15251 7.65538 8.4468 8.36086 8.02405 9.25447C7.60131 10.1481 7.48955 11.2826 7.3314 12.8881L7.25363 13.6764C7.23157 13.8999 7.31085 14.1215 7.46967 14.2803C7.62849 14.4391 7.85013 14.5184 8.07365 14.4964L8.86188 14.4186C10.4674 14.2605 11.6019 14.1487 12.4955 13.726C13.3891 13.3032 14.0946 12.5975 15.2352 11.4565L20.3743 6.31743C20.6534 6.03828 20.8884 5.8033 21.0691 5.59718C21.2577 5.38207 21.4226 5.15974 21.5369 4.89513C21.8211 4.23678 21.8211 3.49036 21.5369 2.83201C21.4226 2.5674 21.2577 2.34507 21.0691 2.12996C20.8884 1.92384 20.6535 1.68892 20.3743 1.40977L20.3403 1.37574C20.0611 1.09654 19.8262 0.861596 19.62 0.680874C19.4049 0.492277 19.1826 0.327368 18.918 0.213144Z" fill="url(#paint0_linear_2442_2386)"/>
<path d="M2.75 12.75C1.23122 12.75 0 13.9812 0 15.5C0 17.0188 1.23122 18.25 2.75 18.25H12.25C12.6642 18.25 13 18.5858 13 19C13 19.4142 12.6642 19.75 12.25 19.75H10C9.44771 19.75 9 20.1977 9 20.75C9 21.3023 9.44771 21.75 10 21.75H12.25C13.7688 21.75 15 20.5188 15 19C15 17.4812 13.7688 16.25 12.25 16.25H2.75C2.33579 16.25 2 15.9142 2 15.5C2 15.0858 2.33579 14.75 2.75 14.75H5C5.55228 14.75 6 14.3023 6 13.75C6 13.1977 5.55228 12.75 5 12.75H2.75Z" fill="url(#paint1_linear_2442_2386)"/>
<defs>
<linearGradient id="paint0_linear_2442_2386" x1="21.75" y1="10.1604" x2="-0.00150269" y2="10.1837" gradientUnits="userSpaceOnUse">
<stop stop-color="#15C472"/>
<stop offset="1" stop-color="#0A717E"/>
</linearGradient>
<linearGradient id="paint1_linear_2442_2386" x1="21.75" y1="10.1604" x2="-0.00150269" y2="10.1837" gradientUnits="userSpaceOnUse">
<stop stop-color="#15C472"/>
<stop offset="1" stop-color="#0A717E"/>
</linearGradient>
</defs>
</svg>
