<svg width="15" height="13" viewBox="0 0 15 13" fill="none" xmlns="http://www.w3.org/2000/svg">
<path fill-rule="evenodd" clip-rule="evenodd" d="M9.11335 0.0245369C7.81132 -0.00817744 6.52202 -0.00817906 5.21999 0.0245326L5.18122 0.0255063C4.16466 0.0510302 3.34668 0.0715683 2.69113 0.185735C2.0048 0.305262 1.44699 0.534514 0.975745 1.00755C0.506476 1.4786 0.278426 2.0284 0.161173 2.7036C0.0495263 3.34652 0.0325222 4.14454 0.0114579 5.1331L0.0106233 5.17226C-0.00354139 5.83649 -0.00354111 6.49684 0.0106242 7.16108L0.0114589 7.20023C0.0325239 8.1888 0.0495288 8.98682 0.161175 9.62973C0.27843 10.3049 0.50648 10.8547 0.975747 11.3258C1.44699 11.7988 2.0048 12.0281 2.69113 12.1476C3.34667 12.2618 4.16465 12.2823 5.18118 12.3078L5.21999 12.3088C6.52202 12.3415 7.81132 12.3415 9.11334 12.3088L9.15216 12.3078C10.1687 12.2823 10.9867 12.2618 11.6422 12.1476C12.3285 12.0281 12.8863 11.7988 13.3576 11.3258C13.8269 10.8547 14.0549 10.3049 14.1722 9.62973C14.2838 8.98682 14.3008 8.18879 14.3219 7.20023L14.3227 7.16107C14.3369 6.49685 14.3369 5.8365 14.3227 5.17227L14.3219 5.13312C14.3008 4.14455 14.2838 3.34653 14.1722 2.70361C14.0549 2.02841 13.8269 1.47861 13.3576 1.00756C12.8863 0.534525 12.3285 0.305272 11.6422 0.185744C10.9867 0.0715767 10.1687 0.0510368 9.15212 0.0255107L9.11335 0.0245369ZM5.24511 1.02422C6.53039 0.991926 7.80294 0.991928 9.08823 1.02422C10.1527 1.05097 10.8965 1.07092 11.4706 1.17092C12.0223 1.26699 12.3663 1.4294 12.6491 1.71332C12.7651 1.82973 12.8604 1.95503 12.9388 2.09886L8.97823 4.34296C8.14137 4.81713 7.63353 5 7.16673 5C6.69993 5 6.1921 4.81713 5.35524 4.34296L1.39454 2.0988C1.473 1.95499 1.56824 1.8297 1.68419 1.71331C1.96704 1.42939 2.31102 1.26698 2.8627 1.17091C3.43686 1.07091 4.18066 1.05096 5.24511 1.02422ZM1.11401 3.08922C1.04503 3.6171 1.02979 4.28431 1.0104 5.19358C0.996534 5.8436 0.996535 6.48974 1.0104 7.13975C1.03251 8.17677 1.04923 8.89894 1.14643 9.45864C1.23949 9.99451 1.39938 10.3341 1.6842 10.62C1.96704 10.9039 2.31102 11.0663 2.86271 11.1624C3.43686 11.2624 4.18067 11.2824 5.24511 11.3091C6.5304 11.3414 7.80294 11.3414 9.08823 11.3091C10.1527 11.2824 10.8965 11.2624 11.4706 11.1624C12.0223 11.0664 12.3663 10.9039 12.6491 10.62C12.934 10.3341 13.0938 9.99451 13.1869 9.45864C13.2841 8.89894 13.3008 8.17677 13.3229 7.13975C13.3368 6.48974 13.3368 5.84361 13.3229 5.19359C13.3035 4.28436 13.2883 3.61716 13.2193 3.08929L9.47121 5.21301C8.60902 5.70153 7.90839 6 7.16673 6C6.42507 6 5.72445 5.70153 4.86226 5.21301L1.11401 3.08922Z" fill="url(#paint0_linear_2099_17175)"/>
<defs>
<linearGradient id="paint0_linear_2099_17175" x1="14.3333" y1="5.76147" x2="-0.000984535" y2="5.77927" gradientUnits="userSpaceOnUse">
<stop stop-color="#15C472"/>
<stop offset="1" stop-color="#0A717E"/>
</linearGradient>
</defs>
</svg>
