<svg width="24" height="24" viewBox="0 0 24 24" fill="none" xmlns="http://www.w3.org/2000/svg">
<g clip-path="url(#clip0_380_17846)">
<path d="M23.3922 9.1575V18.75C23.3922 21.045 22.2782 21.705 22.2782 24H12.2528C12.2528 23.0625 12.3382 22.2375 11.603 21.3038L10.7676 20.25V5.625H19.6791L21.5356 6.375C22.0844 6.59919 22.5543 6.98384 22.8851 7.47961C23.2159 7.97539 23.3925 8.55967 23.3922 9.1575Z" fill="#FFAC00"/>
<path d="M20.4217 5.925V17.25C20.4217 18.2446 20.0305 19.1984 19.3341 19.9017C18.6378 20.6049 17.6933 21 16.7086 21H11.3617L10.7676 20.25V5.625H19.6791L20.4217 5.925Z" fill="#EA9706"/>
<path d="M19.6793 3V17.25C19.6793 18.0456 19.3663 18.8087 18.8092 19.3713C18.2522 19.9339 17.4966 20.25 16.7088 20.25H10.0252C9.23736 20.25 8.4818 19.9339 7.92472 19.3713C7.36765 18.8087 7.05469 18.0456 7.05469 17.25V3C7.05469 2.20435 7.36765 1.44129 7.92472 0.87868C8.4818 0.316071 9.23736 0 10.0252 0L16.7088 0C17.4966 0 18.2522 0.316071 18.8092 0.87868C19.3663 1.44129 19.6793 2.20435 19.6793 3Z" fill="#50D9D7"/>
<path d="M18.5657 2.625V17.25C18.5655 17.5291 18.4883 17.8026 18.3427 18.0397C18.1971 18.2769 17.9888 18.4683 17.7414 18.5925C17.2995 18.8175 17.6485 18.75 9.65419 18.75C9.26028 18.75 8.8825 18.592 8.60396 18.3107C8.32543 18.0294 8.16895 17.6478 8.16895 17.25V2.625C8.16895 2.22718 8.32543 1.84564 8.60396 1.56434C8.8825 1.28304 9.26028 1.125 9.65419 1.125H10.2334C10.3896 1.12486 10.5418 1.17442 10.6684 1.26665C10.7951 1.35888 10.8897 1.48908 10.9389 1.63875L10.9686 1.73625C11.0178 1.88592 11.1125 2.01612 11.2391 2.10835C11.3658 2.20058 11.518 2.25014 11.6741 2.25H15.0605C15.2166 2.25014 15.3688 2.20058 15.4955 2.10835C15.6221 2.01612 15.7168 1.88592 15.766 1.73625L15.7957 1.63875C15.8449 1.48908 15.9395 1.35888 16.0662 1.26665C16.1928 1.17442 16.345 1.12486 16.5012 1.125H17.0804C17.4743 1.125 17.8521 1.28304 18.1306 1.56434C18.4092 1.84564 18.5657 2.22718 18.5657 2.625Z" fill="white"/>
<path d="M21.9067 13.5005V19.5005H21.7173C20.6915 19.5003 19.6917 19.1743 18.8594 18.5686C18.0271 17.963 17.4045 17.1083 17.0797 16.1255L16.0548 15.683C15.5871 15.4804 15.1886 15.1435 14.9087 14.7142C14.6289 14.2849 14.48 13.782 14.4805 13.268C14.4825 13.1583 14.5076 13.0502 14.5542 12.9511C14.6008 12.8519 14.6678 12.7639 14.7507 12.6929C14.8336 12.622 14.9306 12.5697 15.0351 12.5395C15.1396 12.5093 15.2492 12.502 15.3568 12.518L21.9067 13.5005Z" fill="#FFAC00"/>
<path d="M22.2789 13.1807C22.2716 13.2295 22.2549 13.2763 22.2297 13.3186C22.2045 13.3608 22.1713 13.3976 22.1319 13.4269C22.0926 13.4562 22.048 13.4773 22.0005 13.4891C21.9531 13.5009 21.9039 13.5032 21.8556 13.4957L19.6797 13.1582V12.4082L21.9633 12.7645C22.0593 12.7784 22.1461 12.8298 22.2051 12.9076C22.264 12.9854 22.2905 13.0834 22.2789 13.1807Z" fill="#EA9706"/>
<path d="M7.05469 4.5H8.16862V15.75H7.05469V4.5Z" fill="#00BEBD"/>
<path d="M13.7386 6V14.25C13.7386 14.6478 13.5821 15.0294 13.3036 15.3107C13.0251 15.592 12.6473 15.75 12.2534 15.75H8.16895V4.5H12.2534C12.6473 4.5 13.0251 4.65804 13.3036 4.93934C13.5821 5.22064 13.7386 5.60218 13.7386 6Z" fill="#F3F3F3"/>
<path d="M12.2531 5.25H1.11372C0.703577 5.25 0.371094 5.58579 0.371094 6V14.25C0.371094 14.6642 0.703577 15 1.11372 15H12.2531C12.6632 15 12.9957 14.6642 12.9957 14.25V6C12.9957 5.58579 12.6632 5.25 12.2531 5.25Z" fill="#50D9D7"/>
<path d="M0.371094 6.75H12.9957V8.625H0.371094V6.75Z" fill="#00BEBD"/>
<path d="M2.9706 13.875C3.79088 13.875 4.45584 13.2034 4.45584 12.375C4.45584 11.5466 3.79088 10.875 2.9706 10.875C2.15032 10.875 1.48535 11.5466 1.48535 12.375C1.48535 13.2034 2.15032 13.875 2.9706 13.875Z" fill="white"/>
<path d="M5.19814 13.875C6.01842 13.875 6.68338 13.2034 6.68338 12.375C6.68338 11.5466 6.01842 10.875 5.19814 10.875C4.37786 10.875 3.71289 11.5466 3.71289 12.375C3.71289 13.2034 4.37786 13.875 5.19814 13.875Z" fill="#FFAC00"/>
<path d="M17.4514 3.375C17.6565 3.375 17.8227 3.20711 17.8227 3C17.8227 2.79289 17.6565 2.625 17.4514 2.625C17.2463 2.625 17.0801 2.79289 17.0801 3C17.0801 3.20711 17.2463 3.375 17.4514 3.375Z" fill="#D9D9D9"/>
<path d="M15.966 3.375C16.1711 3.375 16.3373 3.20711 16.3373 3C16.3373 2.79289 16.1711 2.625 15.966 2.625C15.761 2.625 15.5947 2.79289 15.5947 3C15.5947 3.20711 15.761 3.375 15.966 3.375Z" fill="#D9D9D9"/>
<path d="M8.91113 16.5H12.6242V17.25H8.91113V16.5Z" fill="#D9D9D9"/>
<path d="M17.8223 6.375H14.4805V5.625H17.8223V6.375Z" fill="#D9D9D9"/>
<path d="M17.8223 7.875H14.4805V7.125H17.8223V7.875Z" fill="#D9D9D9"/>
<path d="M17.8223 9.375H14.4805V8.625H17.8223V9.375Z" fill="#D9D9D9"/>
</g>
<defs>
<clipPath id="clip0_380_17846">
<rect width="23.7639" height="24" fill="white"/>
</clipPath>
</defs>
</svg>
