<svg width="18" height="19" viewBox="0 0 18 19" fill="none" xmlns="http://www.w3.org/2000/svg">
<path d="M4.58333 4.375C4.58333 1.95875 6.54209 0 8.95833 0C11.3746 0 13.3333 1.95875 13.3333 4.375C13.3333 6.79125 11.3746 8.75 8.95833 8.75C6.54209 8.75 4.58333 6.79125 4.58333 4.375Z" fill="url(#paint0_linear_2287_2119)"/>
<path d="M14.7917 11.4583C14.2674 11.4583 13.9583 11.8356 13.9583 12.1635C13.9583 12.6237 13.5852 12.9968 13.125 12.9968C12.6648 12.9968 12.2917 12.6237 12.2917 12.1635C12.2917 10.792 13.475 9.79167 14.7917 9.79167C16.1083 9.79167 17.2917 10.792 17.2917 12.1635C17.2917 12.6497 17.1369 13.0999 16.8779 13.4714C16.7251 13.6906 16.5485 13.897 16.3931 14.0752L16.3076 14.1731C16.179 14.3201 16.0656 14.4496 15.9606 14.5828C15.6951 14.9197 15.625 15.1117 15.625 15.2404V15.625C15.625 16.0852 15.2519 16.4583 14.7917 16.4583C14.3314 16.4583 13.9583 16.0852 13.9583 15.625V15.2404C13.9583 14.5194 14.3405 13.9459 14.6517 13.5511C14.7859 13.3808 14.9332 13.2127 15.0624 13.0651L15.1368 12.9801C15.2911 12.8031 15.4144 12.6563 15.5106 12.5183C15.5859 12.4103 15.625 12.2898 15.625 12.1635C15.625 11.8356 15.316 11.4583 14.7917 11.4583Z" fill="url(#paint1_linear_2287_2119)"/>
<path d="M13.9502 18.125C13.9502 17.6648 14.3233 17.2917 14.7835 17.2917H14.791C15.2513 17.2917 15.6244 17.6648 15.6244 18.125C15.6244 18.5852 15.2513 18.9583 14.791 18.9583H14.7835C14.3233 18.9583 13.9502 18.5852 13.9502 18.125Z" fill="url(#paint2_linear_2287_2119)"/>
<path d="M6.78786 10.0938C7.67441 9.96874 8.57588 9.96874 9.46243 10.0938C9.94032 10.1612 10.4141 10.2649 10.8789 10.4051C11.1124 10.4756 11.2292 10.5108 11.2781 10.6028C11.3269 10.6948 11.2848 10.8302 11.2006 11.1009C11.0978 11.431 11.0417 11.7865 11.0417 12.1635C11.0417 13.0169 11.5548 13.7504 12.2893 14.0724C12.5682 14.1947 12.7077 14.2558 12.7487 14.3284C12.7897 14.4009 12.7717 14.5389 12.7359 14.8149C12.7181 14.9517 12.7083 15.0936 12.7083 15.2404V15.625C12.7083 15.9572 12.7861 16.2713 12.9244 16.55C13.0106 16.7236 13.0536 16.8103 13.0534 16.8694C13.0533 16.9284 13.0096 17.0149 12.9224 17.1879C12.8749 17.2821 12.8343 17.3804 12.8013 17.4821C12.7417 17.666 12.7119 17.7579 12.6562 17.8042C12.6005 17.8505 12.5268 17.8601 12.3793 17.8793C12.1917 17.9038 11.9985 17.9167 11.7994 17.9167H4.45087C2.93561 17.9167 1.76413 17.1714 0.78792 16.2413C0.222071 15.7022 -0.0599819 15.0955 0.0106903 14.449C0.077145 13.841 0.44269 13.3448 0.827413 12.9682C1.44255 12.3661 2.34048 11.8595 2.93449 11.5244C3.06996 11.448 3.18982 11.3803 3.2867 11.3226C4.37407 10.6752 5.56746 10.2659 6.78786 10.0938Z" fill="url(#paint3_linear_2287_2119)"/>
<defs>
<linearGradient id="paint0_linear_2287_2119" x1="17.2917" y1="8.8563" x2="-0.00119798" y2="8.87316" gradientUnits="userSpaceOnUse">
<stop stop-color="#15C472"/>
<stop offset="1" stop-color="#0A717E"/>
</linearGradient>
<linearGradient id="paint1_linear_2287_2119" x1="17.2917" y1="8.8563" x2="-0.00119798" y2="8.87316" gradientUnits="userSpaceOnUse">
<stop stop-color="#15C472"/>
<stop offset="1" stop-color="#0A717E"/>
</linearGradient>
<linearGradient id="paint2_linear_2287_2119" x1="17.2917" y1="8.8563" x2="-0.00119798" y2="8.87316" gradientUnits="userSpaceOnUse">
<stop stop-color="#15C472"/>
<stop offset="1" stop-color="#0A717E"/>
</linearGradient>
<linearGradient id="paint3_linear_2287_2119" x1="17.2917" y1="8.8563" x2="-0.00119798" y2="8.87316" gradientUnits="userSpaceOnUse">
<stop stop-color="#15C472"/>
<stop offset="1" stop-color="#0A717E"/>
</linearGradient>
</defs>
</svg>
