<svg width="12" height="16" viewBox="0 0 12 16" fill="none" xmlns="http://www.w3.org/2000/svg">
<path fill-rule="evenodd" clip-rule="evenodd" d="M0 14.3613C0 13.8948 0.378205 13.5166 0.844744 13.5166L10.9817 13.5166C11.4482 13.5166 11.8264 13.8948 11.8264 14.3613C11.8264 14.8279 11.4482 15.2061 10.9817 15.2061L0.844744 15.2061C0.378205 15.2061 0 14.8279 0 14.3613Z" fill="url(#paint0_linear_2099_4570)"/>
<path opacity="0.4" d="M5.06878 0.845363C5.06878 0.378823 5.44698 0.000617835 5.91352 0.000617815C6.38006 0.000617794 6.75827 0.378823 6.75827 0.845362L6.75827 6.75868L7.67637 6.75868L7.67638 6.75868C7.99683 6.75856 8.32907 6.75843 8.5924 6.79897C8.87398 6.84233 9.36348 6.97436 9.60471 7.48851C9.84343 7.99731 9.64014 8.45237 9.49208 8.69943C9.35657 8.92555 9.14651 9.17674 8.94612 9.41636L8.91291 9.45609C8.50836 9.94024 8.02383 10.4874 7.56288 10.9202C7.33374 11.1353 7.0903 11.3413 6.85022 11.4988C6.64259 11.635 6.30354 11.8272 5.91318 11.8271C5.52283 11.8271 5.18379 11.635 4.97615 11.4988C4.73607 11.3413 4.49263 11.1353 4.2635 10.9202C3.80254 10.4874 3.318 9.94027 2.91345 9.45612L2.88024 9.4164C2.67984 9.17677 2.46978 8.92559 2.33426 8.69946C2.18619 8.45241 1.9829 7.99735 2.22161 7.48854C2.46284 6.97439 2.95234 6.84235 3.23392 6.79899C3.49725 6.75845 3.82951 6.75857 4.14995 6.75869L4.14996 6.75869L5.06878 6.75869L5.06878 0.845363Z" fill="url(#paint1_linear_2099_4570)"/>
<defs>
<linearGradient id="paint0_linear_2099_4570" x1="11.8264" y1="14.3058" x2="-0.000168637" y2="14.3943" gradientUnits="userSpaceOnUse">
<stop stop-color="#15C472"/>
<stop offset="1" stop-color="#0A717E"/>
</linearGradient>
<linearGradient id="paint1_linear_2099_4570" x1="5.66338" y1="0.00061797" x2="5.68305" y2="11.8279" gradientUnits="userSpaceOnUse">
<stop stop-color="#15C472"/>
<stop offset="1" stop-color="#0A717E"/>
</linearGradient>
</defs>
</svg>
