<svg width="17" height="17" viewBox="0 0 17 17" fill="none" xmlns="http://www.w3.org/2000/svg">
<path opacity="0.4" fill-rule="evenodd" clip-rule="evenodd" d="M3.32164 1.33391e-06C3.33629 1.98809e-06 3.35098 2.64226e-06 3.36572 2.64226e-06L13.1508 1.33391e-06C13.8018 -2.85569e-05 14.3544 -5.39192e-05 14.7903 0.0593539C15.2518 0.122235 15.6931 0.264178 16.0308 0.635803C16.3716 1.01068 16.4649 1.46246 16.472 1.92428C16.4787 2.35557 16.4097 2.89132 16.3293 3.51597L16.3234 3.56147C16.295 3.78252 16.2523 3.99631 16.1633 4.21037C16.073 4.4277 15.9486 4.61279 15.7937 4.79673C14.9661 5.77935 13.4276 7.55511 11.2616 9.17226C11.2266 9.19842 11.1824 9.26043 11.174 9.35345C10.9642 11.6705 10.7846 12.8742 10.6449 13.6197C10.5001 14.3916 9.9032 14.9298 9.39517 15.2976C9.12823 15.4909 8.84594 15.6644 8.59603 15.8163C8.57337 15.8301 8.55105 15.8436 8.52907 15.857C8.29907 15.9966 8.10643 16.1136 7.94826 16.2254C7.51521 16.5315 6.99896 16.5432 6.58296 16.3159C6.18244 16.097 5.91688 15.6833 5.8608 15.21C5.74477 14.2305 5.52704 12.2475 5.28958 9.34803C5.28196 9.25498 5.2377 9.19233 5.20227 9.16586C3.04071 7.55073 1.50518 5.77805 0.678758 4.79671C0.523848 4.61276 0.399468 4.42766 0.309132 4.21034C0.220159 3.9963 0.177497 3.78251 0.149046 3.56147C0.147088 3.54625 0.145135 3.53108 0.143189 3.51597C0.0627549 2.89132 -0.00623205 2.35557 0.000447979 1.92428C0.00760075 1.46246 0.100878 1.01068 0.441635 0.635802C0.779433 0.264177 1.22068 0.122234 1.68214 0.0593538C2.11812 -5.39192e-05 2.67072 -2.85569e-05 3.32164 1.33391e-06Z" fill="url(#paint0_linear_2099_4564)"/>
<path d="M3.32164 1.33469e-06C2.67072 -2.85736e-05 2.11812 -5.39508e-05 1.68214 0.0593885C1.22068 0.122306 0.779433 0.264332 0.441635 0.636174C0.100879 1.01127 0.00760075 1.46332 0.000447979 1.9254C-0.00623205 2.35695 0.0627549 2.89301 0.143189 3.51802C0.173735 3.75542 0.216834 3.99063 0.309132 4.21281C0.399468 4.43025 0.523848 4.61546 0.678758 4.79951C2.14816 6.54539 3.62674 8.17356 5.42833 9.47979C6.27404 10.0935 7.14039 10.7706 8.23626 10.7705C9.33213 10.7704 10.1984 10.0932 11.044 9.47942C12.8452 8.17312 14.3246 6.54486 15.7937 4.79954C15.9486 4.61549 16.073 4.43029 16.1633 4.21283C16.2523 3.99865 16.295 3.78473 16.3234 3.56355C16.3931 3.02183 16.4805 2.47311 16.472 1.9254C16.4649 1.46332 16.3716 1.01127 16.0308 0.636175C15.6931 0.264332 15.2518 0.122306 14.7903 0.0593886C14.3544 -5.39508e-05 13.8018 -2.85736e-05 13.1508 1.33469e-06H3.32164Z" fill="url(#paint1_linear_2099_4564)"/>
<defs>
<linearGradient id="paint0_linear_2099_4564" x1="16.4725" y1="7.69506" x2="-0.00113807" y2="7.71267" gradientUnits="userSpaceOnUse">
<stop stop-color="#15C472"/>
<stop offset="1" stop-color="#0A717E"/>
</linearGradient>
<linearGradient id="paint1_linear_2099_4564" x1="16.4726" y1="5.03139" x2="-0.00111288" y2="5.05832" gradientUnits="userSpaceOnUse">
<stop stop-color="#15C472"/>
<stop offset="1" stop-color="#0A717E"/>
</linearGradient>
</defs>
</svg>
