<svg width="18" height="18" viewBox="0 0 18 18" fill="none" xmlns="http://www.w3.org/2000/svg">
<path d="M4.8374 1.4375C4.85047 1.4375 4.86608 1.44274 4.88037 1.45703C4.89466 1.47132 4.8999 1.48694 4.8999 1.5V16.5C4.8999 16.5131 4.89466 16.5287 4.88037 16.543C4.86608 16.5573 4.85047 16.5625 4.8374 16.5625C4.82434 16.5625 4.80872 16.5573 4.79443 16.543C4.78014 16.5287 4.7749 16.5131 4.7749 16.5V1.5C4.7749 1.48694 4.78014 1.47132 4.79443 1.45703C4.80872 1.44274 4.82434 1.4375 4.8374 1.4375Z" fill="#FFFBF0" stroke="#FFFBF0"/>
<path d="M5.23291 2.93945L5.23877 2.94141L11.314 5.56641L11.3169 5.56836C12.1882 5.93778 12.6549 6.3548 12.9067 6.70605C13.1573 7.0555 13.2171 7.36971 13.2251 7.57227C13.2515 8.28278 12.7422 9.07002 11.478 9.72168L5.24561 12.8047L5.23682 12.8086L5.23096 12.8115C5.22729 12.8121 5.22117 12.8125 5.2124 12.8125C5.19694 12.8125 5.18647 12.8085 5.18018 12.8047C5.17484 12.8014 5.1676 12.7955 5.16064 12.7812L5.15967 12.7793L5.15283 12.7529C5.15182 12.728 5.16567 12.7059 5.18311 12.6973L5.18604 12.6963L11.4116 9.62109L11.4194 9.61719C11.9108 9.36343 12.3247 9.06935 12.6187 8.74219C12.9107 8.41718 13.1176 8.01927 13.0991 7.57715V7.57617C13.0802 7.14177 12.8427 6.76504 12.5288 6.46582C12.212 6.16384 11.7784 5.90117 11.2671 5.68359H11.2681L5.19287 3.05859C5.17142 3.04877 5.16046 3.03466 5.15479 3.02051C5.14871 3.00527 5.14818 2.98794 5.15576 2.96973C5.16066 2.9581 5.17079 2.94633 5.18799 2.93945C5.20501 2.93272 5.22039 2.93387 5.23291 2.93945Z" fill="#FFFBF0" stroke="#FFFBF0"/>
</svg>
