<svg width="18" height="18" viewBox="0 0 18 18" fill="none" xmlns="http://www.w3.org/2000/svg">
<path d="M16.9304 9.62996C16.7363 9.58916 16.5357 9.59153 16.3426 9.63689C16.1496 9.68225 15.9688 9.7695 15.8132 9.89246C15.7411 9.68951 15.6212 9.50691 15.4636 9.36008C15.3061 9.21325 15.1155 9.10653 14.9079 9.04891C14.7004 8.9913 14.482 8.9845 14.2713 9.02908C14.0606 9.07367 13.8637 9.16833 13.6973 9.30506C13.6673 9.32876 13.6406 9.35336 13.6139 9.37916C13.5214 9.2143 13.3947 9.0711 13.2423 8.95914C13.0899 8.84718 12.9154 8.76905 12.7304 8.72996C12.5541 8.69299 12.3722 8.69145 12.1953 8.72544C12.0184 8.75943 11.85 8.82828 11.6999 8.92796V6.86997C12.4474 6.52857 13.0555 5.94156 13.423 5.20659C13.7905 4.47162 13.8953 3.63299 13.72 2.83016C13.5448 2.02734 13.0999 1.30872 12.4595 0.793825C11.8191 0.278929 11.0217 -0.00120894 10.2 3.92179e-06H3.59998C2.64521 3.92179e-06 1.72954 0.379287 1.05441 1.05441C0.379283 1.72954 0 2.64521 0 3.59999C0 4.55476 0.379283 5.47043 1.05441 6.14556C1.72954 6.82069 2.64521 7.19997 3.59998 7.19997H8.99636L8.99216 10.5867L7.91996 8.76626C7.76913 8.51012 7.53819 8.31075 7.26277 8.19893C6.98736 8.08711 6.68279 8.06905 6.3961 8.14755C6.1094 8.22605 5.85651 8.39674 5.67648 8.63327C5.49645 8.8698 5.39928 9.15901 5.39997 9.45626C5.4011 9.6721 5.45245 9.8847 5.54997 10.0773L8.64746 16.0559C8.94987 16.6427 9.40828 17.1346 9.97225 17.4776C10.5362 17.8205 11.1839 18.0013 11.8439 17.9999H14.3999C15.3544 17.9989 16.2695 17.6193 16.9444 16.9444C17.6193 16.2695 17.9989 15.3544 17.9999 14.3999V10.98C18.0034 10.6664 17.899 10.3612 17.7043 10.1155C17.5097 9.86971 17.2364 9.6983 16.9304 9.62996ZM3.59998 6.59997C2.80434 6.59997 2.04128 6.2839 1.47867 5.7213C0.916066 5.15869 0.599997 4.39563 0.599997 3.59999C0.599997 2.80434 0.916066 2.04128 1.47867 1.47868C2.04128 0.91607 2.80434 0.600001 3.59998 0.600001H10.2C10.8616 0.596679 11.5057 0.812588 12.0316 1.214C12.5576 1.61542 12.9358 2.17973 13.1071 2.8188C13.2785 3.45786 13.2333 4.13568 12.9787 4.74637C12.7242 5.35707 12.2745 5.86625 11.6999 6.19438V4.07999C11.7056 3.82218 11.6373 3.56815 11.5032 3.34794C11.369 3.12772 11.1746 2.95054 10.9429 2.83734C10.7112 2.72415 10.4519 2.67968 10.1958 2.70919C9.93959 2.73871 9.69723 2.84097 9.49736 3.00389C9.34176 3.13019 9.21635 3.28967 9.13029 3.47066C9.04424 3.65165 8.99971 3.84958 8.99996 4.04999L8.99696 6.59997H3.59998ZM17.3999 14.3999C17.399 15.1953 17.0827 15.9579 16.5203 16.5203C15.9579 17.0827 15.1953 17.399 14.3999 17.3999H11.8439C11.2938 17.4012 10.754 17.2506 10.284 16.9648C9.81397 16.6789 9.43194 16.2689 9.17996 15.7799L6.08517 9.80456C6.0302 9.69651 6.00103 9.57718 5.99997 9.45596C5.99926 9.29027 6.05317 9.12897 6.15337 8.99701C6.25356 8.86505 6.39445 8.76978 6.55424 8.72596C6.71403 8.68214 6.8838 8.69219 7.0373 8.75458C7.19079 8.81696 7.31945 8.92819 7.40336 9.07106L9.03236 11.8373C9.06573 11.8941 9.11685 11.9383 9.17782 11.9631C9.2388 11.988 9.30625 11.992 9.36977 11.9747C9.4333 11.9574 9.48937 11.9197 9.52934 11.8674C9.56931 11.8151 9.59096 11.7511 9.59095 11.6852L9.59995 4.04999C9.60022 3.93795 9.62552 3.82739 9.67399 3.72638C9.72246 3.62537 9.79289 3.53647 9.88013 3.46617C9.96736 3.39587 10.0692 3.34595 10.1782 3.32005C10.2872 3.29415 10.4006 3.29294 10.5101 3.31649C10.6811 3.35688 10.8329 3.45476 10.9403 3.59375C11.0477 3.73274 11.104 3.9044 11.0999 4.07999V10.05C11.0999 10.1295 11.1316 10.2058 11.1878 10.2621C11.2441 10.3183 11.3204 10.35 11.3999 10.35C11.4795 10.35 11.5558 10.3183 11.6121 10.2621C11.6683 10.2058 11.6999 10.1295 11.6999 10.05C11.7002 9.93792 11.7255 9.82736 11.774 9.72635C11.8225 9.62534 11.8929 9.53644 11.9801 9.46614C12.0674 9.39584 12.1692 9.34592 12.2782 9.32002C12.3872 9.29413 12.5006 9.29291 12.6101 9.31646C12.7811 9.35685 12.9329 9.45473 13.0403 9.59372C13.1477 9.73271 13.204 9.90437 13.1999 10.08V10.35C13.1999 10.4295 13.2315 10.5058 13.2878 10.5621C13.3441 10.6183 13.4204 10.65 13.4999 10.65C13.5795 10.65 13.6558 10.6183 13.7121 10.5621C13.7683 10.5058 13.7999 10.4295 13.7999 10.35C13.8002 10.2379 13.8255 10.1274 13.874 10.0264C13.9224 9.92534 13.9929 9.83644 14.0801 9.76614C14.1673 9.69584 14.2692 9.64592 14.3782 9.62002C14.4872 9.59412 14.6006 9.59291 14.7101 9.61646C14.8811 9.65685 15.0329 9.75473 15.1403 9.89372C15.2477 10.0327 15.304 10.2044 15.2999 10.38V10.95C15.2999 11.0295 15.3315 11.1058 15.3878 11.1621C15.4441 11.2183 15.5204 11.25 15.5999 11.25C15.6795 11.25 15.7558 11.2183 15.8121 11.1621C15.8683 11.1058 15.8999 11.0295 15.8999 10.95C15.9002 10.8379 15.9255 10.7274 15.974 10.6263C16.0224 10.5253 16.0929 10.4364 16.1801 10.3661C16.2673 10.2958 16.3692 10.2459 16.4782 10.22C16.5872 10.1941 16.7006 10.1929 16.8101 10.2165C16.981 10.2568 17.1329 10.3547 17.2403 10.4937C17.3476 10.6327 17.404 10.8044 17.3999 10.98V14.3999Z" fill="#FFFBF0"/>
<path d="M7.86011 2.21961L6.26772 4.343L5.91222 3.9875C5.85564 3.93285 5.77986 3.90262 5.7012 3.9033C5.62254 3.90398 5.5473 3.93553 5.49168 3.99116C5.43605 4.04678 5.4045 4.12202 5.40382 4.20068C5.40314 4.27934 5.43337 4.35512 5.48802 4.4117L6.08802 5.0117C6.14427 5.06796 6.22056 5.09958 6.30012 5.0996H6.32142C6.36435 5.09645 6.4061 5.08411 6.44383 5.06341C6.48157 5.0427 6.51441 5.01412 6.54012 4.9796L8.34011 2.57961C8.38785 2.51596 8.40835 2.43595 8.39709 2.35718C8.38584 2.27842 8.34376 2.20735 8.28011 2.15961C8.21646 2.11187 8.13645 2.09137 8.05768 2.10263C7.97892 2.11388 7.90785 2.15596 7.86011 2.21961Z" fill="#FFFBF0"/>
</svg>
