<svg width="15" height="18" viewBox="0 0 15 18" fill="none" xmlns="http://www.w3.org/2000/svg">
<path d="M2.6414 9.53258C2.6414 9.98271 2.6414 10.2078 2.5146 10.2796C2.49837 10.2888 2.48117 10.2961 2.46332 10.3015C2.32375 10.3434 2.16119 10.1877 1.83608 9.87642C1.35013 9.33965 0.955429 8.90365 0.668657 8.51807C0.370848 8.11765 0.154539 7.72725 0.0617179 7.2704C0.00850297 7.00849 -0.0104257 6.7409 0.0054224 6.47417C0.033077 6.00874 0.192535 5.59227 0.43134 5.15489C0.661199 4.73391 0.99083 4.24842 1.39648 3.65098L1.92694 2.86967C2.41685 2.14796 2.7177 1.70474 3.09209 1.34829C3.74609 0.725608 4.56353 0.296499 5.45114 0.108183C5.95895 0.000443598 6.72084 0.000486513 7.60566 0.000570754C9.17752 0.000324388 10.1312 0.000174979 10.919 0.273899C12.3017 0.754365 13.3942 1.82426 13.8866 3.19035C14.1671 3.96884 14.167 4.91074 14.1667 6.44902L14.1667 8.12559C14.1667 8.34683 14.1503 8.88942 14.1421 9.13306C14.1421 9.96858 13.4467 10.7838 12.5017 11.0013C12.2968 11.0484 12.1944 11.072 12.1001 10.9969C12.0058 10.9219 12.0058 10.8004 12.0058 10.5575V9.01031C12.0058 8.81644 11.8446 8.65928 11.6456 8.65928C11.4467 8.65928 11.2855 8.81644 11.2855 9.01031V11.0403C11.2855 11.1314 11.2855 11.1769 11.2672 11.222C11.2489 11.2671 11.2216 11.2953 11.167 11.3517C10.8186 11.7115 10.3173 11.9717 9.62354 12.0552C9.40299 12.0818 9.29271 12.0951 9.20858 12.0205C9.12445 11.9459 9.12445 11.8252 9.12445 11.5839V9.94639C9.12445 9.75252 8.9632 9.59536 8.76428 9.59536C8.56537 9.59536 8.40411 9.75252 8.40411 9.94639V12.1093C8.40411 12.2225 8.40411 12.2791 8.37718 12.3323C8.35024 12.3856 8.31046 12.4148 8.2309 12.4733C7.85121 12.7524 7.38236 12.9173 6.875 12.9173C6.80633 12.9169 6.68253 12.9087 6.54971 12.8844C6.42262 12.8612 6.35908 12.8496 6.30109 12.78C6.2431 12.7105 6.2431 12.6314 6.2431 12.4733V9.94639C6.2431 9.75252 6.08184 9.59536 5.88293 9.59536C5.68401 9.59536 5.52276 9.75252 5.52276 9.94639V16.0035C5.52276 16.6002 5.039 17.084 4.44225 17.084C3.8455 17.084 3.36174 16.6002 3.36174 16.0035V6.67013C3.36174 6.47626 3.20049 6.3191 3.00157 6.3191C2.80265 6.3191 2.6414 6.47626 2.6414 6.67013V9.53258Z" fill="url(#paint0_linear_2287_2051)"/>
<defs>
<linearGradient id="paint0_linear_2287_2051" x1="14.1667" y1="9.10353" x2="-0.000983818" y2="9.09098" gradientUnits="userSpaceOnUse">
<stop stop-color="#15C472"/>
<stop offset="1" stop-color="#0A717E"/>
</linearGradient>
</defs>
</svg>
