<svg width="16" height="18" viewBox="0 0 16 18" fill="none" xmlns="http://www.w3.org/2000/svg">
<g clip-path="url(#clip0_1977_10608)">
<path d="M9.95768 15.9462C9.67217 16.5834 9.48344 17.275 9.41113 18.0002L15.4532 16.7073C15.7387 16.0702 15.9273 15.3785 15.9997 14.6533L9.95768 15.9462Z" fill="url(#paint0_linear_1977_10608)"/>
<path d="M15.4533 12.8339C15.7388 12.1968 15.9276 11.5051 15.9999 10.7799L11.2933 11.7875V9.85051L15.4532 8.96067C15.7387 8.32356 15.9274 7.63187 15.9997 6.90664L11.2932 7.91339V0.947429C10.572 1.35503 9.9315 1.89758 9.41085 2.53756V8.31625L7.52854 8.71898V0C6.80735 0.407453 6.16687 0.950151 5.64623 1.59013V9.12156L1.43454 10.0224C1.14903 10.6595 0.960158 11.3512 0.887712 12.0765L5.64623 11.0585V13.4978L0.546547 14.5887C0.261033 15.2258 0.0723036 15.9175 0 16.6427L5.33794 15.5008C5.77247 15.4099 6.14595 15.1513 6.38876 14.7954L7.36771 13.3345V13.3342C7.46933 13.1831 7.52854 13.0008 7.52854 12.8045V10.6558L9.41085 10.2531V14.127L15.4532 12.8336L15.4533 12.8339Z" fill="url(#paint1_linear_1977_10608)"/>
</g>
<defs>
<linearGradient id="paint0_linear_1977_10608" x1="15.9997" y1="16.2168" x2="9.4107" y2="16.2307" gradientUnits="userSpaceOnUse">
<stop stop-color="#15C472"/>
<stop offset="1" stop-color="#0A717E"/>
</linearGradient>
<linearGradient id="paint1_linear_1977_10608" x1="15.9999" y1="7.77456" x2="-0.0011068" y2="7.791" gradientUnits="userSpaceOnUse">
<stop stop-color="#15C472"/>
<stop offset="1" stop-color="#0A717E"/>
</linearGradient>
<clipPath id="clip0_1977_10608">
<rect width="16" height="18" fill="white"/>
</clipPath>
</defs>
</svg>
