<svg width="12" height="13" viewBox="0 0 12 13" fill="none" xmlns="http://www.w3.org/2000/svg">
<path d="M6.91207 10.996C6.7139 11.4354 6.5829 11.9123 6.53271 12.4124L10.7265 11.5209C10.9247 11.0815 11.0556 10.6046 11.1059 10.1045L6.91207 10.996Z" fill="url(#paint0_linear_1866_3768)"/>
<path d="M10.7262 8.84972C10.9243 8.41039 11.0553 7.93343 11.1055 7.43335L7.83869 8.12814V6.79249L10.7261 6.1789C10.9242 5.73957 11.0552 5.26261 11.1054 4.76253L7.83859 5.45673V0.653306C7.33801 0.934367 6.89345 1.30849 6.53207 1.74979V5.73453L5.22556 6.01223V0C4.72499 0.280962 4.28043 0.655183 3.91905 1.09648V6.28984L0.995717 6.91104C0.797541 7.35036 0.666445 7.82733 0.616161 8.32741L3.91905 7.62549V9.30751L0.379358 10.0597C0.181183 10.499 0.0501859 10.976 0 11.4761L3.70507 10.6887C4.00667 10.626 4.2659 10.4477 4.43444 10.2023L5.11393 9.19489V9.19469C5.18446 9.09047 5.22556 8.96481 5.22556 8.82946V7.34779L6.53207 7.07009V9.7414L10.7261 8.84952L10.7262 8.84972Z" fill="url(#paint1_linear_1866_3768)"/>
<defs>
<linearGradient id="paint0_linear_1866_3768" x1="11.1059" y1="11.1826" x2="6.53241" y2="11.1923" gradientUnits="userSpaceOnUse">
<stop stop-color="#15C472"/>
<stop offset="1" stop-color="#0A717E"/>
</linearGradient>
<linearGradient id="paint1_linear_1866_3768" x1="11.1055" y1="5.361" x2="-0.000768075" y2="5.37249" gradientUnits="userSpaceOnUse">
<stop stop-color="#15C472"/>
<stop offset="1" stop-color="#0A717E"/>
</linearGradient>
</defs>
</svg>
