<svg width="18" height="17" viewBox="0 0 18 17" fill="none" xmlns="http://www.w3.org/2000/svg">
<path d="M6.45833 0C4.27221 0 2.5 1.77221 2.5 3.95833C2.5 6.14446 4.27221 7.91667 6.45833 7.91667C8.64446 7.91667 10.4167 6.14446 10.4167 3.95833C10.4167 1.77221 8.64446 0 6.45833 0Z" fill="url(#paint0_linear_2287_2163)"/>
<path d="M4.79167 9.16667C2.1453 9.16667 0 11.312 0 13.9583C0 15.224 1.02601 16.25 2.29167 16.25H10.625C11.8907 16.25 12.9167 15.224 12.9167 13.9583C12.9167 11.312 10.7714 9.16667 8.125 9.16667H4.79167Z" fill="url(#paint1_linear_2287_2163)"/>
<path d="M10.1034 7.67866C10.5261 7.83266 10.9824 7.91667 11.4584 7.91667C13.6445 7.91667 15.4167 6.14446 15.4167 3.95833C15.4167 1.77221 13.6445 0 11.4584 0C10.9824 0 10.5261 0.084007 10.1034 0.238003C11.0681 1.18333 11.6667 2.50093 11.6667 3.95833C11.6667 5.41574 11.0681 6.73333 10.1034 7.67866Z" fill="url(#paint2_linear_2287_2163)"/>
<path d="M15.6246 16.25H13.325C13.8497 15.6323 14.1663 14.8323 14.1663 13.9583C14.1663 12.0067 13.2409 10.2712 11.805 9.16667H13.1246C15.771 9.16667 17.9163 11.312 17.9163 13.9583C17.9163 15.224 16.8903 16.25 15.6246 16.25Z" fill="url(#paint3_linear_2287_2163)"/>
<defs>
<linearGradient id="paint0_linear_2287_2163" x1="17.9163" y1="7.59112" x2="-0.00123341" y2="7.61223" gradientUnits="userSpaceOnUse">
<stop stop-color="#15C472"/>
<stop offset="1" stop-color="#0A717E"/>
</linearGradient>
<linearGradient id="paint1_linear_2287_2163" x1="17.9163" y1="7.59112" x2="-0.00123341" y2="7.61223" gradientUnits="userSpaceOnUse">
<stop stop-color="#15C472"/>
<stop offset="1" stop-color="#0A717E"/>
</linearGradient>
<linearGradient id="paint2_linear_2287_2163" x1="17.9163" y1="7.59112" x2="-0.00123341" y2="7.61223" gradientUnits="userSpaceOnUse">
<stop stop-color="#15C472"/>
<stop offset="1" stop-color="#0A717E"/>
</linearGradient>
<linearGradient id="paint3_linear_2287_2163" x1="17.9163" y1="7.59112" x2="-0.00123341" y2="7.61223" gradientUnits="userSpaceOnUse">
<stop stop-color="#15C472"/>
<stop offset="1" stop-color="#0A717E"/>
</linearGradient>
</defs>
</svg>
