<svg width="18" height="18" viewBox="0 0 18 18" fill="none" xmlns="http://www.w3.org/2000/svg">
<path d="M13.9888 3.2817e-07H13.9279C13.3119 -9.85727e-06 12.8057 -1.84495e-05 12.3961 0.0389247C11.9705 0.0793921 11.5852 0.166279 11.2347 0.381042C10.8868 0.594254 10.5943 0.886785 10.381 1.23472C10.1663 1.58518 10.0794 1.97046 10.0389 2.39608C9.99998 2.80565 9.99999 3.31192 10 3.92787V3.98879C9.99999 4.60474 9.99998 5.11101 10.0389 5.52059C10.0794 5.9462 10.1663 6.33149 10.381 6.68195C10.5943 7.02988 10.8868 7.32241 11.2347 7.53563C11.5852 7.75039 11.9705 7.83728 12.3961 7.87774C12.8057 7.91669 13.3119 7.91668 13.9279 7.91667H13.9888C14.6048 7.91668 15.111 7.91669 15.5206 7.87774C15.9462 7.83728 16.3315 7.75039 16.6819 7.53563C17.0299 7.32241 17.3224 7.02988 17.5356 6.68195C17.7504 6.33149 17.8373 5.9462 17.8777 5.52059C17.9167 5.11101 17.9167 4.60475 17.9167 3.9888V3.92787C17.9167 3.31192 17.9167 2.80565 17.8777 2.39608C17.8373 1.97046 17.7504 1.58518 17.5356 1.23472C17.3224 0.886785 17.0299 0.594254 16.6819 0.381042C16.3315 0.166279 15.9462 0.0793921 15.5206 0.0389247C15.111 -1.83998e-05 14.6047 -9.85727e-06 13.9888 3.2817e-07Z" fill="url(#paint0_linear_2099_4553)"/>
<path d="M3.92788 3.2817e-07H3.98879C4.60474 -9.85734e-06 5.11101 -1.82291e-05 5.52059 0.0389247C5.9462 0.0793921 6.33149 0.166279 6.68195 0.381042C7.02988 0.594254 7.32241 0.886785 7.53563 1.23472C7.75039 1.58518 7.83728 1.97046 7.87774 2.39608C7.91669 2.80565 7.91668 3.3119 7.91667 3.92784V3.9888C7.91668 4.60474 7.91669 5.11102 7.87774 5.52059C7.83728 5.9462 7.75039 6.33149 7.53563 6.68195C7.32241 7.02988 7.02988 7.32241 6.68195 7.53563C6.33149 7.75039 5.9462 7.83728 5.52059 7.87774C5.11102 7.91669 4.60477 7.91668 3.98883 7.91667H3.92787C3.31193 7.91668 2.80565 7.91669 2.39608 7.87774C1.97046 7.83728 1.58518 7.75039 1.23472 7.53563C0.886785 7.32241 0.594254 7.02988 0.381042 6.68195C0.166279 6.33149 0.0793921 5.9462 0.0389247 5.52059C-1.82291e-05 5.11101 -9.85736e-06 4.60475 3.2817e-07 3.9888V3.92788C-9.85734e-06 3.31193 -1.82291e-05 2.80566 0.0389247 2.39608C0.0793921 1.97046 0.166279 1.58518 0.381042 1.23472C0.594254 0.886785 0.886785 0.594254 1.23472 0.381042C1.58518 0.166279 1.97046 0.0793921 2.39608 0.0389247C2.80565 -1.82291e-05 3.31193 -9.85736e-06 3.92788 3.2817e-07Z" fill="url(#paint1_linear_2099_4553)"/>
<path d="M3.98879 10H3.92788C3.31194 9.99999 2.80565 9.99998 2.39608 10.0389C1.97046 10.0794 1.58518 10.1663 1.23472 10.381C0.886785 10.5943 0.594254 10.8868 0.381042 11.2347C0.166279 11.5852 0.0793921 11.9705 0.0389247 12.3961C-1.83998e-05 12.8057 -9.85727e-06 13.3119 3.2817e-07 13.9279V13.9888C-9.85727e-06 14.6047 -1.84495e-05 15.111 0.0389247 15.5206C0.0793921 15.9462 0.166279 16.3315 0.381042 16.6819C0.594254 17.0299 0.886785 17.3224 1.23472 17.5356C1.58518 17.7504 1.97046 17.8373 2.39608 17.8777C2.80565 17.9167 3.31192 17.9167 3.92787 17.9167H3.9888C4.60475 17.9167 5.11101 17.9167 5.52059 17.8777C5.9462 17.8373 6.33149 17.7504 6.68195 17.5356C7.02988 17.3224 7.32241 17.0299 7.53563 16.6819C7.75039 16.3315 7.83728 15.9462 7.87774 15.5206C7.91669 15.111 7.91668 14.6048 7.91667 13.9888V13.9279C7.91668 13.3119 7.91669 12.8057 7.87774 12.3961C7.83728 11.9705 7.75039 11.5852 7.53563 11.2347C7.32241 10.8868 7.02988 10.5943 6.68195 10.381C6.33149 10.1663 5.9462 10.0794 5.52059 10.0389C5.11102 9.99998 4.60473 9.99999 3.98879 10Z" fill="url(#paint2_linear_2099_4553)"/>
<path d="M13.9888 10H13.9279C13.3119 9.99999 12.8057 9.99998 12.3961 10.0389C11.9705 10.0794 11.5852 10.1663 11.2347 10.381C10.8868 10.5943 10.5943 10.8868 10.381 11.2347C10.1663 11.5852 10.0794 11.9705 10.0389 12.3961C9.99998 12.8057 9.99999 13.3119 10 13.9279V13.9888C9.99999 14.6047 9.99998 15.111 10.0389 15.5206C10.0794 15.9462 10.1663 16.3315 10.381 16.6819C10.5943 17.0299 10.8868 17.3224 11.2347 17.5356C11.5852 17.7504 11.9705 17.8373 12.3961 17.8777C12.8057 17.9167 13.3119 17.9167 13.9279 17.9167H13.9888C14.6048 17.9167 15.111 17.9167 15.5206 17.8777C15.9462 17.8373 16.3315 17.7504 16.6819 17.5356C17.0299 17.3224 17.3224 17.0299 17.5356 16.6819C17.7504 16.3315 17.8373 15.9462 17.8777 15.5206C17.9167 15.111 17.9167 14.6048 17.9167 13.9888V13.9279C17.9167 13.3119 17.9167 12.8057 17.8777 12.3961C17.8373 11.9705 17.7504 11.5852 17.5356 11.2347C17.3224 10.8868 17.0299 10.5943 16.6819 10.381C16.3315 10.1663 15.9462 10.0794 15.5206 10.0389C15.111 9.99998 14.6047 9.99999 13.9888 10Z" fill="url(#paint3_linear_2099_4553)"/>
<defs>
<linearGradient id="paint0_linear_2099_4553" x1="17.9167" y1="8.36969" x2="-0.00123784" y2="8.38884" gradientUnits="userSpaceOnUse">
<stop stop-color="#15C472"/>
<stop offset="1" stop-color="#0A717E"/>
</linearGradient>
<linearGradient id="paint1_linear_2099_4553" x1="17.9167" y1="8.36969" x2="-0.00123784" y2="8.38884" gradientUnits="userSpaceOnUse">
<stop stop-color="#15C472"/>
<stop offset="1" stop-color="#0A717E"/>
</linearGradient>
<linearGradient id="paint2_linear_2099_4553" x1="17.9167" y1="8.36969" x2="-0.00123784" y2="8.38884" gradientUnits="userSpaceOnUse">
<stop stop-color="#15C472"/>
<stop offset="1" stop-color="#0A717E"/>
</linearGradient>
<linearGradient id="paint3_linear_2099_4553" x1="17.9167" y1="8.36969" x2="-0.00123784" y2="8.38884" gradientUnits="userSpaceOnUse">
<stop stop-color="#15C472"/>
<stop offset="1" stop-color="#0A717E"/>
</linearGradient>
</defs>
</svg>
