<svg width="14" height="17" viewBox="0 0 14 17" fill="none" xmlns="http://www.w3.org/2000/svg">
<path opacity="0.4" d="M1.38118 3.57431C2.28906 1.3912 4.46223 0 6.7504 0C9.03856 0 11.2117 1.3912 12.1196 3.57431C12.9638 5.60421 12.5059 7.33797 11.558 8.81491C10.7753 10.0344 9.62953 11.1201 8.61043 12.0859L8.61016 12.0861C8.42975 12.2571 8.25332 12.4243 8.08357 12.5878C7.72557 12.9326 7.24748 13.125 6.7504 13.125C6.25331 13.125 5.77525 12.9326 5.41725 12.5878L5.41603 12.5866C5.23649 12.4127 5.04928 12.2346 4.85766 12.0524C3.84934 11.0933 2.71915 10.0184 1.94455 8.81421C0.995464 7.33873 0.53598 5.60672 1.38118 3.57431Z" fill="url(#paint0_linear_1977_10670)"/>
<path d="M6.75 3.5625C5.50736 3.5625 4.5 4.56986 4.5 5.8125C4.5 7.05514 5.50736 8.0625 6.75 8.0625C7.99264 8.0625 9 7.05514 9 5.8125C9 4.56986 7.99264 3.5625 6.75 3.5625Z" fill="url(#paint1_linear_1977_10670)"/>
<path d="M3.1647 13.1067C3.5688 13.0157 3.82265 12.6144 3.73169 12.2103C3.64073 11.8062 3.2394 11.5523 2.8353 11.6433C2.1142 11.8056 1.47069 12.0219 0.988184 12.2979C0.559341 12.5432 0 12.9877 0 13.6902C0 14.3096 0.439834 14.7273 0.806695 14.9709C1.20238 15.2336 1.72547 15.441 2.30461 15.6036C3.47329 15.9318 5.04471 16.125 6.75 16.125C8.45529 16.125 10.0267 15.9318 11.1954 15.6036C11.7745 15.441 12.2976 15.2336 12.6933 14.9709C13.0602 14.7273 13.5 14.3096 13.5 13.6902C13.5 12.9877 12.9407 12.5432 12.5118 12.2979C12.0293 12.0219 11.3858 11.8056 10.6647 11.6433C10.2606 11.5523 9.85927 11.8062 9.76831 12.2103C9.67735 12.6144 9.9312 13.0157 10.3353 13.1067C10.9859 13.2531 11.4674 13.4285 11.767 13.5999C11.8269 13.6342 11.8732 13.6644 11.9088 13.69C11.8953 13.6997 11.8803 13.7101 11.8637 13.7212C11.6521 13.8616 11.2965 14.0172 10.7899 14.1595C9.787 14.4411 8.35842 14.625 6.75 14.625C5.14158 14.625 3.713 14.4411 2.71011 14.1595C2.20346 14.0172 1.84787 13.8616 1.63632 13.7212C1.61968 13.7101 1.60468 13.6997 1.59119 13.69C1.62677 13.6644 1.67309 13.6342 1.73305 13.5999C2.03262 13.4285 2.5141 13.2531 3.1647 13.1067Z" fill="url(#paint2_linear_1977_10670)"/>
<defs>
<linearGradient id="paint0_linear_1977_10670" x1="12.5631" y1="6.13129" x2="0.936694" y2="6.14229" gradientUnits="userSpaceOnUse">
<stop stop-color="#15C472"/>
<stop offset="1" stop-color="#0A717E"/>
</linearGradient>
<linearGradient id="paint1_linear_1977_10670" x1="13.5" y1="9.43102" x2="-0.000930314" y2="9.44653" gradientUnits="userSpaceOnUse">
<stop stop-color="#15C472"/>
<stop offset="1" stop-color="#0A717E"/>
</linearGradient>
<linearGradient id="paint2_linear_1977_10670" x1="13.5" y1="9.43102" x2="-0.000930314" y2="9.44653" gradientUnits="userSpaceOnUse">
<stop stop-color="#15C472"/>
<stop offset="1" stop-color="#0A717E"/>
</linearGradient>
</defs>
</svg>
