<svg width="13" height="15" viewBox="0 0 13 15" fill="none" xmlns="http://www.w3.org/2000/svg">
<path fill-rule="evenodd" clip-rule="evenodd" d="M6.5 3.66667C4.93519 3.66667 3.66667 4.93519 3.66667 6.5C3.66667 8.06481 4.93519 9.33333 6.5 9.33333C8.06481 9.33333 9.33333 8.06481 9.33333 6.5C9.33333 4.93519 8.06481 3.66667 6.5 3.66667ZM4.66667 6.5C4.66667 5.48748 5.48748 4.66667 6.5 4.66667C7.51252 4.66667 8.33333 5.48748 8.33333 6.5C8.33333 7.51252 7.51252 8.33333 6.5 8.33333C5.48748 8.33333 4.66667 7.51252 4.66667 6.5Z" fill="#737373"/>
<path fill-rule="evenodd" clip-rule="evenodd" d="M6.5 0C2.98301 0 0 2.90636 0 6.45051C0 8.26549 0.767911 9.78273 1.84459 11.035C2.91664 12.2818 4.31223 13.2874 5.61883 14.0963L5.62742 14.1016L5.63621 14.1065C5.8997 14.2553 6.19736 14.3333 6.5 14.3333C6.80264 14.3333 7.1003 14.2553 7.36379 14.1065L7.37146 14.1022L7.37897 14.0976C8.69032 13.2952 10.0862 12.2864 11.1578 11.0358C12.2335 9.78038 13 8.25948 13 6.45051C13 2.90636 10.017 0 6.5 0ZM1 6.45051C1 3.47094 3.52291 1 6.5 1C9.47709 1 12 3.47094 12 6.45051C12 7.95534 11.3676 9.25409 10.3984 10.3852C9.42719 11.5186 8.13562 12.4616 6.86546 13.2395C6.75395 13.3009 6.62816 13.3333 6.5 13.3333C6.37221 13.3333 6.24679 13.3011 6.13553 13.24C4.86583 12.4533 3.5745 11.5131 2.60285 10.383C1.63339 9.25548 1 7.96079 1 6.45051Z" fill="#737373"/>
<path fill-rule="evenodd" clip-rule="evenodd" d="M6.5 3.66667C4.93519 3.66667 3.66667 4.93519 3.66667 6.5C3.66667 8.06481 4.93519 9.33333 6.5 9.33333C8.06481 9.33333 9.33333 8.06481 9.33333 6.5C9.33333 4.93519 8.06481 3.66667 6.5 3.66667ZM4.66667 6.5C4.66667 5.48748 5.48748 4.66667 6.5 4.66667C7.51252 4.66667 8.33333 5.48748 8.33333 6.5C8.33333 7.51252 7.51252 8.33333 6.5 8.33333C5.48748 8.33333 4.66667 7.51252 4.66667 6.5Z" stroke="#737373"/>
<path fill-rule="evenodd" clip-rule="evenodd" d="M6.5 0C2.98301 0 0 2.90636 0 6.45051C0 8.26549 0.767911 9.78273 1.84459 11.035C2.91664 12.2818 4.31223 13.2874 5.61883 14.0963L5.62742 14.1016L5.63621 14.1065C5.8997 14.2553 6.19736 14.3333 6.5 14.3333C6.80264 14.3333 7.1003 14.2553 7.36379 14.1065L7.37146 14.1022L7.37897 14.0976C8.69032 13.2952 10.0862 12.2864 11.1578 11.0358C12.2335 9.78038 13 8.25948 13 6.45051C13 2.90636 10.017 0 6.5 0ZM1 6.45051C1 3.47094 3.52291 1 6.5 1C9.47709 1 12 3.47094 12 6.45051C12 7.95534 11.3676 9.25409 10.3984 10.3852C9.42719 11.5186 8.13562 12.4616 6.86546 13.2395C6.75395 13.3009 6.62816 13.3333 6.5 13.3333C6.37221 13.3333 6.24679 13.3011 6.13553 13.24C4.86583 12.4533 3.5745 11.5131 2.60285 10.383C1.63339 9.25548 1 7.96079 1 6.45051Z" stroke="#737373"/>
</svg>
