<svg width="18" height="18" viewBox="0 0 18 18" fill="none" xmlns="http://www.w3.org/2000/svg">
<path fill-rule="evenodd" clip-rule="evenodd" d="M12.9683 0.150838C11.8492 4.88758e-06 10.415 0 8.58919 0H8.49414C6.66831 0 5.23416 4.88758e-06 4.11499 0.150838C2.96749 0.305005 2.05753 0.627489 1.34253 1.34249C0.627529 2.05749 0.304964 2.96749 0.150798 4.11499C-3.58025e-05 5.23416 0 6.66835 0 8.49418V8.58915C0 10.415 -3.58025e-05 11.8492 0.150798 12.9683C0.304964 14.1158 0.627529 15.0258 1.34253 15.7408C2.05753 16.4558 2.96749 16.7783 4.11499 16.9325C5.23416 17.0833 6.66831 17.0833 8.49414 17.0833H8.58919C10.415 17.0833 11.8492 17.0833 12.9683 16.9325C14.1158 16.7783 15.0258 16.4558 15.7408 15.7408C16.4558 15.0258 16.7784 14.1158 16.9325 12.9683C17.0834 11.8492 17.0833 10.415 17.0833 8.58915V8.49418C17.0833 6.66835 17.0834 5.23416 16.9325 4.11499C16.7784 2.96749 16.4558 2.05749 15.7408 1.34249C15.0258 0.627489 14.1158 0.305005 12.9683 0.150838ZM4.375 8.54667C4.375 9.00667 4.74833 9.38001 5.20833 9.38001H8.95833V9.86499C8.95833 10.0117 8.95831 10.1917 8.97664 10.3383V10.3408C8.98998 10.4467 9.05 10.9267 9.52083 11.155C9.99333 11.3842 10.41 11.1325 10.5008 11.0783L10.8909 10.7958C11.2042 10.55 11.6325 10.2125 11.9583 9.89502C12.1208 9.73669 12.2891 9.55582 12.4216 9.36332C12.5391 9.19249 12.7083 8.90083 12.7083 8.54167C12.7083 8.1825 12.5391 7.89084 12.4216 7.72001C12.2891 7.52751 12.1208 7.34665 11.9583 7.18831C11.6325 6.87081 11.2042 6.53335 10.8909 6.28752L10.5008 6.00501C10.41 5.95084 9.99333 5.69918 9.52083 5.92834C9.05 6.15668 8.98998 6.63668 8.97664 6.74251V6.745C8.95831 6.89166 8.95833 7.07168 8.95833 7.21834V7.71334H5.20833C4.74833 7.71334 4.375 8.08667 4.375 8.54667Z" fill="#FF5757"/>
</svg>
