<svg width="81" height="81" viewBox="0 0 81 81" fill="none" xmlns="http://www.w3.org/2000/svg">
<path fill-rule="evenodd" clip-rule="evenodd" d="M40.3125 0C62.5875 0 80.625 18.0487 80.625 40.3125C80.625 62.5762 62.5875 80.625 40.3125 80.625C18.0375 80.625 0 62.5762 0 40.3125C0 18.0487 18.0375 0 40.3125 0ZM21.5625 40.335C21.5625 42.405 23.25 44.085 25.3125 44.085H42.1875V46.2675C42.1875 46.9275 42.1876 47.7375 42.2626 48.3975V48.4087C42.3376 48.8849 42.5999 51.0449 44.7374 52.0724C46.8374 53.1037 48.7125 51.9712 49.125 51.7275L50.8876 50.4562C52.2751 49.3499 54.225 47.8313 55.6875 46.4026C56.4375 45.6901 57.1874 44.8762 57.7874 44.0099C58.3124 43.2412 59.0625 41.9287 59.0625 40.3125C59.0625 38.6963 58.3124 37.3838 57.7874 36.6151C57.1874 35.7488 56.4375 34.9349 55.6875 34.2224C54.225 32.7937 52.2751 31.2751 50.8876 30.1688L49.125 28.8975C48.7125 28.6538 46.8374 27.5213 44.7374 28.5526C42.5999 29.5801 42.3376 31.7401 42.2626 32.2163V32.2275C42.1876 32.8875 42.1875 33.6975 42.1875 34.3575V36.585H25.3125C23.25 36.585 21.5625 38.265 21.5625 40.335Z" fill="#A6282A"/>
</svg>
