<svg width="19" height="19" viewBox="0 0 19 19" fill="none" xmlns="http://www.w3.org/2000/svg">
<g opacity="0.4">
<path d="M6.37488 13.7772C6.3346 13.7145 6.3346 13.629 6.3346 13.4579L6.33459 0.544299C6.33459 0.258834 6.33459 0.116102 6.44035 0.0402892L6.44899 0.0343691C6.55779 -0.0370116 6.68112 0.0105737 6.92778 0.105744C7.32746 0.259953 7.79036 0.490126 8.35539 0.771087L10.6988 1.93631C10.8356 2.00432 10.904 2.03832 10.942 2.09964C10.98 2.16095 10.98 2.23733 10.98 2.39008V7.67467C10.98 7.77184 10.98 7.82042 10.9576 7.85947C10.9352 7.89851 10.8915 7.92405 10.8041 7.97512C9.79136 8.56717 8.95387 9.46794 8.46789 10.6041C7.94236 11.8327 7.92676 12.9651 8.19521 13.9658C8.30197 14.3637 8.35535 14.5627 8.27089 14.6318C8.18643 14.7009 8.01191 14.6141 7.66289 14.4406L7.41036 14.315C7.09035 14.1559 6.8532 14.0394 6.66631 13.9542C6.49888 13.8779 6.41516 13.8398 6.37488 13.7772Z" fill="url(#paint0_linear_2099_4558)"/>
<path d="M4.96983 0.106414C5.06768 0.182497 5.06768 0.320816 5.06768 0.597453L5.06768 13.5665C5.06768 13.7263 5.06768 13.8062 5.03071 13.8669C4.99375 13.9276 4.91729 13.9671 4.76439 14.0461C4.56479 14.1492 4.35089 14.2733 4.11176 14.412C3.58892 14.7154 3.10599 14.9955 2.74626 15.1579C2.3824 15.3222 1.98767 15.4471 1.57118 15.3728C1.1207 15.2924 0.71625 15.0504 0.429344 14.6945C0.166183 14.368 0.0787743 13.964 0.0391858 13.5619C-1.89541e-05 13.1637 -1.01744e-05 12.6545 4.43471e-07 12.0387V5.07982C-1.11817e-05 4.61432 -2.10181e-05 4.22044 0.0316437 3.89411C0.0652697 3.54756 0.13801 3.22777 0.31249 2.9215C0.487386 2.6145 0.725087 2.39025 1.0058 2.18755C1.269 1.99748 1.60529 1.80242 2.00063 1.5731L3.08895 0.941765C3.63548 0.624713 4.08307 0.365053 4.4723 0.18529C4.70448 0.0780556 4.82058 0.0244386 4.93067 0.0813678C4.94336 0.0879283 4.95855 0.0976464 4.96983 0.106414Z" fill="url(#paint1_linear_2099_4558)"/>
<path d="M18.0606 8.93618C18.1592 8.89103 18.1592 8.69979 18.1592 8.31732V6.50828C18.1592 5.73128 18.1592 5.08611 18.0919 4.57449C18.0212 4.03658 17.8659 3.55187 17.4837 3.16121C17.0996 2.76863 16.6198 2.60739 16.087 2.53418C15.5838 2.46502 14.9501 2.46504 14.192 2.46507L12.3916 2.46507C12.3118 2.46507 12.2469 2.52972 12.2469 2.60956L12.2469 6.93433C12.2469 7.13342 12.2469 7.23296 12.3079 7.28362C12.3689 7.33428 12.4711 7.31517 12.6756 7.27695C13.0207 7.21245 13.3725 7.17922 13.7262 7.17922C15.1091 7.17922 16.4619 7.68714 17.504 8.58616C17.8093 8.8496 17.962 8.98133 18.0606 8.93618Z" fill="url(#paint2_linear_2099_4558)"/>
</g>
<path fill-rule="evenodd" clip-rule="evenodd" d="M13.725 8.44629C11.3261 8.44629 9.29077 10.4253 9.29077 12.8492C9.29077 14.0954 9.81982 15.127 10.5358 15.9597C11.2459 16.7856 12.1617 17.4427 13.0001 17.9617L13.011 17.9685L13.0221 17.9748C13.2366 18.0959 13.4788 18.1593 13.725 18.1593C13.9711 18.1593 14.2133 18.0959 14.4279 17.9748L14.4376 17.9693L14.4471 17.9634C15.29 17.4477 16.2061 16.7884 16.916 15.9599C17.6312 15.1252 18.1592 14.0914 18.1592 12.8492C18.1592 10.4253 16.1239 8.44629 13.725 8.44629ZM13.7174 10.9801C12.7887 10.9801 12.0358 11.7364 12.0358 12.6694C12.0358 13.6023 12.7887 14.3586 13.7174 14.3586H13.7325C14.6613 14.3586 15.4142 13.6023 15.4142 12.6694C15.4142 11.7364 14.6613 10.9801 13.7325 10.9801H13.7174Z" fill="url(#paint3_linear_2099_4558)"/>
<defs>
<linearGradient id="paint0_linear_2099_4558" x1="18.1592" y1="7.1916" x2="-0.00124648" y2="7.2145" gradientUnits="userSpaceOnUse">
<stop stop-color="#15C472"/>
<stop offset="1" stop-color="#0A717E"/>
</linearGradient>
<linearGradient id="paint1_linear_2099_4558" x1="18.1592" y1="7.1916" x2="-0.00124648" y2="7.2145" gradientUnits="userSpaceOnUse">
<stop stop-color="#15C472"/>
<stop offset="1" stop-color="#0A717E"/>
</linearGradient>
<linearGradient id="paint2_linear_2099_4558" x1="18.1592" y1="7.1916" x2="-0.00124648" y2="7.2145" gradientUnits="userSpaceOnUse">
<stop stop-color="#15C472"/>
<stop offset="1" stop-color="#0A717E"/>
</linearGradient>
<linearGradient id="paint3_linear_2099_4558" x1="18.1592" y1="12.9837" x2="9.29016" y2="12.9924" gradientUnits="userSpaceOnUse">
<stop stop-color="#15C472"/>
<stop offset="1" stop-color="#0A717E"/>
</linearGradient>
</defs>
</svg>
