<svg width="36" height="36" viewBox="0 0 36 36" fill="none" xmlns="http://www.w3.org/2000/svg">
<path d="M17.917 0C19.3604 2.07221e-05 20.6509 0.461456 22.044 1.24316C23.3938 2.00065 24.9408 3.11906 26.8858 4.52539L29.4004 6.34375C30.9612 7.47223 32.2082 8.37376 33.1485 9.20801C34.1194 10.0694 34.846 10.9286 35.3067 12.0088C35.7684 13.0914 35.8803 14.2011 35.8184 15.4805C35.7586 16.7151 35.5296 18.205 35.2442 20.0625L34.7178 23.4814C34.3122 26.1209 33.9901 28.2229 33.5157 29.8604C33.025 31.5536 32.3331 32.8982 31.0977 33.9258C29.8675 34.949 28.4015 35.4046 26.6114 35.6221C24.8699 35.8335 22.6731 35.834 19.8985 35.834H15.9356C13.1607 35.834 10.9633 35.8336 9.22173 35.6221C7.43176 35.4046 5.96652 34.9488 4.73637 33.9258C3.50096 32.8982 2.80906 31.5536 2.3184 29.8604C1.84395 28.2229 1.52088 26.121 1.11528 23.4814L0.589889 20.0625C0.30441 18.2049 0.0754471 16.7151 0.0156704 15.4805C-0.0462704 14.2011 0.0656491 13.0914 0.527389 12.0088C0.988126 10.9286 1.71471 10.0694 2.68559 9.20801C3.62587 8.37379 4.87291 7.47219 6.43364 6.34375L8.94829 4.52539C10.8932 3.1191 12.4403 2.00063 13.7901 1.24316C15.1831 0.46149 16.4737 0 17.917 0ZM17.917 2.5C17.0554 2.5 16.1945 2.76124 15.0137 3.42383C13.8039 4.10274 12.3719 5.13525 10.3506 6.59668L7.95122 8.33203C6.32538 9.50757 5.18065 10.3365 4.34477 11.0781C3.52898 11.8019 3.09032 12.3726 2.82719 12.9893C2.56511 13.6037 2.46148 14.3002 2.51274 15.3594C2.56547 16.4485 2.77322 17.8101 3.07133 19.75L3.57329 23.0146C3.99539 25.7614 4.29585 27.7021 4.71977 29.165C5.13277 30.5902 5.62394 31.4125 6.33501 32.0039C7.05119 32.5994 7.98167 32.9534 9.52348 33.1406C11.0968 33.3317 13.1418 33.334 16.0186 33.334H19.8145C22.6915 33.334 24.7372 33.3317 26.3106 33.1406C27.8524 32.9533 28.7829 32.5995 29.4991 32.0039C30.2101 31.4125 30.7013 30.5902 31.1143 29.165C31.5382 27.7021 31.8387 25.7614 32.2608 23.0146L32.7627 19.75C33.0609 17.8101 33.2686 16.4485 33.3213 15.3594C33.3726 14.3003 33.269 13.6037 33.0069 12.9893C32.7438 12.3725 32.3051 11.802 31.4893 11.0781C30.6534 10.3365 29.5087 9.50757 27.8829 8.33203L25.4825 6.59668C23.4614 5.13535 22.0301 4.10271 20.8204 3.42383C19.6395 2.76121 18.7786 2.50002 17.917 2.5ZM17.917 13.334C18.6073 13.334 19.167 13.8937 19.167 14.584V18.334H22.917C23.6073 18.334 24.167 18.8937 24.167 19.584C24.1669 20.2742 23.6072 20.8339 22.917 20.834H19.167V24.584C19.1669 25.2742 18.6072 25.8339 17.917 25.834C17.2268 25.834 16.6672 25.2742 16.667 24.584V20.834L12.917 20.834C12.2268 20.834 11.6672 20.2742 11.667 19.584C11.667 18.8936 12.2267 18.334 12.917 18.334L16.667 18.334V14.584C16.667 13.8936 17.2267 13.334 17.917 13.334Z" fill="#3F337C"/>
</svg>
