<svg width="15" height="11" viewBox="0 0 15 11" fill="none" xmlns="http://www.w3.org/2000/svg">
<path fill-rule="evenodd" clip-rule="evenodd" d="M7.16667 7.66667C5.78595 7.66667 4.66667 6.54738 4.66667 5.16667C4.66667 3.78595 5.78595 2.66667 7.16667 2.66667C8.54738 2.66667 9.66667 3.78595 9.66667 5.16667C9.66667 6.54738 8.54738 7.66667 7.16667 7.66667ZM5.66667 5.16667C5.66667 5.99509 6.33824 6.66667 7.16667 6.66667C7.99509 6.66667 8.66667 5.99509 8.66667 5.16667C8.66667 4.33824 7.99509 3.66667 7.16667 3.66667C6.33824 3.66667 5.66667 4.33824 5.66667 5.16667Z" fill="#737373"/>
<path fill-rule="evenodd" clip-rule="evenodd" d="M7.16667 0C5.45296 0 3.98397 0.754272 2.84687 1.64199C1.70875 2.5305 0.867509 3.57983 0.39694 4.23968L0.361461 4.28916C0.19269 4.52388 0 4.79186 0 5.16667C0 5.54147 0.192691 5.80946 0.361461 6.04418L0.396941 6.09365C0.86751 6.75351 1.70875 7.80283 2.84687 8.69134C3.98397 9.57906 5.45296 10.3333 7.16667 10.3333C8.88037 10.3333 10.3494 9.57906 11.4865 8.69134C12.6246 7.80283 13.4658 6.75351 13.9364 6.09365L13.9719 6.04418C14.1406 5.80946 14.3333 5.54147 14.3333 5.16667C14.3333 4.79186 14.1406 4.52387 13.9719 4.28915L13.9364 4.23968C13.4658 3.57983 12.6246 2.5305 11.4865 1.64199C10.3494 0.754271 8.88037 0 7.16667 0ZM1.21111 4.8203C1.65125 4.20312 2.42825 3.23745 3.46224 2.43023C4.49725 1.62221 5.75423 1 7.16667 1C8.57911 1 9.83608 1.62221 10.8711 2.43023C11.9051 3.23745 12.6821 4.20312 13.1222 4.8203C13.2311 4.97298 13.2829 5.04753 13.3138 5.10688C13.3334 5.14461 13.3334 5.15495 13.3333 5.16507L13.3333 5.16667L13.3333 5.16826C13.3334 5.17839 13.3334 5.18873 13.3138 5.22645C13.2829 5.2858 13.2311 5.36035 13.1222 5.51303C12.6821 6.13021 11.9051 7.09588 10.8711 7.9031C9.83608 8.71112 8.57911 9.33333 7.16667 9.33333C5.75423 9.33333 4.49725 8.71112 3.46224 7.9031C2.42825 7.09588 1.65125 6.13021 1.21111 5.51303C1.10223 5.36035 1.05041 5.2858 1.01952 5.22645C0.999885 5.18873 0.99994 5.17839 0.999994 5.16826L1 5.16667L0.999994 5.16507C0.99994 5.15495 0.999885 5.14461 1.01952 5.10688C1.05041 5.04753 1.10223 4.97298 1.21111 4.8203Z" fill="#737373"/>
<path fill-rule="evenodd" clip-rule="evenodd" d="M7.16667 7.66667C5.78595 7.66667 4.66667 6.54738 4.66667 5.16667C4.66667 3.78595 5.78595 2.66667 7.16667 2.66667C8.54738 2.66667 9.66667 3.78595 9.66667 5.16667C9.66667 6.54738 8.54738 7.66667 7.16667 7.66667ZM5.66667 5.16667C5.66667 5.99509 6.33824 6.66667 7.16667 6.66667C7.99509 6.66667 8.66667 5.99509 8.66667 5.16667C8.66667 4.33824 7.99509 3.66667 7.16667 3.66667C6.33824 3.66667 5.66667 4.33824 5.66667 5.16667Z" stroke="#737373"/>
<path fill-rule="evenodd" clip-rule="evenodd" d="M7.16667 0C5.45296 0 3.98397 0.754272 2.84687 1.64199C1.70875 2.5305 0.867509 3.57983 0.39694 4.23968L0.361461 4.28916C0.19269 4.52388 0 4.79186 0 5.16667C0 5.54147 0.192691 5.80946 0.361461 6.04418L0.396941 6.09365C0.86751 6.75351 1.70875 7.80283 2.84687 8.69134C3.98397 9.57906 5.45296 10.3333 7.16667 10.3333C8.88037 10.3333 10.3494 9.57906 11.4865 8.69134C12.6246 7.80283 13.4658 6.75351 13.9364 6.09365L13.9719 6.04418C14.1406 5.80946 14.3333 5.54147 14.3333 5.16667C14.3333 4.79186 14.1406 4.52387 13.9719 4.28915L13.9364 4.23968C13.4658 3.57983 12.6246 2.5305 11.4865 1.64199C10.3494 0.754271 8.88037 0 7.16667 0ZM1.21111 4.8203C1.65125 4.20312 2.42825 3.23745 3.46224 2.43023C4.49725 1.62221 5.75423 1 7.16667 1C8.57911 1 9.83608 1.62221 10.8711 2.43023C11.9051 3.23745 12.6821 4.20312 13.1222 4.8203C13.2311 4.97298 13.2829 5.04753 13.3138 5.10688C13.3334 5.14461 13.3334 5.15495 13.3333 5.16507L13.3333 5.16667L13.3333 5.16826C13.3334 5.17839 13.3334 5.18873 13.3138 5.22645C13.2829 5.2858 13.2311 5.36035 13.1222 5.51303C12.6821 6.13021 11.9051 7.09588 10.8711 7.9031C9.83608 8.71112 8.57911 9.33333 7.16667 9.33333C5.75423 9.33333 4.49725 8.71112 3.46224 7.9031C2.42825 7.09588 1.65125 6.13021 1.21111 5.51303C1.10223 5.36035 1.05041 5.2858 1.01952 5.22645C0.999885 5.18873 0.99994 5.17839 0.999994 5.16826L1 5.16667L0.999994 5.16507C0.99994 5.15495 0.999885 5.14461 1.01952 5.10688C1.05041 5.04753 1.10223 4.97298 1.21111 4.8203Z" stroke="#737373"/>
</svg>
