<svg width="19" height="17" viewBox="0 0 19 17" fill="none" xmlns="http://www.w3.org/2000/svg">
<path fill-rule="evenodd" clip-rule="evenodd" d="M14.7564 2.4089C14.8019 2.57808 14.8288 2.75789 14.8447 2.95521C14.8551 3.0851 14.8604 3.15005 14.8835 3.19472C14.9068 3.23975 14.9353 3.2698 14.979 3.29545C15.0224 3.32091 15.0861 3.32945 15.2136 3.34655C15.9692 3.4479 16.6365 3.66887 17.1709 4.20196C17.7052 4.73505 17.9267 5.40083 18.0283 6.15468C18.1251 6.87274 18.125 7.77999 18.125 8.88022V10.6198C18.125 11.7201 18.1251 12.6273 18.0283 13.3454C17.9267 14.0992 17.7052 14.765 17.1709 15.2981C16.6365 15.8312 15.9692 16.0522 15.2136 16.1535C14.4939 16.2501 13.5845 16.25 12.4817 16.25H7.47832C6.77812 16.25 6.14156 16.25 5.56604 16.2368C5.16823 16.2276 4.96933 16.2231 4.90205 16.0882C4.83477 15.9533 4.9512 15.7911 5.18404 15.4666C5.34489 15.2424 5.52289 15.0053 5.71741 14.7721C6.15419 14.2485 6.62936 13.7367 7.09975 13.3242C7.59197 12.8925 7.96629 12.6701 8.19552 12.5889C9.2801 12.2047 9.84793 11.0141 9.46381 9.92954C9.07969 8.84496 7.88907 8.27713 6.80449 8.66125C5.85754 8.99663 5.01873 9.60724 4.35246 10.1915C3.66479 10.7946 3.03702 11.4807 2.51789 12.103C2.47252 12.1574 2.44982 12.1846 2.42802 12.2014C2.36387 12.2508 2.29586 12.2653 2.21713 12.2464C2.19037 12.24 2.15492 12.2227 2.08403 12.188C1.90713 12.1015 1.73584 12.0363 1.57355 11.9884C1.2722 11.8925 0.957354 11.8763 0.833334 11.8751C0.551287 11.8751 0.410263 11.8751 0.342333 11.8218C0.327097 11.8099 0.31881 11.8019 0.306257 11.7872C0.250288 11.7214 0.245686 11.6081 0.236483 11.3814C0.208311 10.6873 0.208322 9.89497 0.208334 8.99704V2.43757C0.208334 1.09138 1.30219 7.83652e-05 2.65152 7.83652e-05L10.9075 3.83632e-05C11.5553 -0.000311581 12.0363 -0.000571435 12.453 0.110819C13.5771 0.411336 14.4552 1.28736 14.7564 2.4089ZM12.031 1.68043C11.85 1.63204 11.6049 1.62506 10.7951 1.62506H2.65115C2.20137 1.62506 1.83675 1.98883 1.83675 2.43756C1.83675 2.88629 2.20137 3.25005 2.65115 3.25005L12.8049 3.25014C12.9645 3.25028 13.0443 3.25035 13.1068 3.2094C13.1483 3.18222 13.1917 3.12567 13.2072 3.07857C13.2306 3.0076 13.2147 2.94823 13.1828 2.82947C13.0322 2.2687 12.5931 1.83069 12.031 1.68043ZM15.4167 9.79177C15.4167 8.87129 14.6705 8.1251 13.75 8.1251C12.8295 8.1251 12.0833 8.87129 12.0833 9.79177C12.0833 10.7122 12.8295 11.4584 13.75 11.4584C14.6705 11.4584 15.4167 10.7122 15.4167 9.79177Z" fill="url(#paint0_linear_2287_2073)"/>
<path d="M7.77821 11.4109C8.21204 11.2572 8.43917 10.781 8.28552 10.3471C8.13187 9.91329 7.65563 9.68616 7.22179 9.83981C6.49002 10.099 5.79051 10.5933 5.17665 11.1316C4.55414 11.6775 3.97216 12.3113 3.47774 12.904C3.11166 13.3428 2.78798 13.7659 2.52533 14.1249C2.28469 13.8366 2.04498 13.626 1.81642 13.4736C1.58775 13.3212 1.37872 13.2329 1.2055 13.1834C1.07256 13.1386 0.901996 13.126 0.833333 13.1253C0.373096 13.1253 0 13.4984 0 13.9587C0 14.3926 0.331659 14.7491 0.755313 14.7884C0.774177 14.7948 0.82165 14.8135 0.891917 14.8604C1.05797 14.9711 1.38741 15.2635 1.75464 15.998C1.88896 16.2666 2.15744 16.4422 2.45739 16.4576C2.75727 16.4729 3.04232 16.3256 3.20339 16.0722L3.31189 15.9067C3.3852 15.7966 3.49353 15.6368 3.63117 15.4418C3.90705 15.051 4.29768 14.5229 4.75755 13.9717C5.21902 13.4185 5.73997 12.8544 6.27556 12.3847C6.81978 11.9074 7.33351 11.5684 7.77821 11.4109Z" fill="url(#paint1_linear_2287_2073)"/>
<defs>
<linearGradient id="paint0_linear_2287_2073" x1="18.125" y1="7.6886" x2="-0.00124783" y2="7.70993" gradientUnits="userSpaceOnUse">
<stop stop-color="#15C472"/>
<stop offset="1" stop-color="#0A717E"/>
</linearGradient>
<linearGradient id="paint1_linear_2287_2073" x1="18.125" y1="7.6886" x2="-0.00124783" y2="7.70993" gradientUnits="userSpaceOnUse">
<stop stop-color="#15C472"/>
<stop offset="1" stop-color="#0A717E"/>
</linearGradient>
</defs>
</svg>
