<svg width="16" height="16" viewBox="0 0 16 16" fill="none" xmlns="http://www.w3.org/2000/svg">
<path fill-rule="evenodd" clip-rule="evenodd" d="M1.49781 8.00288C1.49785 7.07901 1.4992 6.3558 1.53797 5.76808C1.57867 5.15088 1.66217 4.64859 1.8456 4.18572C2.40434 2.77579 3.5809 1.675 5.05776 1.15655C5.90432 0.859379 6.92788 0.83595 8.62851 0.834217C8.64048 0.834062 8.65246 0.833984 8.66447 0.833984C8.6691 0.833984 8.67372 0.834047 8.67832 0.834172C8.80881 0.834071 8.94326 0.834081 9.08188 0.834091L9.32369 0.834081C10.4138 0.833854 11.0931 0.833713 11.6536 1.03045C12.5529 1.34617 13.274 2.01825 13.6173 2.88465C13.7338 3.17848 13.7838 3.49041 13.8077 3.8537C13.8311 4.20875 13.8311 4.64578 13.8311 5.19535V6.66743C13.8311 6.94357 13.6073 7.16743 13.3311 7.16743C13.055 7.16743 12.8311 6.94357 12.8311 6.66743V5.21288C12.8311 4.64188 12.8309 4.2378 12.8099 3.91951C12.7892 3.60569 12.7499 3.41003 12.6877 3.25307C12.4566 2.67008 11.9629 2.19888 11.3223 1.97401C10.9441 1.84123 10.4516 1.8341 9.20992 1.8341C9.00275 1.8341 8.80679 1.83416 8.62117 1.83452C7.69002 1.8575 6.94225 2.61953 6.94225 3.55621C6.94225 3.65429 6.94656 3.75975 6.95206 3.87814L6.95411 3.92202C6.95896 4.0253 6.96424 4.13769 6.96657 4.24978C6.97183 4.50318 6.96383 4.79887 6.88735 5.0843C6.73837 5.64029 6.3041 6.07456 5.74812 6.22353C5.46269 6.30001 5.167 6.30802 4.9136 6.30275C4.80155 6.30043 4.6892 6.29515 4.58595 6.2903L4.54196 6.28824C4.42357 6.28274 4.31811 6.27843 4.22002 6.27843C3.27018 6.27843 2.49993 7.04737 2.49781 7.99672C2.4978 8.03799 2.4978 8.07974 2.4978 8.12198V9.81894C2.4978 10.8542 2.49861 11.587 2.56502 12.1514C2.63004 12.704 2.75238 13.0338 2.95425 13.2876C3.08603 13.4533 3.2431 13.6013 3.42116 13.7268C3.69928 13.9227 4.0629 14.0413 4.66088 14.1036C5.26683 14.1668 6.0515 14.1674 7.14932 14.1674H9.9978C10.2739 14.1674 10.4978 14.3913 10.4978 14.6674C10.4978 14.9436 10.2739 15.1674 9.9978 15.1674H7.12042C6.05784 15.1674 5.22106 15.1674 4.55722 15.0982C3.87939 15.0276 3.32202 14.8802 2.8452 14.5443C2.59067 14.3649 2.36368 14.1516 2.17162 13.9101C1.80836 13.4534 1.64813 12.9163 1.57187 12.2682C1.49779 11.6386 1.49779 10.8469 1.4978 9.85101V8.10377C1.4978 8.06994 1.49781 8.03619 1.49781 8.00288ZM6.51316 1.88795C6.05111 1.92585 5.70164 1.99035 5.38899 2.10011C4.17089 2.52771 3.22168 3.42763 2.77526 4.55414C2.64606 4.88014 2.57324 5.26616 2.5358 5.83389C2.53515 5.84367 2.53452 5.85348 2.5339 5.86335C2.99756 5.49706 3.58326 5.27843 4.22002 5.27843C4.34387 5.27843 4.47027 5.28384 4.58831 5.28931L4.63355 5.29143C4.73801 5.29632 4.83633 5.30093 4.93436 5.30297C5.16146 5.30769 5.34318 5.29676 5.4893 5.25761C5.70019 5.2011 5.86492 5.03637 5.92142 4.82548C5.96058 4.67936 5.9715 4.49764 5.96679 4.27055C5.96475 4.17253 5.96014 4.07421 5.95525 3.96978L5.95313 3.92449C5.94765 3.80645 5.94225 3.68005 5.94225 3.55621C5.94225 2.9276 6.15531 2.34875 6.51316 1.88795Z" fill="#737373"/>
<path fill-rule="evenodd" clip-rule="evenodd" d="M5.34369 8.16736L5.83327 8.16737C6.56939 8.16737 7.20827 8.74161 7.20827 9.5007C7.20827 10.2598 6.56939 10.834 5.83327 10.834H5.1666V12.0007C5.1666 12.2768 4.94274 12.5007 4.6666 12.5007C4.39046 12.5007 4.1666 12.2768 4.1666 12.0007L4.16659 9.31052C4.16653 9.17434 4.16646 9.02488 4.18432 8.89839C4.20561 8.74758 4.26044 8.55898 4.42428 8.40293C4.5847 8.25015 4.7726 8.20237 4.91905 8.18362C5.04676 8.16727 5.19892 8.16732 5.34369 8.16736ZM5.1666 9.83404H5.83327C6.06364 9.83404 6.20827 9.66209 6.20827 9.5007C6.20827 9.33932 6.06364 9.16737 5.83327 9.16737H5.3666C5.28578 9.16737 5.22209 9.1674 5.1674 9.16859C5.16662 9.2146 5.1666 9.26792 5.1666 9.33403V9.83404Z" fill="#737373"/>
<path d="M13.0972 8.16737L13.9999 8.16737C14.2761 8.16737 14.4999 8.39123 14.4999 8.66737C14.4999 8.94351 14.2761 9.16737 13.9999 9.16737H13.1249C12.8365 9.16737 12.6681 9.16833 12.5484 9.18366C12.5176 9.18759 12.4965 9.19181 12.4824 9.19531C12.4801 9.20568 12.4774 9.21987 12.4747 9.23878C12.4594 9.34701 12.4583 9.50177 12.4583 9.77848V9.83404H13.4166C13.6927 9.83404 13.9166 10.0579 13.9166 10.334C13.9166 10.6102 13.6927 10.834 13.4166 10.834H12.4583V12.0007C12.4583 12.2768 12.2344 12.5007 11.9583 12.5007C11.6821 12.5007 11.4583 12.2768 11.4583 12.0007L11.4583 9.74938C11.4582 9.51276 11.4582 9.28569 11.4845 9.09899C11.5144 8.88767 11.5863 8.65661 11.7843 8.46802C11.9789 8.2827 12.2114 8.21865 12.4214 8.19176C12.6123 8.1673 12.8462 8.16733 13.0972 8.16737Z" fill="#737373"/>
<path fill-rule="evenodd" clip-rule="evenodd" d="M8.73496 8.16737L8.74993 8.16737C9.9693 8.16737 10.9999 9.11471 10.9999 10.334C10.9999 11.5534 9.9693 12.5007 8.74993 12.5007L8.73496 12.5007C8.63908 12.5007 8.53809 12.5007 8.45144 12.4933C8.35427 12.4849 8.22812 12.4642 8.10069 12.3942C7.84533 12.2538 7.73376 12.0296 7.69223 11.8354C7.6629 11.6982 7.66519 11.5462 7.66629 11.4727C7.66646 11.4617 7.6666 11.4523 7.6666 11.4451V9.22292C7.6666 9.21573 7.66646 9.20643 7.66629 9.19533C7.66519 9.12187 7.6629 8.96985 7.69223 8.83268C7.73376 8.63849 7.84533 8.4143 8.10069 8.27389C8.22812 8.20382 8.35427 8.18319 8.45144 8.1748C8.53809 8.16732 8.63908 8.16735 8.73496 8.16737ZM8.66628 9.16749L8.66629 9.16856C8.66643 9.18554 8.6666 9.20534 8.6666 9.22292V11.4451C8.6666 11.4627 8.66643 11.4825 8.66629 11.4995L8.66628 11.5006C8.69095 11.5007 8.71844 11.5007 8.74993 11.5007C9.46356 11.5007 9.99993 10.9557 9.99993 10.334C9.99993 9.71241 9.46356 9.16737 8.74993 9.16737C8.71844 9.16737 8.69095 9.16737 8.66628 9.16749Z" fill="#737373"/>
<path fill-rule="evenodd" clip-rule="evenodd" d="M1.49781 8.00288C1.49785 7.07901 1.4992 6.3558 1.53797 5.76808C1.57867 5.15088 1.66217 4.64859 1.8456 4.18572C2.40434 2.77579 3.5809 1.675 5.05776 1.15655C5.90432 0.859379 6.92788 0.83595 8.62851 0.834217C8.64048 0.834062 8.65246 0.833984 8.66447 0.833984C8.6691 0.833984 8.67372 0.834047 8.67832 0.834172C8.80881 0.834071 8.94326 0.834081 9.08188 0.834091L9.32369 0.834081C10.4138 0.833854 11.0931 0.833713 11.6536 1.03045C12.5529 1.34617 13.274 2.01825 13.6173 2.88465C13.7338 3.17848 13.7838 3.49041 13.8077 3.8537C13.8311 4.20875 13.8311 4.64578 13.8311 5.19535V6.66743C13.8311 6.94357 13.6073 7.16743 13.3311 7.16743C13.055 7.16743 12.8311 6.94357 12.8311 6.66743V5.21288C12.8311 4.64188 12.8309 4.2378 12.8099 3.91951C12.7892 3.60569 12.7499 3.41003 12.6877 3.25307C12.4566 2.67008 11.9629 2.19888 11.3223 1.97401C10.9441 1.84123 10.4516 1.8341 9.20992 1.8341C9.00275 1.8341 8.80679 1.83416 8.62117 1.83452C7.69002 1.8575 6.94225 2.61953 6.94225 3.55621C6.94225 3.65429 6.94656 3.75975 6.95206 3.87814L6.95411 3.92202C6.95896 4.0253 6.96424 4.13769 6.96657 4.24978C6.97183 4.50318 6.96383 4.79887 6.88735 5.0843C6.73837 5.64029 6.3041 6.07456 5.74812 6.22353C5.46269 6.30001 5.167 6.30802 4.9136 6.30275C4.80155 6.30043 4.6892 6.29515 4.58595 6.2903L4.54196 6.28824C4.42357 6.28274 4.31811 6.27843 4.22002 6.27843C3.27018 6.27843 2.49993 7.04737 2.49781 7.99672C2.4978 8.03799 2.4978 8.07974 2.4978 8.12198V9.81894C2.4978 10.8542 2.49861 11.587 2.56502 12.1514C2.63004 12.704 2.75238 13.0338 2.95425 13.2876C3.08603 13.4533 3.2431 13.6013 3.42116 13.7268C3.69928 13.9227 4.0629 14.0413 4.66088 14.1036C5.26683 14.1668 6.0515 14.1674 7.14932 14.1674H9.9978C10.2739 14.1674 10.4978 14.3913 10.4978 14.6674C10.4978 14.9436 10.2739 15.1674 9.9978 15.1674H7.12042C6.05784 15.1674 5.22106 15.1674 4.55722 15.0982C3.87939 15.0276 3.32202 14.8802 2.8452 14.5443C2.59067 14.3649 2.36368 14.1516 2.17162 13.9101C1.80836 13.4534 1.64813 12.9163 1.57187 12.2682C1.49779 11.6386 1.49779 10.8469 1.4978 9.85101V8.10377C1.4978 8.06994 1.49781 8.03619 1.49781 8.00288ZM6.51316 1.88795C6.05111 1.92585 5.70164 1.99035 5.38899 2.10011C4.17089 2.52771 3.22168 3.42763 2.77526 4.55414C2.64606 4.88014 2.57324 5.26616 2.5358 5.83389C2.53515 5.84367 2.53452 5.85348 2.5339 5.86335C2.99756 5.49706 3.58326 5.27843 4.22002 5.27843C4.34387 5.27843 4.47027 5.28384 4.58831 5.28931L4.63355 5.29143C4.73801 5.29632 4.83633 5.30093 4.93436 5.30297C5.16146 5.30769 5.34318 5.29676 5.4893 5.25761C5.70019 5.2011 5.86492 5.03637 5.92142 4.82548C5.96058 4.67936 5.9715 4.49764 5.96679 4.27055C5.96475 4.17253 5.96014 4.07421 5.95525 3.96978L5.95313 3.92449C5.94765 3.80645 5.94225 3.68005 5.94225 3.55621C5.94225 2.9276 6.15531 2.34875 6.51316 1.88795Z" stroke="#737373"/>
<path fill-rule="evenodd" clip-rule="evenodd" d="M5.34369 8.16736L5.83327 8.16737C6.56939 8.16737 7.20827 8.74161 7.20827 9.5007C7.20827 10.2598 6.56939 10.834 5.83327 10.834H5.1666V12.0007C5.1666 12.2768 4.94274 12.5007 4.6666 12.5007C4.39046 12.5007 4.1666 12.2768 4.1666 12.0007L4.16659 9.31052C4.16653 9.17434 4.16646 9.02488 4.18432 8.89839C4.20561 8.74758 4.26044 8.55898 4.42428 8.40293C4.5847 8.25015 4.7726 8.20237 4.91905 8.18362C5.04676 8.16727 5.19892 8.16732 5.34369 8.16736ZM5.1666 9.83404H5.83327C6.06364 9.83404 6.20827 9.66209 6.20827 9.5007C6.20827 9.33932 6.06364 9.16737 5.83327 9.16737H5.3666C5.28578 9.16737 5.22209 9.1674 5.1674 9.16859C5.16662 9.2146 5.1666 9.26792 5.1666 9.33403V9.83404Z" stroke="#737373"/>
<path d="M13.0972 8.16737L13.9999 8.16737C14.2761 8.16737 14.4999 8.39123 14.4999 8.66737C14.4999 8.94351 14.2761 9.16737 13.9999 9.16737H13.1249C12.8365 9.16737 12.6681 9.16833 12.5484 9.18366C12.5176 9.18759 12.4965 9.19181 12.4824 9.19531C12.4801 9.20568 12.4774 9.21987 12.4747 9.23878C12.4594 9.34701 12.4583 9.50177 12.4583 9.77848V9.83404H13.4166C13.6927 9.83404 13.9166 10.0579 13.9166 10.334C13.9166 10.6102 13.6927 10.834 13.4166 10.834H12.4583V12.0007C12.4583 12.2768 12.2344 12.5007 11.9583 12.5007C11.6821 12.5007 11.4583 12.2768 11.4583 12.0007L11.4583 9.74938C11.4582 9.51276 11.4582 9.28569 11.4845 9.09899C11.5144 8.88767 11.5863 8.65661 11.7843 8.46802C11.9789 8.2827 12.2114 8.21865 12.4214 8.19176C12.6123 8.1673 12.8462 8.16733 13.0972 8.16737Z" stroke="#737373"/>
<path fill-rule="evenodd" clip-rule="evenodd" d="M8.73496 8.16737L8.74993 8.16737C9.9693 8.16737 10.9999 9.11471 10.9999 10.334C10.9999 11.5534 9.9693 12.5007 8.74993 12.5007L8.73496 12.5007C8.63908 12.5007 8.53809 12.5007 8.45144 12.4933C8.35427 12.4849 8.22812 12.4642 8.10069 12.3942C7.84533 12.2538 7.73376 12.0296 7.69223 11.8354C7.6629 11.6982 7.66519 11.5462 7.66629 11.4727C7.66646 11.4617 7.6666 11.4523 7.6666 11.4451V9.22292C7.6666 9.21573 7.66646 9.20643 7.66629 9.19533C7.66519 9.12187 7.6629 8.96985 7.69223 8.83268C7.73376 8.63849 7.84533 8.4143 8.10069 8.27389C8.22812 8.20382 8.35427 8.18319 8.45144 8.1748C8.53809 8.16732 8.63908 8.16735 8.73496 8.16737ZM8.66628 9.16749L8.66629 9.16856C8.66643 9.18554 8.6666 9.20534 8.6666 9.22292V11.4451C8.6666 11.4627 8.66643 11.4825 8.66629 11.4995L8.66628 11.5006C8.69095 11.5007 8.71844 11.5007 8.74993 11.5007C9.46356 11.5007 9.99993 10.9557 9.99993 10.334C9.99993 9.71241 9.46356 9.16737 8.74993 9.16737C8.71844 9.16737 8.69095 9.16737 8.66628 9.16749Z" stroke="#737373"/>
</svg>
