<svg width="11" height="15" viewBox="0 0 11 15" fill="none" xmlns="http://www.w3.org/2000/svg">
<path d="M4 11.8333C4 11.5572 4.22386 11.3333 4.5 11.3333H5.83333C6.10948 11.3333 6.33333 11.5572 6.33333 11.8333C6.33333 12.1095 6.10948 12.3333 5.83333 12.3333H4.5C4.22386 12.3333 4 12.1095 4 11.8333Z" fill="url(#paint0_linear_1973_7081)"/>
<path fill-rule="evenodd" clip-rule="evenodd" d="M5.1295 2.68141e-07H5.20383C6.27223 -1.14944e-05 7.12487 -2.08815e-05 7.79359 0.0898866C8.48444 0.182768 9.05338 0.379772 9.50347 0.829865C9.95356 1.27996 10.1506 1.8489 10.2434 2.53974C10.3334 3.20847 10.3333 4.06111 10.3333 5.12951V9.20383C10.3333 10.2722 10.3334 11.1249 10.2434 11.7936C10.1506 12.4844 9.95356 13.0534 9.50347 13.5035C9.05338 13.9536 8.48444 14.1506 7.79359 14.2434C7.12487 14.3334 6.27223 14.3333 5.20383 14.3333H5.12951C4.06111 14.3333 3.20847 14.3334 2.53974 14.2434C1.8489 14.1506 1.27996 13.9536 0.829865 13.5035C0.379772 13.0534 0.182768 12.4844 0.0898866 11.7936C-2.08815e-05 11.1249 -1.14944e-05 10.2722 2.6814e-07 9.20384V5.1295C-1.14944e-05 4.06111 -2.08815e-05 3.20847 0.0898866 2.53974C0.182768 1.8489 0.379772 1.27996 0.829865 0.829865C1.27996 0.379772 1.8489 0.182768 2.53974 0.0898866C3.20847 -2.08815e-05 4.06111 -1.14944e-05 5.1295 2.68141e-07ZM2.67299 1.08097C2.09304 1.15894 1.7703 1.30365 1.53697 1.53697C1.30365 1.7703 1.15894 2.09304 1.08097 2.67299C1.00106 3.26733 1 4.05259 1 5.16667V9.16667C1 10.2807 1.00106 11.066 1.08097 11.6603C1.15894 12.2403 1.30365 12.563 1.53697 12.7964C1.7703 13.0297 2.09304 13.1744 2.67299 13.2524C3.26733 13.3323 4.05259 13.3333 5.16667 13.3333C6.28075 13.3333 7.06601 13.3323 7.66034 13.2524C8.2403 13.1744 8.56304 13.0297 8.79636 12.7964C9.02969 12.563 9.17439 12.2403 9.25237 11.6603C9.33227 11.066 9.33333 10.2807 9.33333 9.16667V5.16667C9.33333 4.05259 9.33227 3.26733 9.25237 2.67299C9.17439 2.09304 9.02969 1.7703 8.79636 1.53697C8.56304 1.30365 8.2403 1.15894 7.66034 1.08097C7.63345 1.07735 7.60616 1.0739 7.57847 1.0706C7.52521 1.38869 7.47601 1.66716 7.4094 1.89412C7.33 2.16467 7.21092 2.41871 6.98174 2.62205C6.74469 2.83236 6.47167 2.92072 6.17922 2.96114C5.9035 2.99924 5.56323 3.00001 5.1667 3.00001C4.77017 3.00001 4.4299 2.99924 4.15417 2.96114C3.86173 2.92072 3.58871 2.83236 3.35166 2.62205C3.12248 2.41871 3.0034 2.16467 2.924 1.89412C2.85739 1.66716 2.80819 1.38869 2.75492 1.07059C2.72721 1.07389 2.69991 1.07735 2.67299 1.08097ZM3.75888 1.0097C3.80454 1.27721 3.84047 1.4658 3.88353 1.61251C3.93457 1.78641 3.97993 1.84262 4.01533 1.87402C4.05427 1.90857 4.1149 1.9462 4.29108 1.97055C4.48399 1.99721 4.74733 2.00001 5.1667 2.00001C5.58607 2.00001 5.84941 1.99721 6.04232 1.97055C6.2185 1.9462 6.27913 1.90857 6.31807 1.87402C6.35347 1.84262 6.39883 1.78641 6.44987 1.61251C6.49293 1.4658 6.52886 1.27721 6.57452 1.0097C6.17242 1.00025 5.70842 1 5.16667 1C4.62494 1 4.16096 1.00025 3.75888 1.0097Z" fill="url(#paint1_linear_1973_7081)"/>
<defs>
<linearGradient id="paint0_linear_1973_7081" x1="10.3333" y1="6.69576" x2="-0.000719589" y2="6.70372" gradientUnits="userSpaceOnUse">
<stop stop-color="#15C472"/>
<stop offset="1" stop-color="#0A717E"/>
</linearGradient>
<linearGradient id="paint1_linear_1973_7081" x1="10.3333" y1="6.69576" x2="-0.000719589" y2="6.70372" gradientUnits="userSpaceOnUse">
<stop stop-color="#15C472"/>
<stop offset="1" stop-color="#0A717E"/>
</linearGradient>
</defs>
</svg>
