<svg width="18" height="18" viewBox="0 0 18 18" fill="none" xmlns="http://www.w3.org/2000/svg">
<path fill-rule="evenodd" clip-rule="evenodd" d="M8.61108 1.811e-07H7.63893C6.01321 -9.97382e-06 4.73284 -1.81173e-05 3.73237 0.127018C2.70823 0.257061 1.88304 0.529793 1.2296 1.14693C0.571122 1.76883 0.275504 2.56223 0.135458 3.54601C-2.5034e-05 4.49773 -1.38175e-05 5.71283 2.96326e-07 7.24221V10.6744C-1.41155e-05 12.2038 -2.55555e-05 13.4189 0.135457 14.3707C0.275504 15.3544 0.571121 16.1478 1.2296 16.7697C1.88304 17.3869 2.70823 17.6596 3.73237 17.7896C4.73284 17.9167 6.01322 17.9167 7.63895 17.9167H8.61111C8.91441 17.9167 9.20568 17.9167 9.48536 17.9158C9.79495 17.9149 9.94974 17.9145 10.023 17.8392C10.0963 17.764 10.0918 17.5707 10.0828 17.184C10.078 16.9788 10.1011 16.7673 10.1539 16.5616L10.5092 15.3196C10.5438 15.1987 10.5611 15.1382 10.551 15.0813C10.5409 15.0244 10.5007 14.9692 10.4203 14.859C9.89477 14.1382 9.58333 13.2492 9.58333 12.2876C9.58333 9.87061 11.5451 7.91667 13.9583 7.91667C14.4802 7.91667 14.981 8.00805 15.4453 8.17572C15.84 8.31822 16.0373 8.38947 16.1437 8.31481C16.25 8.24014 16.25 8.0497 16.25 7.66882V7.24228C16.25 5.7129 16.25 4.49774 16.1145 3.54601C15.9745 2.56223 15.6789 1.76883 15.0204 1.14693C14.367 0.529794 13.5418 0.257062 12.5176 0.127018C11.5172 -1.78441e-05 10.2368 -9.82482e-06 8.61108 1.811e-07ZM3.95833 4.79173C3.95833 4.33149 4.33143 3.9584 4.79167 3.9584H11.4583C11.9186 3.9584 12.2917 4.33149 12.2917 4.79173C12.2917 5.25197 11.9186 5.62507 11.4583 5.62507H4.79167C4.33143 5.62507 3.95833 5.25197 3.95833 4.79173ZM3.95833 8.9584C3.95833 8.49816 4.33143 8.12506 4.79167 8.12506H8.125C8.58524 8.12506 8.95833 8.49816 8.95833 8.9584C8.95833 9.41864 8.58524 9.79173 8.125 9.79173H4.79167C4.33143 9.79173 3.95833 9.41864 3.95833 8.9584Z" fill="url(#paint0_linear_2287_2130)"/>
<path fill-rule="evenodd" clip-rule="evenodd" d="M16.4684 15.6226C16.5459 15.8749 16.6111 16.0875 16.6531 16.2572C16.693 16.4186 16.734 16.6205 16.7068 16.8224C16.6251 17.4279 16.1382 17.9143 15.523 17.9167C15.3181 17.9174 15.1278 17.8385 14.9866 17.7729C14.8363 17.703 14.6349 17.5937 14.417 17.4753C14.1994 17.3572 14.1544 17.3355 14.1152 17.3233C14.0125 17.2912 13.9042 17.2912 13.8014 17.3233C13.7623 17.3355 13.7172 17.3572 13.4996 17.4754C13.2818 17.5937 13.0804 17.703 12.93 17.7729C12.7889 17.8385 12.5986 17.9174 12.3937 17.9167C11.7784 17.9143 11.2915 17.4279 11.2099 16.8224C11.1827 16.6205 11.2237 16.4186 11.2636 16.2572C11.3056 16.0875 11.3708 15.8749 11.4483 15.6226L11.7702 14.5736C11.1936 14.0028 10.8333 13.1975 10.8333 12.3053C10.8333 10.5719 12.1913 9.16667 13.8664 9.16667H14.0502C15.7254 9.16667 17.0833 10.5719 17.0833 12.3053C17.0833 13.1975 16.7231 14.0028 16.1465 14.5736L16.4684 15.6226ZM12.5044 15.9516C12.4206 16.2247 12.3652 16.4059 12.332 16.5402C12.2956 16.6475 12.2739 16.8359 12.478 16.7318C12.5938 16.678 12.7834 16.5753 13.0211 16.4462C13.1856 16.3567 13.3296 16.2783 13.4829 16.2305C13.7933 16.1336 14.1232 16.1336 14.4336 16.2305C14.5869 16.2783 14.7309 16.3567 14.8954 16.4462C15.1331 16.5753 15.3227 16.678 15.4385 16.7318C15.6743 16.8527 15.6341 16.6545 15.5845 16.5402C15.5513 16.4059 15.4959 16.2247 15.4121 15.9516L15.1863 15.216C14.8352 15.3629 14.4515 15.4438 14.0502 15.4438H13.8663C13.465 15.4438 13.0813 15.3629 12.7302 15.216L12.5044 15.9516Z" fill="url(#paint1_linear_2287_2130)"/>
<defs>
<linearGradient id="paint0_linear_2287_2130" x1="17.0833" y1="8.36969" x2="-0.00118204" y2="8.3871" gradientUnits="userSpaceOnUse">
<stop stop-color="#15C472"/>
<stop offset="1" stop-color="#0A717E"/>
</linearGradient>
<linearGradient id="paint1_linear_2287_2130" x1="17.0833" y1="8.36969" x2="-0.00118204" y2="8.3871" gradientUnits="userSpaceOnUse">
<stop stop-color="#15C472"/>
<stop offset="1" stop-color="#0A717E"/>
</linearGradient>
</defs>
</svg>
