<svg width="8" height="8" viewBox="0 0 8 8" fill="none" xmlns="http://www.w3.org/2000/svg">
<path d="M3.58268 0C3.93244 0 4.20795 0.264177 4.38383 0.620638L4.97118 1.80505C4.98898 1.84171 5.0312 1.89333 5.09467 1.94055C5.15808 1.98772 5.22017 2.01374 5.26102 2.0206L6.32423 2.19871C6.70828 2.26325 7.03017 2.4515 7.13467 2.7793C7.23909 3.10683 7.0861 3.4472 6.80993 3.72388L6.80966 3.72415L5.98369 4.55695C5.95095 4.58996 5.91428 4.65214 5.89128 4.73315C5.86844 4.81361 5.86641 4.88689 5.87677 4.93425L5.87692 4.93491L6.11323 5.96513C6.21123 6.39392 6.17876 6.81911 5.87634 7.04139C5.57289 7.26444 5.15821 7.16558 4.78149 6.94121L3.78484 6.34634C3.74298 6.32133 3.6711 6.30108 3.58435 6.30108C3.49823 6.30108 3.42484 6.32106 3.38026 6.347L3.37963 6.34736L2.38495 6.94107C2.00867 7.16622 1.5945 7.26334 1.29102 7.04007C0.988815 6.81774 0.954698 6.39334 1.05302 5.96491L1.28928 4.93491L1.28943 4.93425C1.29979 4.88689 1.29776 4.81361 1.27492 4.73315C1.25192 4.65214 1.21525 4.58996 1.18251 4.55695L0.355935 3.72355C0.0815332 3.44688 -0.0709467 3.1068 0.0326336 2.77975C0.136516 2.45175 0.457794 2.26327 0.842095 2.19869L1.90442 2.02073L1.90476 2.02067C1.94371 2.01392 2.00489 1.98819 2.06814 1.94089C2.13152 1.89351 2.17385 1.84178 2.19169 1.80505L2.19259 1.80322L2.77919 0.620324L2.77942 0.619858C2.95697 0.263692 3.23333 0 3.58268 0Z" fill="#FFB300"/>
</svg>
