<svg width="18" height="18" viewBox="0 0 18 18" fill="none" xmlns="http://www.w3.org/2000/svg">
<path d="M8.95671 0C9.8311 0 10.5199 0.660443 10.9596 1.5516L12.4279 4.51263C12.4725 4.60427 12.578 4.73332 12.7367 4.85137C12.8952 4.96929 13.0504 5.03434 13.1525 5.0515L15.8106 5.49677C16.7707 5.65811 17.5754 6.12874 17.8367 6.94825C18.0977 7.76708 17.7153 8.618 17.0248 9.3097L17.0242 9.31038L14.9592 11.3924C14.8774 11.4749 14.7857 11.6304 14.7282 11.8329C14.6711 12.034 14.666 12.2172 14.6919 12.3356L14.6923 12.3373L15.2831 14.9128C15.5281 15.9848 15.4469 17.0478 14.6909 17.6035C13.9322 18.1611 12.8955 17.9139 11.9537 17.353L9.46209 15.8658C9.35746 15.8033 9.17776 15.7527 8.96087 15.7527C8.74557 15.7527 8.5621 15.8027 8.45066 15.8675L8.44908 15.8684L5.96236 17.3527C5.02167 17.9155 3.98624 18.1583 3.22755 17.6002C2.47204 17.0443 2.38675 15.9834 2.63255 14.9123L3.22321 12.3373L3.22357 12.3356C3.24947 12.2172 3.2444 12.034 3.18729 11.8329C3.1298 11.6304 3.03812 11.4749 2.95627 11.3924L0.889836 9.30886C0.203833 8.61719 -0.177367 7.767 0.081584 6.94938C0.341289 6.12937 1.14448 5.65817 2.10524 5.49672L4.76106 5.05183L4.76191 5.05168C4.85927 5.03479 5.01221 4.97046 5.17036 4.85224C5.3288 4.73379 5.43462 4.60446 5.47923 4.51263L5.48147 4.50806L6.94798 1.55081L6.94856 1.54965C7.39243 0.65923 8.08332 0 8.95671 0Z" fill="url(#paint0_linear_2287_2040)"/>
<defs>
<linearGradient id="paint0_linear_2287_2040" x1="17.9191" y1="8.37024" x2="-0.00123801" y2="8.38939" gradientUnits="userSpaceOnUse">
<stop stop-color="#15C472"/>
<stop offset="1" stop-color="#0A717E"/>
</linearGradient>
</defs>
</svg>
