<svg width="18" height="19" viewBox="0 0 18 19" fill="none" xmlns="http://www.w3.org/2000/svg">
<path fill-rule="evenodd" clip-rule="evenodd" d="M3.54167 0C4.0019 0 4.375 0.373096 4.375 0.833333V1.06277C4.97046 1.04165 5.64693 1.04166 6.41186 1.04167L6.875 1.04167V0.833333C6.875 0.373096 7.2481 0 7.70833 0C8.16857 0 8.54167 0.373096 8.54167 0.833333V1.04167L9.0048 1.04167C9.76973 1.04166 10.4462 1.04165 11.0417 1.06277V0.833333C11.0417 0.373096 11.4148 0 11.875 0C12.3352 0 12.7083 0.373096 12.7083 0.833333V1.23357C13.3651 1.37275 13.9214 1.62109 14.3793 2.079C14.942 2.64162 15.1882 3.35279 15.3043 4.21635C15.4167 5.05225 15.4167 6.11806 15.4167 7.45355V10.625C15.4167 10.7401 15.3234 10.8333 15.2083 10.8333C15.2083 9.68274 14.2756 8.75 13.125 8.75C11.9744 8.75 11.0417 9.68274 11.0417 10.8333L11.0417 11.5833C11.0417 11.819 11.0417 11.9369 10.9684 12.0101C10.8952 12.0833 10.7774 12.0833 10.5417 12.0833L9.79167 12.0833C8.64107 12.0833 7.70833 13.0161 7.70833 14.1667C7.70833 15.3173 8.64107 16.25 9.79167 16.25H10.5417C10.7774 16.25 10.8952 16.25 10.9684 16.3232C11.0417 16.3964 11.0417 16.5143 11.0417 16.75V17.5C11.0417 17.5671 11.0448 17.6335 11.0511 17.699C11.065 17.8465 11.072 17.9202 11.0285 17.9913C11.0152 18.0131 10.99 18.0415 10.97 18.0572C10.9045 18.1088 10.8512 18.1101 10.7444 18.1126C10.2237 18.125 9.64523 18.125 9.00479 18.125L6.41189 18.125C5.07639 18.125 4.01059 18.125 3.17468 18.0126C2.31113 17.8965 1.59995 17.6503 1.03733 17.0877C0.474717 16.5251 0.228462 15.8139 0.11236 14.9503C-2.23517e-05 14.1144 -1.2314e-05 13.0486 2.65314e-07 11.7132L2.65314e-07 7.45353C-1.2314e-05 6.11807 -2.23517e-05 5.05224 0.11236 4.21635C0.228462 3.35279 0.474717 2.64162 1.03733 2.079C1.49524 1.62109 2.05155 1.37275 2.70833 1.23358L2.70833 0.833333C2.70833 0.373096 3.08143 0 3.54167 0ZM4.375 6.04167C4.02982 6.04167 3.75 6.32149 3.75 6.66667C3.75 7.01185 4.02982 7.29167 4.375 7.29167L11.0417 7.29167C11.3868 7.29167 11.6667 7.01185 11.6667 6.66667C11.6667 6.32149 11.3868 6.04167 11.0417 6.04167L4.375 6.04167ZM4.375 10.2083C4.02982 10.2083 3.75 10.4882 3.75 10.8333C3.75 11.1785 4.02982 11.4583 4.375 11.4583H7.70833C8.05351 11.4583 8.33333 11.1785 8.33333 10.8333C8.33333 10.4882 8.05351 10.2083 7.70833 10.2083H4.375Z" fill="url(#paint0_linear_2287_2152)"/>
<path d="M13.9583 10.8333C13.9583 10.3731 13.5852 10 13.125 10C12.6648 10 12.2917 10.3731 12.2917 10.8333L12.2917 13.3333L9.79167 13.3333C9.33143 13.3333 8.95833 13.7064 8.95833 14.1667C8.95833 14.6269 9.33143 15 9.79167 15L12.2917 15V17.5C12.2917 17.9602 12.6648 18.3333 13.125 18.3333C13.5852 18.3333 13.9583 17.9602 13.9583 17.5V15H16.4583C16.9186 15 17.2917 14.6269 17.2917 14.1667C17.2917 13.7064 16.9186 13.3333 16.4583 13.3333H13.9583L13.9583 10.8333Z" fill="url(#paint1_linear_2287_2152)"/>
<defs>
<linearGradient id="paint0_linear_2287_2152" x1="17.2917" y1="8.56434" x2="-0.00119685" y2="8.58177" gradientUnits="userSpaceOnUse">
<stop stop-color="#15C472"/>
<stop offset="1" stop-color="#0A717E"/>
</linearGradient>
<linearGradient id="paint1_linear_2287_2152" x1="17.2917" y1="8.56434" x2="-0.00119685" y2="8.58177" gradientUnits="userSpaceOnUse">
<stop stop-color="#15C472"/>
<stop offset="1" stop-color="#0A717E"/>
</linearGradient>
</defs>
</svg>
