<svg width="21" height="22" viewBox="0 0 21 22" fill="none" xmlns="http://www.w3.org/2000/svg">
<path fill-rule="evenodd" clip-rule="evenodd" d="M10.2513 0C5.70488 0 1.97647 3.5716 1.97643 8.02935C1.97634 9.05649 1.90529 9.82263 1.42356 10.5124C1.33527 10.637 1.2418 10.761 1.13943 10.8967L1.05747 11.0056C0.926133 11.1804 0.784447 11.3721 0.65188 11.5737C0.389193 11.9732 0.129699 12.459 0.0403257 13.0276C-0.25192 14.887 1.09628 16.0745 2.40358 16.6001C7.04587 18.4666 13.4567 18.4666 18.099 16.6001C19.4063 16.0745 20.7545 14.887 20.4623 13.0276C20.3729 12.459 20.1134 11.9732 19.8507 11.5737C19.7182 11.3721 19.5765 11.1804 19.4451 11.0056L19.3633 10.8968C19.2609 10.7611 19.1673 10.637 19.0791 10.5124C18.5973 9.82266 18.5263 9.05661 18.5262 8.02941C18.5262 3.57164 14.7978 0 10.2513 0ZM3.47643 8.02941C3.47643 4.44657 6.48601 1.5 10.2513 1.5C14.0166 1.5 17.0262 4.44657 17.0262 8.02941C17.0263 9.08199 17.0797 10.2712 17.8511 11.3739L17.8536 11.3774C17.9566 11.5228 18.0678 11.6703 18.1721 11.8086L18.2459 11.9065C18.3744 12.0777 18.4922 12.2379 18.5974 12.3978C18.8102 12.7214 18.9392 12.9976 18.9805 13.2605C19.1135 14.1071 18.5603 14.7979 17.5395 15.2084C13.2563 16.9305 7.24636 16.9305 2.96315 15.2084C1.94233 14.7979 1.38907 14.1071 1.52214 13.2605C1.56345 12.9976 1.69242 12.7214 1.90521 12.3978C2.01038 12.2379 2.12819 12.0777 2.25676 11.9065L2.33056 11.8086C2.43484 11.6703 2.54604 11.5228 2.649 11.3774L2.65148 11.3739C3.42288 10.2712 3.47634 9.08199 3.47643 8.02941Z" fill="url(#paint0_linear_1866_16366)"/>
<path d="M7.71367 19.159C7.38724 18.904 6.91591 18.9619 6.66093 19.2884C6.40595 19.6148 6.46387 20.0861 6.79031 20.3411C7.72134 21.0683 8.93604 21.5 10.252 21.5C11.5679 21.5 12.7826 21.0683 13.7137 20.3411C14.0401 20.0861 14.098 19.6148 13.843 19.2884C13.5881 18.9619 13.1167 18.904 12.7903 19.159C12.1291 19.6755 11.2411 20 10.252 20C9.26287 20 8.3749 19.6755 7.71367 19.159Z" fill="url(#paint1_linear_1866_16366)"/>
<defs>
<linearGradient id="paint0_linear_1866_16366" x1="20.5026" y1="10.0436" x2="-0.00141863" y2="10.0645" gradientUnits="userSpaceOnUse">
<stop stop-color="#15C472"/>
<stop offset="1" stop-color="#0A717E"/>
</linearGradient>
<linearGradient id="paint1_linear_1866_16366" x1="20.5026" y1="10.0436" x2="-0.00141863" y2="10.0645" gradientUnits="userSpaceOnUse">
<stop stop-color="#15C472"/>
<stop offset="1" stop-color="#0A717E"/>
</linearGradient>
</defs>
</svg>
