<svg width="18" height="18" viewBox="0 0 18 18" fill="none" xmlns="http://www.w3.org/2000/svg">
<path fill-rule="evenodd" clip-rule="evenodd" d="M6.87479 17.6641C7.10342 17.8287 7.34845 17.8901 7.58145 17.9167H9.91855C10.1515 17.8901 10.3966 17.8287 10.6252 17.6641C10.8537 17.4996 10.9894 17.2871 11.0881 17.0752C11.1768 16.8848 11.6237 15.551 11.6237 15.551C11.6237 15.551 11.842 15.1815 12.0213 15.0639C12.3734 14.8329 12.7286 14.7828 12.9601 14.8329C12.9601 14.8329 14.528 15.2744 14.7494 15.3094C14.9957 15.3484 15.2651 15.3534 15.5437 15.2404C15.8222 15.1276 16.0117 14.9366 16.1609 14.7375L17.3596 12.6688C17.4535 12.4528 17.5227 12.209 17.4931 11.9278C17.4634 11.6465 17.3448 11.4223 17.208 11.2305C17.0851 11.0583 16.0493 9.90529 15.8701 9.70671C15.8701 9.70671 15.6534 9.37443 15.6534 8.9582C15.6534 8.47089 15.8701 8.20988 15.8701 8.20988C15.8701 8.20988 17.0851 6.85832 17.208 6.68608C17.3448 6.49426 17.4634 6.27009 17.4931 5.98884C17.5227 5.70762 17.4535 5.46377 17.3596 5.24778C17.2754 5.0538 16.1608 3.17906 16.1608 3.17906C16.0116 2.97996 15.8222 2.78904 15.5437 2.67615C15.2651 2.56322 14.9957 2.56819 14.7494 2.60716C14.528 2.6422 13.235 3.00582 12.9601 3.08363C12.9601 3.08363 12.5189 3.17906 12.0213 2.85274C11.842 2.73515 11.7031 2.56511 11.6237 2.3656C11.6237 2.3656 11.1768 1.03191 11.0881 0.841507C10.9894 0.629524 10.8537 0.417061 10.6252 0.252569C10.3966 0.0880027 10.1516 0.0265653 9.91855 0L7.58145 0C7.34845 0.0265653 7.10342 0.0880027 6.87479 0.252569C6.64626 0.417061 6.51062 0.629524 6.41187 0.841507C6.32317 1.03191 5.87631 2.3656 5.87631 2.3656C5.7969 2.56511 5.65797 2.73515 5.47865 2.85274C4.98105 3.17906 4.53995 3.08363 4.53995 3.08363C4.26497 3.00582 2.972 2.6422 2.75058 2.60716C2.50431 2.56819 2.23491 2.56322 1.95633 2.67615C1.67785 2.78904 1.48835 2.97996 1.33915 3.17906C1.33915 3.17906 0.224638 5.0538 0.140362 5.24778C0.0465222 5.46377 -0.0227018 5.70762 0.00693893 5.98884C0.0365843 6.27009 0.155158 6.49426 0.292026 6.68608C0.414925 6.85832 1.62988 8.20988 1.62988 8.20988C1.62988 8.20988 1.84659 8.47089 1.84659 8.9582C1.84659 9.37443 1.6299 9.70671 1.6299 9.70671C1.4507 9.90529 0.414927 11.0583 0.292029 11.2305C0.155161 11.4223 0.036586 11.6465 0.00694053 11.9278C-0.0227023 12.209 0.0465248 12.4528 0.140364 12.6688L1.33914 14.7375C1.48834 14.9366 1.67784 15.1276 1.95634 15.2404C2.23492 15.3534 2.50433 15.3484 2.75059 15.3094C2.97203 15.2744 4.53991 14.8329 4.53991 14.8329C4.77135 14.7828 5.12661 14.8329 5.47869 15.0639C5.65798 15.1815 5.87628 15.551 5.87628 15.551C5.87628 15.551 6.32317 16.8848 6.41187 17.0752C6.51062 17.2871 6.64626 17.4996 6.87479 17.6641ZM8.76628 11.875C10.3771 11.875 11.6829 10.5692 11.6829 8.95833C11.6829 7.3475 10.3771 6.04167 8.76628 6.04167C7.15545 6.04167 5.84961 7.3475 5.84961 8.95833C5.84961 10.5692 7.15545 11.875 8.76628 11.875Z" fill="url(#paint0_linear_2287_2007)"/>
<defs>
<linearGradient id="paint0_linear_2287_2007" x1="17.5" y1="8.36969" x2="-0.00120998" y2="8.38796" gradientUnits="userSpaceOnUse">
<stop stop-color="#15C472"/>
<stop offset="1" stop-color="#0A717E"/>
</linearGradient>
</defs>
</svg>
