<svg width="19" height="17" viewBox="0 0 19 17" fill="none" xmlns="http://www.w3.org/2000/svg">
<path fill-rule="evenodd" clip-rule="evenodd" d="M8.69385 0.892052C9.89986 0.328784 11.4513 0 13.125 0C14.0582 0 14.9504 0.102139 15.7645 0.288607C16.5288 0.463645 17.1104 0.801808 17.4765 1.36454C17.8273 1.90377 17.9167 2.55593 17.9167 3.21998V10.0857C17.9167 10.3374 17.9167 10.4632 17.8613 10.5319C17.8479 10.5485 17.8401 10.5563 17.8235 10.5697C17.7549 10.625 17.6005 10.625 17.2917 10.625H16.9583C16.7226 10.625 16.6048 10.625 16.5316 10.5518C16.4583 10.4786 16.4583 10.3607 16.4583 10.125V9.79167C16.4583 8.64107 15.5256 7.70833 14.375 7.70833C13.2244 7.70833 12.2917 8.64107 12.2917 9.79167V10.125C12.2917 10.3607 12.2917 10.4786 12.2184 10.5518C12.1452 10.625 12.0274 10.625 11.7917 10.625H11.4583C10.3077 10.625 9.375 11.5577 9.375 12.7083C9.375 13.0009 9.43531 13.2794 9.54419 13.5321C9.70881 13.9141 9.79113 14.1051 9.75486 14.2C9.7186 14.2949 9.55914 14.3688 9.24022 14.5165L9.22281 14.5246C8.0168 15.0879 6.46541 15.4167 4.79167 15.4167C3.85847 15.4167 2.96624 15.3145 2.15213 15.1281C1.4224 14.9609 0.846033 14.6343 0.472032 14.0823C0.11035 13.5485 0 12.893 0 12.1967V3.21998C0 1.91399 1.32584 1.15643 2.43121 1.40961C3.14991 1.57423 3.94833 1.66667 4.79167 1.66667C6.31304 1.66667 7.67896 1.36606 8.69385 0.892052ZM6.25 7.70833C6.25 6.21256 7.46256 5 8.95833 5C10.4541 5 11.6667 6.21256 11.6667 7.70833C11.6667 9.20411 10.4541 10.4167 8.95833 10.4167C7.46256 10.4167 6.25 9.20411 6.25 7.70833ZM3.54167 7.70833C4.0019 7.70833 4.375 8.08143 4.375 8.54167V8.54915C4.375 9.00939 4.0019 9.38249 3.54167 9.38249C3.08143 9.38249 2.70833 9.00939 2.70833 8.54915V8.54167C2.70833 8.08143 3.08143 7.70833 3.54167 7.70833Z" fill="url(#paint0_linear_2287_2084)"/>
<path d="M15.2083 9.79167C15.2083 9.33143 14.8352 8.95833 14.375 8.95833C13.9148 8.95833 13.5417 9.33143 13.5417 9.79167V11.875H11.4583C10.9981 11.875 10.625 12.2481 10.625 12.7083C10.625 13.1686 10.9981 13.5417 11.4583 13.5417H13.5417V15.625C13.5417 16.0852 13.9148 16.4583 14.375 16.4583C14.8352 16.4583 15.2083 16.0852 15.2083 15.625V13.5417H17.2917C17.7519 13.5417 18.125 13.1686 18.125 12.7083C18.125 12.2481 17.7519 11.875 17.2917 11.875H15.2083V9.79167Z" fill="url(#paint1_linear_2287_2084)"/>
<defs>
<linearGradient id="paint0_linear_2287_2084" x1="18.125" y1="7.68844" x2="-0.00124783" y2="7.70977" gradientUnits="userSpaceOnUse">
<stop stop-color="#15C472"/>
<stop offset="1" stop-color="#0A717E"/>
</linearGradient>
<linearGradient id="paint1_linear_2287_2084" x1="18.125" y1="7.68844" x2="-0.00124783" y2="7.70977" gradientUnits="userSpaceOnUse">
<stop stop-color="#15C472"/>
<stop offset="1" stop-color="#0A717E"/>
</linearGradient>
</defs>
</svg>
