<svg width="18" height="19" viewBox="0 0 18 19" fill="none" xmlns="http://www.w3.org/2000/svg">
<path fill-rule="evenodd" clip-rule="evenodd" d="M3.54167 0C4.0019 0 4.375 0.373096 4.375 0.833333V1.06277C4.97047 1.04165 5.64693 1.04166 6.41187 1.04167L6.875 1.04167V0.833333C6.875 0.373096 7.2481 0 7.70833 0C8.16857 0 8.54167 0.373096 8.54167 0.833333V1.04167L9.0048 1.04167C9.76973 1.04166 10.4462 1.04165 11.0417 1.06277V0.833333C11.0417 0.373096 11.4148 0 11.875 0C12.3352 0 12.7083 0.373096 12.7083 0.833333V1.23357C13.3651 1.37275 13.9214 1.62109 14.3793 2.079C14.942 2.64162 15.1882 3.35279 15.3043 4.21635C15.4167 5.05225 15.4167 6.11805 15.4167 7.45355L15.4163 10.3448C15.4163 10.5012 15.4162 10.5795 15.379 10.6399C15.3417 10.7002 15.2675 10.7374 15.1191 10.8117C14.4342 11.1547 13.8218 11.6183 13.3108 12.0664C12.6231 12.6695 11.9954 13.3556 11.4762 13.9779C11.4308 14.0323 11.4082 14.0595 11.3863 14.0763C11.3222 14.1257 11.2542 14.1402 11.1755 14.1213C11.1487 14.1149 11.1133 14.0976 11.0424 14.0629C10.8565 13.972 10.6768 13.9046 10.5072 13.8562C10.4035 13.8255 10.1477 13.75 9.79167 13.75C8.64107 13.75 7.70833 14.6827 7.70833 15.8333C7.70833 16.7594 8.3119 17.5434 9.14766 17.8149C9.19225 17.8294 9.23327 17.8541 9.26266 17.8906C9.26957 17.8992 9.27676 17.9083 9.28421 17.918C9.33864 17.9886 9.33469 18.1012 9.24745 18.1196C9.22197 18.125 9.20199 18.125 9.16203 18.125L6.41189 18.125C5.07639 18.125 4.01059 18.125 3.17468 18.0126C2.31113 17.8965 1.59995 17.6503 1.03733 17.0877C0.474716 16.5251 0.228462 15.8139 0.11236 14.9503C-2.2836e-05 14.1144 -1.25793e-05 13.0486 2.74018e-07 11.7132L2.74018e-07 7.45353C-1.25793e-05 6.11806 -2.2836e-05 5.05224 0.11236 4.21635C0.228462 3.35279 0.474716 2.64162 1.03733 2.079C1.49524 1.62109 2.05155 1.37275 2.70833 1.23358L2.70833 0.833333C2.70833 0.373096 3.08143 0 3.54167 0ZM4.375 6.875C4.02982 6.875 3.75 7.15482 3.75 7.5C3.75 7.84518 4.02982 8.125 4.375 8.125L11.0417 8.125C11.3868 8.125 11.6667 7.84518 11.6667 7.5C11.6667 7.15482 11.3868 6.875 11.0417 6.875L4.375 6.875ZM4.375 11.0417C4.02982 11.0417 3.75 11.3215 3.75 11.6667C3.75 12.0118 4.02982 12.2917 4.375 12.2917H7.70833C8.05351 12.2917 8.33333 12.0118 8.33333 11.6667C8.33333 11.3215 8.05351 11.0417 7.70833 11.0417H4.375Z" fill="url(#paint0_linear_2287_2141)"/>
<path d="M16.7365 13.2858C17.1704 13.1321 17.3975 12.6559 17.2439 12.222C17.0902 11.7882 16.614 11.5611 16.1801 11.7147C15.4484 11.9739 14.7488 12.4682 14.135 13.0065C13.5125 13.5524 12.9305 14.1862 12.4361 14.7789C12.07 15.2177 11.7463 15.6408 11.4837 15.9998C11.243 15.7115 11.0033 15.5009 10.7748 15.3485C10.5461 15.1961 10.3371 15.1078 10.1638 15.0583C10.1548 15.0558 10.1458 15.0531 10.1365 15.0504C10.0576 15.0271 9.96652 15.0002 9.79167 15.0002C9.33143 15.0002 8.95833 15.3733 8.95833 15.8336C8.95833 16.2675 9.28999 16.624 9.71365 16.6633C9.73251 16.6697 9.77998 16.6884 9.85025 16.7353C10.0163 16.846 10.3457 17.1384 10.713 17.8729C10.8473 18.1415 11.1158 18.3171 11.4157 18.3325C11.7156 18.3478 12.0007 18.2005 12.1617 17.9471C12.235 17.837 12.4519 17.5117 12.5895 17.3167C12.8654 16.9259 13.256 16.3978 13.7159 15.8466C14.1774 15.2934 14.6983 14.7293 15.2339 14.2596C15.7781 13.7823 16.2918 13.4432 16.7365 13.2858Z" fill="url(#paint1_linear_2287_2141)"/>
<defs>
<linearGradient id="paint0_linear_2287_2141" x1="17.2919" y1="8.56445" x2="-0.00119686" y2="8.58188" gradientUnits="userSpaceOnUse">
<stop stop-color="#15C472"/>
<stop offset="1" stop-color="#0A717E"/>
</linearGradient>
<linearGradient id="paint1_linear_2287_2141" x1="17.2919" y1="8.56445" x2="-0.00119686" y2="8.58188" gradientUnits="userSpaceOnUse">
<stop stop-color="#15C472"/>
<stop offset="1" stop-color="#0A717E"/>
</linearGradient>
</defs>
</svg>
