<svg width="24" height="24" viewBox="0 0 24 24" fill="none" xmlns="http://www.w3.org/2000/svg">
<g clip-path="url(#clip0_369_11517)">
<path d="M21.5002 4H12.0002C11.9465 4 11.8932 4.00844 11.8422 4.02498L11.7222 4.06497C11.4602 4.15216 11.3184 4.43523 11.4056 4.69722C11.4061 4.69881 11.4067 4.70036 11.4072 4.70195L16.4332 19.389L13.1232 23.171C12.9415 23.3789 12.9627 23.6948 13.1707 23.8765C13.2619 23.9562 13.379 24.0001 13.5002 24H21.5002C22.8809 24 24.0002 22.8807 24.0002 21.5V6.50003C24.0002 5.11928 22.8809 4 21.5002 4Z" fill="#E5E5E5"/>
<path d="M17.455 19.293C17.3739 19.1146 17.196 19 17 19H12C11.7239 19 11.5 19.2239 11.5 19.5C11.5 19.5601 11.5108 19.6197 11.532 19.676L13.032 23.676C13.0939 23.8407 13.2379 23.9607 13.411 23.992C13.4404 23.9971 13.4702 23.9997 13.5 24C13.6442 23.9999 13.7812 23.9375 13.876 23.829L17.376 19.829C17.5052 19.6813 17.5361 19.4717 17.455 19.293Z" fill="url(#paint0_linear_369_11517)"/>
<path d="M21.5 11H14.5C14.2239 11 14 10.7762 14 10.5C14 10.2239 14.2239 10 14.5 10H21.5C21.7761 10 22 10.2239 22 10.5C22 10.7762 21.7762 11 21.5 11Z" fill="url(#paint1_linear_369_11517)"/>
<path d="M17.5 11C17.2239 11 17 10.7761 17 10.5V9.50002C17 9.22388 17.2239 9 17.5 9C17.7762 9 18 9.22388 18 9.50002V10.5C18 10.7761 17.7762 11 17.5 11Z" fill="url(#paint2_linear_369_11517)"/>
<path d="M16 17C15.7239 16.9998 15.5002 16.7757 15.5005 16.4996C15.5006 16.3382 15.5787 16.1868 15.7101 16.093C17.9001 14.537 19.5001 11.365 19.5001 10.5C19.5001 10.2239 19.7239 10 20.0001 10C20.2762 10 20.5001 10.2239 20.5001 10.5C20.5001 11.818 18.5731 15.286 16.2901 16.907C16.2054 16.9674 16.1041 16.9999 16 17Z" fill="url(#paint3_linear_369_11517)"/>
<path d="M20 18C19.8749 18.0001 19.7543 17.9534 19.662 17.869C19.3 17.537 16.104 14.585 15.537 13.188C15.4329 12.932 15.556 12.6401 15.812 12.536C16.068 12.4319 16.3599 12.5551 16.464 12.811C16.873 13.819 19.4 16.271 20.339 17.1301C20.5433 17.3158 20.5584 17.632 20.3727 17.8364C20.2773 17.9413 20.1418 18.0008 20 18Z" fill="url(#paint4_linear_369_11517)"/>
<path d="M17.473 19.338L10.973 0.338016C10.9038 0.135844 10.7137 0 10.5 0H2.49998C1.11928 0 0 1.11928 0 2.49998V17.5C0 18.8807 1.11928 20 2.49998 20H17C17.2761 20 17.4999 19.7761 17.4999 19.5C17.5 19.4449 17.4908 19.3901 17.473 19.338Z" fill="url(#paint5_linear_369_11517)"/>
<path d="M9.50014 14C9.28874 14.0001 9.10016 13.8671 9.02914 13.668L7.00016 7.986L4.97117 13.668C4.86791 13.9241 4.57658 14.048 4.32045 13.9448C4.07881 13.8473 3.95249 13.5807 4.03016 13.332L6.53014 6.33202C6.65244 6.07219 6.96223 5.96067 7.22206 6.08292C7.33152 6.13444 7.41959 6.22252 7.47116 6.33202L9.97114 13.332C10.0642 13.5913 9.93008 13.877 9.67114 13.971C9.6162 13.9905 9.55836 14.0003 9.50014 14Z" fill="white"/>
<path d="M8.00003 11H6.00002C5.72388 11 5.5 10.7762 5.5 10.5C5.5 10.2239 5.72388 10 6.00002 10H8.00003C8.27617 10 8.50005 10.2239 8.50005 10.5C8.5 10.7762 8.27617 11 8.00003 11Z" fill="white"/>
</g>
<defs>
<linearGradient id="paint0_linear_369_11517" x1="17.4997" y1="21.3357" x2="11.4996" y2="21.3434" gradientUnits="userSpaceOnUse">
<stop stop-color="#15C472"/>
<stop offset="1" stop-color="#0A717E"/>
</linearGradient>
<linearGradient id="paint1_linear_369_11517" x1="22" y1="10.4672" x2="14" y2="10.5356" gradientUnits="userSpaceOnUse">
<stop stop-color="#15C472"/>
<stop offset="1" stop-color="#0A717E"/>
</linearGradient>
<linearGradient id="paint2_linear_369_11517" x1="18" y1="9.9343" x2="16.9999" y2="9.93483" gradientUnits="userSpaceOnUse">
<stop stop-color="#15C472"/>
<stop offset="1" stop-color="#0A717E"/>
</linearGradient>
<linearGradient id="paint3_linear_369_11517" x1="20.5001" y1="13.27" x2="15.5001" y2="13.2739" gradientUnits="userSpaceOnUse">
<stop stop-color="#15C472"/>
<stop offset="1" stop-color="#0A717E"/>
</linearGradient>
<linearGradient id="paint4_linear_369_11517" x1="20.5027" y1="15.0688" x2="15.4997" y2="15.0736" gradientUnits="userSpaceOnUse">
<stop stop-color="#15C472"/>
<stop offset="1" stop-color="#0A717E"/>
</linearGradient>
<linearGradient id="paint5_linear_369_11517" x1="17.4999" y1="9.3429" x2="-0.00121374" y2="9.35927" gradientUnits="userSpaceOnUse">
<stop stop-color="#15C472"/>
<stop offset="1" stop-color="#0A717E"/>
</linearGradient>
<clipPath id="clip0_369_11517">
<rect width="24" height="24" fill="white"/>
</clipPath>
</defs>
</svg>
