<svg width="17" height="18" viewBox="0 0 17 18" fill="none" xmlns="http://www.w3.org/2000/svg">
<path fill-rule="evenodd" clip-rule="evenodd" d="M10.7496 0.496593C10.3696 0.213131 9.92698 0.0694246 9.45608 0.0273066C9.16715 0.00146541 8.82065 0.00108492 8.4361 0.00066264C8.40214 0.000625346 8.36788 0.000587725 8.33333 0.000532211C8.29867 0.0004765 8.26399 0.000384856 8.2293 0.000293184C7.89992 -0.00057722 7.56956 -0.00145021 7.2416 0.0284063C6.76012 0.0722386 6.3086 0.22188 5.92384 0.517047C5.63934 0.735305 5.44489 1.00172 5.28064 1.28962C5.12836 1.55652 4.97676 1.88913 4.80463 2.2668L4.5084 2.91667L0.833333 2.91725C0.373096 2.91725 0 3.29035 0 3.75059C0 4.21082 0.373096 4.58392 0.833333 4.58392H1.55799L2.00102 11.9961C2.06352 13.0419 2.11312 13.8718 2.21631 14.5347C2.32213 15.2146 2.49228 15.7808 2.83357 16.2761C3.14578 16.7292 3.54803 17.1117 4.01467 17.3992C4.52476 17.7134 5.09458 17.8508 5.77283 17.9165L10.8776 17.9167C11.5551 17.8511 12.1243 17.7139 12.634 17.4003C13.1003 17.1133 13.5025 16.7315 13.8148 16.2791C14.1562 15.7846 14.3268 15.2192 14.4335 14.5404C14.5374 13.8784 14.5882 13.0496 14.6521 12.0053L15.1063 4.58392H15.8333C16.2936 4.58392 16.6667 4.21082 16.6667 3.75059C16.6667 3.29035 16.2936 2.91725 15.8333 2.91725L12.2349 2.91667L11.8796 2.18367C11.7031 1.81941 11.5474 1.49831 11.3928 1.24077C11.226 0.962854 11.0307 0.70623 10.7496 0.496593ZM10.3828 2.91667C10.1941 2.52751 10.0732 2.2808 9.96383 2.0985C9.8036 1.83156 9.61162 1.71454 9.3076 1.68735C9.09153 1.66802 8.80994 1.66725 8.36211 1.66725C7.90309 1.66725 7.61414 1.66805 7.3927 1.68821C7.08095 1.71659 6.88658 1.83807 6.72826 2.11555C6.62457 2.2973 6.51168 2.54055 6.34007 2.91667H10.3828ZM5.83333 8.597C5.48816 8.597 5.20833 8.87683 5.20833 9.222C5.20833 9.56718 5.48816 9.847 5.83333 9.847H10.8333C11.1785 9.847 11.4583 9.56718 11.4583 9.222C11.4583 8.87683 11.1785 8.597 10.8333 8.597H5.83333ZM6.45833 12.487C6.45833 12.1418 6.73816 11.862 7.08333 11.862H9.58333C9.92851 11.862 10.2083 12.1418 10.2083 12.487C10.2083 12.8322 9.92851 13.112 9.58333 13.112H7.08333C6.73816 13.112 6.45833 12.8322 6.45833 12.487Z" fill="#FF5757"/>
</svg>
