<svg width="12" height="11" viewBox="0 0 12 11" fill="none" xmlns="http://www.w3.org/2000/svg">
<path d="M6.33339 7.16667C6.33339 7.44281 6.10954 7.66667 5.83339 7.66667C5.55725 7.66667 5.33339 7.44281 5.33339 7.16667V1.52538L5.32936 1.53015C5.1889 1.6959 5.05137 1.87108 4.92277 2.03489L4.89295 2.07287C4.7648 2.23603 4.62998 2.40743 4.52527 2.51516C4.3328 2.71318 4.01625 2.71768 3.81823 2.52521C3.62022 2.33274 3.61572 2.01619 3.80819 1.81817C3.86732 1.75733 3.9644 1.63612 4.10653 1.45517L4.1379 1.41522C4.26461 1.25379 4.41327 1.06441 4.56642 0.883672C4.73055 0.689968 4.91427 0.488772 5.09792 0.332357C5.18995 0.253974 5.29368 0.176661 5.40528 0.116943C5.5129 0.0593465 5.6612 0 5.83339 0C6.00558 0 6.15389 0.0593465 6.26151 0.116943C6.37311 0.176661 6.47684 0.253974 6.56887 0.332357C6.75252 0.488772 6.93624 0.689968 7.10037 0.883672C7.25351 1.0644 7.40215 1.25376 7.52885 1.41518L7.56026 1.45517C7.70238 1.63612 7.79947 1.75733 7.8586 1.81817C8.05107 2.01619 8.04657 2.33274 7.84856 2.52521C7.65054 2.71768 7.33399 2.71318 7.14152 2.51516C7.03681 2.40743 6.90199 2.23603 6.77384 2.07287L6.74404 2.03491C6.61543 1.8711 6.47789 1.6959 6.33743 1.53015L6.33339 1.52538V7.16667Z" fill="#737373"/>
<path d="M1.00006 8.5C1.00006 8.22386 0.776203 8 0.500061 8C0.223919 8 6.10352e-05 8.22386 6.10352e-05 8.5C6.10352e-05 8.92449 0.02155 9.29934 0.0915186 9.61785C0.162731 9.94201 0.290805 10.2389 0.526008 10.4741C0.76121 10.7093 1.05805 10.8373 1.38222 10.9085C1.70072 10.9785 2.07557 11 2.50006 11H9.16673C9.59122 11 9.96607 10.9785 10.2846 10.9085C10.6087 10.8373 10.9056 10.7093 11.1408 10.4741C11.376 10.2389 11.5041 9.94201 11.5753 9.61785C11.6452 9.29934 11.6667 8.92449 11.6667 8.5C11.6667 8.22386 11.4429 8 11.1667 8C10.8906 8 10.6667 8.22386 10.6667 8.5C10.6667 8.90285 10.6451 9.19166 10.5986 9.40328C10.5533 9.60924 10.4916 9.70898 10.4337 9.76695C10.3757 9.82491 10.276 9.88659 10.07 9.93183C9.85838 9.97832 9.56957 10 9.16673 10H2.50006C2.09722 10 1.8084 9.97832 1.59678 9.93183C1.39082 9.88659 1.29108 9.82491 1.23311 9.76695C1.17515 9.70898 1.11347 9.60924 1.06823 9.40328C1.02174 9.19166 1.00006 8.90285 1.00006 8.5Z" fill="#737373"/>
<path d="M6.33339 7.16667C6.33339 7.44281 6.10954 7.66667 5.83339 7.66667C5.55725 7.66667 5.33339 7.44281 5.33339 7.16667V1.52538L5.32936 1.53015C5.1889 1.6959 5.05137 1.87108 4.92277 2.03489L4.89295 2.07287C4.7648 2.23603 4.62998 2.40743 4.52527 2.51516C4.3328 2.71318 4.01625 2.71768 3.81823 2.52521C3.62022 2.33274 3.61572 2.01619 3.80819 1.81817C3.86732 1.75733 3.9644 1.63612 4.10653 1.45517L4.1379 1.41522C4.26461 1.25379 4.41327 1.06441 4.56642 0.883672C4.73055 0.689968 4.91427 0.488772 5.09792 0.332357C5.18995 0.253974 5.29368 0.176661 5.40528 0.116943C5.5129 0.0593465 5.6612 0 5.83339 0C6.00558 0 6.15389 0.0593465 6.26151 0.116943C6.37311 0.176661 6.47684 0.253974 6.56887 0.332357C6.75252 0.488772 6.93624 0.689968 7.10037 0.883672C7.25351 1.0644 7.40215 1.25376 7.52885 1.41518L7.56026 1.45517C7.70238 1.63612 7.79947 1.75733 7.8586 1.81817C8.05107 2.01619 8.04657 2.33274 7.84856 2.52521C7.65054 2.71768 7.33399 2.71318 7.14152 2.51516C7.03681 2.40743 6.90199 2.23603 6.77384 2.07287L6.74404 2.03491C6.61543 1.8711 6.47789 1.6959 6.33743 1.53015L6.33339 1.52538V7.16667Z" stroke="#737373"/>
<path d="M1.00006 8.5C1.00006 8.22386 0.776203 8 0.500061 8C0.223919 8 6.10352e-05 8.22386 6.10352e-05 8.5C6.10352e-05 8.92449 0.02155 9.29934 0.0915186 9.61785C0.162731 9.94201 0.290805 10.2389 0.526008 10.4741C0.76121 10.7093 1.05805 10.8373 1.38222 10.9085C1.70072 10.9785 2.07557 11 2.50006 11H9.16673C9.59122 11 9.96607 10.9785 10.2846 10.9085C10.6087 10.8373 10.9056 10.7093 11.1408 10.4741C11.376 10.2389 11.5041 9.94201 11.5753 9.61785C11.6452 9.29934 11.6667 8.92449 11.6667 8.5C11.6667 8.22386 11.4429 8 11.1667 8C10.8906 8 10.6667 8.22386 10.6667 8.5C10.6667 8.90285 10.6451 9.19166 10.5986 9.40328C10.5533 9.60924 10.4916 9.70898 10.4337 9.76695C10.3757 9.82491 10.276 9.88659 10.07 9.93183C9.85838 9.97832 9.56957 10 9.16673 10H2.50006C2.09722 10 1.8084 9.97832 1.59678 9.93183C1.39082 9.88659 1.29108 9.82491 1.23311 9.76695C1.17515 9.70898 1.11347 9.60924 1.06823 9.40328C1.02174 9.19166 1.00006 8.90285 1.00006 8.5Z" stroke="#737373"/>
</svg>
