<svg width="33" height="36" viewBox="0 0 33 36" fill="none" xmlns="http://www.w3.org/2000/svg">
<path d="M16.25 20C25.0821 20 32.5 26.3955 32.5 34.584V35.834L0 35.834L0 34.584C0 26.3955 7.41785 20 16.25 20ZM16.25 22.5C9.01193 22.5 3.28139 27.3537 2.57324 33.334L29.9268 33.334C29.2186 27.3537 23.4881 22.5 16.25 22.5ZM16.25 0C21.0824 1.12742e-07 24.9998 3.91766 25 8.75C25 13.5825 21.0825 17.5 16.25 17.5C11.4175 17.5 7.5 13.5825 7.5 8.75C7.50018 3.91766 11.4176 0 16.25 0ZM16.25 2.5C12.7983 2.5 10.0002 5.29837 10 8.75C10 12.2018 12.7982 15 16.25 15C19.7018 15 22.5 12.2018 22.5 8.75C22.4998 5.29837 19.7017 2.5 16.25 2.5Z" fill="#3F337C"/>
</svg>
