<svg width="18" height="17" viewBox="0 0 18 17" fill="none" xmlns="http://www.w3.org/2000/svg">
<path fill-rule="evenodd" clip-rule="evenodd" d="M14.5481 2.4089C14.6192 2.67375 14.6449 2.96465 14.6541 3.30801C14.7758 3.31875 14.8928 3.33147 15.0053 3.34655C15.7609 3.4479 16.4282 3.66887 16.9625 4.20196C17.4969 4.73505 17.7184 5.40083 17.82 6.15468C17.9167 6.87274 17.9167 7.77999 17.9167 8.88022V10.6198C17.9167 11.7201 17.9167 12.6273 17.82 13.3454C17.7184 14.0992 17.4969 14.765 16.9625 15.2981C16.4282 15.8312 15.7609 16.0522 15.0053 16.1535C14.2855 16.2501 13.3761 16.25 12.2734 16.25H7.26998C5.78496 16.25 4.58799 16.25 3.64658 16.1238C2.66919 15.9927 1.84625 15.7122 1.19265 15.0601C0.539058 14.4081 0.257936 13.587 0.12653 12.6119C-3.78489e-05 11.6727 -2.07116e-05 10.4785 5.49e-07 8.997V8.99698V2.43757C5.49e-07 1.09138 1.09385 7.83652e-05 2.44318 7.83652e-05L10.6992 3.83632e-05C11.3469 -0.000311581 11.828 -0.000571435 12.2446 0.110819C13.3688 0.411336 14.2469 1.28736 14.5481 2.4089ZM11.8227 1.68043C11.6417 1.63204 11.3965 1.62506 10.5868 1.62506H2.44281C1.99304 1.62506 1.62842 1.98883 1.62842 2.43756C1.62842 2.88629 1.99304 3.25005 2.44281 3.25005L12.273 3.25005C12.5334 3.25004 12.7831 3.25004 13.0219 3.2513C13.0145 3.04123 13.0004 2.92618 12.9744 2.82947C12.8238 2.2687 12.3848 1.83069 11.8227 1.68043ZM13.5417 8.125C14.4621 8.125 15.2083 8.87119 15.2083 9.79167C15.2083 10.7121 14.4621 11.4583 13.5417 11.4583C12.6212 11.4583 11.875 10.7121 11.875 9.79167C11.875 8.87119 12.6212 8.125 13.5417 8.125Z" fill="url(#paint0_linear_2287_2018)"/>
<defs>
<linearGradient id="paint0_linear_2287_2018" x1="17.9167" y1="7.59112" x2="-0.00123343" y2="7.61223" gradientUnits="userSpaceOnUse">
<stop stop-color="#15C472"/>
<stop offset="1" stop-color="#0A717E"/>
</linearGradient>
</defs>
</svg>
