<svg width="24" height="24" viewBox="0 0 24 24" fill="none" xmlns="http://www.w3.org/2000/svg">
<g clip-path="url(#clip0_380_17833)">
<path fill-rule="evenodd" clip-rule="evenodd" d="M12.1194 2.679C12.1413 2.7105 12.252 2.89013 12.2657 3.21863C12.2977 3.98362 12.2527 7.50975 12.2527 7.50975C12.2475 7.92 11.9163 8.25 11.5101 8.25H3.34126C2.93096 8.25 2.59863 7.91437 2.59863 7.5V3.75C2.59863 2.71463 3.43 1.875 4.45519 1.875H10.5956C11.2264 1.875 11.7841 2.193 12.1194 2.679Z" fill="url(#paint0_linear_380_17833)"/>
<path fill-rule="evenodd" clip-rule="evenodd" d="M18.6874 8.25011H9.02476C8.75964 8.25011 8.51457 8.10723 8.38165 7.87511C8.24909 7.64298 8.24909 7.35723 8.38165 7.12511L11.7045 1.31298C12.2173 0.415983 13.3528 0.108858 14.2406 0.626358L19.5581 3.72723C20.4463 4.24473 20.7504 5.39148 20.2376 6.28848L19.3305 7.87511C19.1979 8.10723 18.9529 8.25011 18.6874 8.25011Z" fill="url(#paint1_linear_380_17833)"/>
<path fill-rule="evenodd" clip-rule="evenodd" d="M21.5358 21C21.5358 21.696 21.2622 22.3639 20.7747 22.8563C20.2871 23.3482 19.6262 23.625 18.9367 23.625H2.97027C1.53478 23.625 0.371094 22.4498 0.371094 21V9C0.371094 7.55025 1.53478 6.375 2.97027 6.375H18.9367C20.3722 6.375 21.5358 7.55025 21.5358 9V21Z" fill="url(#paint2_linear_380_17833)"/>
<path d="M23.3925 13.125V16.875C23.3925 17.7038 22.7278 18.375 21.9072 18.375H18.5654C16.7237 18.375 15.2236 16.86 15.2236 15C15.2236 13.14 16.7237 11.625 18.5654 11.625H21.9072C22.7278 11.625 23.3925 12.2962 23.3925 13.125Z" fill="url(#paint3_linear_380_17833)"/>
<path d="M18.5726 15.75C18.1627 15.75 17.8281 15.414 17.8281 15C17.8281 14.586 18.159 14.25 18.5689 14.25H18.5726C18.9829 14.25 19.3152 14.586 19.3152 15C19.3152 15.414 18.9829 15.75 18.5726 15.75Z" fill="#DF781B"/>
<path fill-rule="evenodd" clip-rule="evenodd" d="M0.371094 9H21.5358V10.5H0.371094V9Z" fill="#DF781B"/>
<path fill-rule="evenodd" clip-rule="evenodd" d="M0.371094 19.5H21.5358V21H0.371094V19.5Z" fill="#DF781B"/>
</g>
<defs>
<linearGradient id="paint0_linear_380_17833" x1="0.716084" y1="-0.0633752" x2="10.3795" y2="7.47164" gradientUnits="userSpaceOnUse">
<stop offset="0.3149" stop-color="#32EAAD"/>
<stop offset="0.6401" stop-color="#20D39C"/>
<stop offset="0.7912" stop-color="#19B589"/>
</linearGradient>
<linearGradient id="paint1_linear_380_17833" x1="14.3846" y1="0.375108" x2="14.3846" y2="8.25011" gradientUnits="userSpaceOnUse">
<stop stop-color="#32EAAD"/>
<stop offset="0.3526" stop-color="#20D39C"/>
<stop offset="0.5168" stop-color="#1FD09A"/>
<stop offset="0.6326" stop-color="#1DC794"/>
<stop offset="0.7333" stop-color="#1AB78B"/>
<stop offset="0.7457" stop-color="#19B589"/>
</linearGradient>
<linearGradient id="paint2_linear_380_17833" x1="10.9535" y1="6.375" x2="10.9535" y2="23.625" gradientUnits="userSpaceOnUse">
<stop stop-color="#F9CB8F"/>
<stop offset="0.3922" stop-color="#FCB043"/>
<stop offset="0.5534" stop-color="#FAAC40"/>
<stop offset="0.7172" stop-color="#F4A037"/>
<stop offset="0.8817" stop-color="#E98B29"/>
<stop offset="1" stop-color="#DF781B"/>
</linearGradient>
<linearGradient id="paint3_linear_380_17833" x1="15.2236" y1="15" x2="23.3925" y2="15" gradientUnits="userSpaceOnUse">
<stop stop-color="#DF781B"/>
<stop offset="0.4048" stop-color="#CE6810"/>
<stop offset="0.6481" stop-color="#C15C08"/>
<stop offset="1" stop-color="#99490D"/>
</linearGradient>
<clipPath id="clip0_380_17833">
<rect width="23.7639" height="24" fill="white"/>
</clipPath>
</defs>
</svg>
