<svg width="15" height="15" viewBox="0 0 15 15" fill="none" xmlns="http://www.w3.org/2000/svg">
<path fill-rule="evenodd" clip-rule="evenodd" d="M5.14889 3.33381L5.08712 3.33374C4.76734 3.3332 4.47234 3.3327 4.18223 3.46522C3.97146 3.56149 3.79211 3.72506 3.66152 3.88843C3.53093 4.0518 3.41088 4.26276 3.3634 4.48956C3.2983 4.80046 3.35198 5.03701 3.40941 5.29006L3.41734 5.32506C3.70702 6.60792 4.38423 7.86583 5.4261 8.90771C6.46798 9.94958 7.72589 10.6268 9.00875 10.9165L9.04374 10.9244C9.2968 10.9818 9.53335 11.0355 9.84425 10.9704C10.071 10.9229 10.282 10.8029 10.4454 10.6723C10.6087 10.5417 10.7723 10.3624 10.8686 10.1516C11.0011 9.86147 11.0006 9.56647 11.0001 9.24669L11 9.18492C11 9.03801 10.9955 8.79059 10.9002 8.56192C10.7863 8.28874 10.5518 8.06358 10.1842 8.00597L10.1804 8.00537C9.72481 7.93398 9.37831 7.87968 9.13338 7.84407C9.01077 7.82625 8.90901 7.81243 8.8294 7.80339C8.76397 7.79595 8.67393 7.78661 8.59862 7.79102C8.27225 7.81012 8.01267 7.94251 7.81161 8.08029C7.68365 8.16797 7.54462 8.28541 7.43528 8.37775C7.39234 8.41402 7.35398 8.44642 7.32267 8.47163L6.86804 8.83767C6.61325 8.6471 6.36731 8.4347 6.13321 8.2006C5.89911 7.96649 5.68671 7.72056 5.49614 7.46577L5.86218 7.01114C5.88739 6.97983 5.91979 6.94147 5.95606 6.89853C6.0484 6.7892 6.16584 6.65015 6.25352 6.5222C6.3913 6.32114 6.52369 6.06156 6.54279 5.73519C6.5472 5.65988 6.53786 5.56984 6.53042 5.50441C6.52138 5.4248 6.50756 5.32304 6.48974 5.20043C6.45413 4.95545 6.39985 4.60914 6.32844 4.15346L6.32784 4.14964C6.27023 3.78201 6.04507 3.54748 5.77189 3.43364C5.54322 3.33834 5.2958 3.33381 5.14889 3.33381ZM9.22901 9.94103C8.73408 9.82927 8.24007 9.64902 7.76312 9.40085L7.94981 9.25053C8.02297 9.19163 8.08187 9.14157 8.13446 9.09688C8.22054 9.02372 8.28972 8.96492 8.37689 8.90518C8.48887 8.82844 8.57062 8.79693 8.6458 8.79015C8.64665 8.79022 8.64788 8.79032 8.64952 8.79044C8.65835 8.79113 8.67912 8.79275 8.71653 8.797C8.7804 8.80425 8.86989 8.81628 8.98952 8.83367C9.22105 8.86733 9.54848 8.91855 9.9877 8.98738C9.98944 8.99691 9.99117 9.00821 9.99274 9.02149C9.99804 9.06629 10 9.11944 10 9.18492C10 9.60143 9.9904 9.66733 9.95899 9.7361C9.94631 9.76387 9.90221 9.82625 9.82098 9.89118C9.73976 9.95611 9.6692 9.98538 9.63932 9.99164C9.55832 10.0086 9.52229 10.0073 9.22901 9.94103ZM5.08328 6.384L4.93296 6.57069C4.68479 6.09374 4.50454 5.59973 4.39278 5.1048C4.32655 4.81152 4.32521 4.77549 4.34217 4.69449C4.34843 4.66461 4.3777 4.59405 4.44263 4.51282C4.50756 4.4316 4.56994 4.3875 4.59771 4.37482C4.66648 4.34341 4.73237 4.33381 5.14889 4.33381C5.21437 4.33381 5.26752 4.33577 5.31232 4.34107C5.3256 4.34264 5.3369 4.34437 5.34642 4.34611C5.41526 4.78533 5.46648 5.11276 5.50014 5.34429C5.51753 5.46392 5.52956 5.55341 5.53681 5.61728C5.54106 5.65466 5.54268 5.67543 5.54336 5.68427C5.54349 5.68592 5.54359 5.68716 5.54366 5.68801C5.53688 5.76319 5.50536 5.84493 5.42863 5.95691C5.36889 6.04409 5.31009 6.11327 5.23693 6.19935C5.19224 6.25194 5.14218 6.31084 5.08328 6.384Z" fill="url(#paint0_linear_1973_7088)"/>
<path fill-rule="evenodd" clip-rule="evenodd" d="M7.16668 0.000336647C3.20864 0.000336647 1.13709e-05 3.20896 1.13709e-05 7.167C1.13709e-05 8.15427 0.199926 9.09612 0.561955 9.95331C0.656926 10.1782 0.720949 10.3301 0.763712 10.4469C0.807329 10.566 0.813455 10.6091 0.814223 10.6202C0.818556 10.6828 0.802714 10.7679 0.694613 11.1719L0.017002 13.7044C-0.029153 13.8769 0.0201909 14.061 0.146458 14.1872C0.272725 14.3135 0.456747 14.3628 0.629247 14.3167L3.16176 13.6391C3.56578 13.531 3.6509 13.5151 3.71351 13.5195C3.72461 13.5202 3.7677 13.5264 3.88679 13.57C4.00356 13.6127 4.15551 13.6768 4.38037 13.7717C5.23756 14.1338 6.17941 14.3337 7.16668 14.3337C11.1247 14.3337 14.3333 11.125 14.3333 7.167C14.3333 3.20896 11.1247 0.000336647 7.16668 0.000336647ZM1.00001 7.167C1.00001 3.76125 3.76092 1.00034 7.16668 1.00034C10.5724 1.00034 13.3333 3.76125 13.3333 7.167C13.3333 10.5728 10.5724 13.3337 7.16668 13.3337C6.31545 13.3337 5.50573 13.1615 4.76944 12.8505L4.75788 12.8456C4.54759 12.7568 4.37308 12.6831 4.23069 12.631C4.08802 12.5787 3.93783 12.5326 3.78255 12.5218C3.53041 12.5044 3.26888 12.5747 2.96839 12.6556L1.20668 13.127L1.6781 11.3653C1.75894 11.0648 1.82929 10.8033 1.81184 10.5511C1.80109 10.3959 1.75497 10.2457 1.70272 10.103C1.65058 9.96062 1.57689 9.78615 1.48809 9.57591L1.48316 9.56424C1.1722 8.82795 1.00001 8.01823 1.00001 7.167Z" fill="url(#paint1_linear_1973_7088)"/>
<defs>
<linearGradient id="paint0_linear_1973_7088" x1="14.3333" y1="6.6961" x2="-0.000990277" y2="6.71142" gradientUnits="userSpaceOnUse">
<stop stop-color="#15C472"/>
<stop offset="1" stop-color="#0A717E"/>
</linearGradient>
<linearGradient id="paint1_linear_1973_7088" x1="14.3333" y1="6.6961" x2="-0.000990277" y2="6.71142" gradientUnits="userSpaceOnUse">
<stop stop-color="#15C472"/>
<stop offset="1" stop-color="#0A717E"/>
</linearGradient>
</defs>
</svg>
